<svg id="Layer_1" data-name="Layer 1" xmlns="http://www.w3.org/2000/svg" xmlns:xlink="http://www.w3.org/1999/xlink" viewBox="0 0 248.51 183.92"><defs><style>.cls-1,.cls-3{fill:none;}.cls-2{clip-path:url(#clip-path);}.cls-3{stroke:#231f20;stroke-width:0.5px;}</style><clipPath id="clip-path"><rect class="cls-1" width="261.8" height="178.82"/></clipPath></defs><g class="cls-2"><path class="cls-3" d="M20.3,168.39c0-2,0-3.84,0-4.79h0c-.51,1.09-3.11,6.44-4.71,9.69h-.28c-1.19-2.49-4.21-8.81-4.59-9.65h0c0,.85,0,3.44,0,5.13v4.52h-.29v-10h.36c1.77,3.65,4.4,9.1,4.64,9.65h0c.42-.84,3-6.22,4.7-9.65h.41v10h-.3Zm8.28,3.35a12.1,12.1,0,0,0,.08,1.55h-.28a9,9,0,0,1-.1-1.53c-.39,1.08-1.3,1.73-3.05,1.73-2,0-2.62-1.19-2.62-2.15,0-1.73,1.64-2.22,3.63-2.22h2v-.7c0-1.09-.54-2.1-2.42-2.1s-2.36.81-2.55,1.89H23c.17-1.14.87-2.16,2.88-2.16s2.69,1.08,2.69,2.33Zm-.3-2.34c-.54,0-1.19,0-2.06,0-1.38,0-3.3.21-3.3,2,0,1.12.92,1.87,2.31,1.87,2.25,0,3.05-1.12,3.05-2.83Zm3.25.7,4.9-3.84h.46l-3.63,2.81,4.08,4.22H37l-3.91-4-1.51,1.18v2.87h-.3V162.5h.3Zm6.87-.34c0,2.21,1.35,3.46,3.12,3.46a2.94,2.94,0,0,0,2.86-1.68h.32a3.22,3.22,0,0,1-3.18,2c-2.49,0-3.43-2-3.43-3.7a3.4,3.4,0,0,1,3.43-3.73,3.16,3.16,0,0,1,3.32,3.41v.29Zm6.15-.27c-.06-1.72-.92-3.16-3-3.16a3.06,3.06,0,0,0-3.09,3.16Zm0,0Z"/></g><g class="cls-2"><path class="cls-3" d="M200.76,168.33v5h-.29v-10h4.13c1.7,0,3,.87,3,2.5a2.31,2.31,0,0,1-2.24,2.46c1.31.25,2.15.92,2.15,2.85v.13a11.84,11.84,0,0,0,.1,2.1h-.31a11.51,11.51,0,0,1-.1-2.1v-.13c0-1.69-.63-2.73-3.11-2.73Zm0-.26h3.38c2,0,3.14-.63,3.14-2.29,0-1.47-1.09-2.27-2.82-2.27h-3.7Zm9.05,1.69c0,2.21,1.34,3.46,3.12,3.46a2.94,2.94,0,0,0,2.86-1.68h.32a3.24,3.24,0,0,1-3.18,2c-2.49,0-3.43-2-3.43-3.7a3.4,3.4,0,0,1,3.43-3.73,3.16,3.16,0,0,1,3.32,3.41v.29Zm6.15-.27c-.06-1.72-.93-3.16-3.06-3.16a3.06,3.06,0,0,0-3.08,3.16Zm0,0Zm1.32-3.23h1.4v-2.35h.3v2.35h1.86v.26H219v5.1c0,1,.18,1.54,1.15,1.54a2,2,0,0,0,.64-.09v.25a1.76,1.76,0,0,1-.64.11c-1,0-1.45-.46-1.45-1.86v-5h-1.4Zm10.93,4.86c0,.7,0,1.88,0,2.17h-.29c0-.25,0-1.39,0-2a2.75,2.75,0,0,1-2.94,2.19,2.57,2.57,0,0,1-2.79-2.9v-4.3h.3v4.33a2.32,2.32,0,0,0,2.51,2.59c2.11,0,2.92-1.57,2.92-3.57v-3.35h.3Zm2.6-2.47c0-1.07,0-1.87,0-2.39h.29c0,.35,0,1.53,0,2.07a3.26,3.26,0,0,1,2.93-2.27v.31a3.13,3.13,0,0,0-2.93,3.14v3.78h-.29Zm4.72-.21c0-1.37,0-1.9,0-2.18h.28c0,.22.05,1.3,0,1.88a3,3,0,0,1,3-2.08c1.61,0,2.77,1,2.77,3.06v4.17h-.29v-4.12c0-1.69-.9-2.83-2.53-2.83a3,3,0,0,0-3,3.18v3.77h-.29Z"/></g><line class="cls-3" x1="39" y1="146" x2="105" y2="31"/><line class="cls-3" x1="135" y1="30.75" x2="209" y2="146.25"/><line class="cls-3" x1="66" y1="170" x2="184" y2="170"/><path class="cls-3" d="M110.22,9.25v5.82c0,3.35,2,4.15,3.73,4.15,2.21,0,3.77-1,3.77-4.17V9.25H118V15c0,3.29-1.62,4.5-4.06,4.5s-4-1.45-4-4.35V9.25ZM120,17.41a2.38,2.38,0,0,0,2.62,1.81c1.47,0,2.42-.6,2.42-1.72,0-.7-.15-1.43-2.33-1.81-2.36-.41-2.64-1-2.64-1.86s.61-1.77,2.43-1.77c2,0,2.55,1.12,2.65,1.89h-.29c-.14-.71-.59-1.62-2.37-1.62-1.62,0-2.11.85-2.11,1.48,0,1,.58,1.29,2.43,1.63,2.13.39,2.54,1.09,2.54,2,0,1.25-1,2-2.73,2s-2.75-.93-2.92-2.08Zm7.1-1.65c0,2.21,1.34,3.46,3.12,3.46a3,3,0,0,0,2.86-1.68h.32a3.24,3.24,0,0,1-3.18,1.95c-2.49,0-3.43-2-3.43-3.7a3.4,3.4,0,0,1,3.43-3.73,3.16,3.16,0,0,1,3.32,3.41v.29Zm6.14-.27c-.05-1.72-.92-3.16-3.05-3.16a3.06,3.06,0,0,0-3.08,3.16Zm0,0Z"/></svg>