<svg id="Layer_1" data-name="Layer 1" xmlns="http://www.w3.org/2000/svg" viewBox="0 0 243 243"><defs><style>.cls-1{fill:none;stroke:#231f20;stroke-miterlimit:10;stroke-width:0.5px;}.cls-2{fill:#231f20;}</style></defs><rect class="cls-1" x="42.74" y="207.45" width="162.25" height="33.58"/><path class="cls-2" d="M59.53,218.63h1.31v10.45H59.53Z"/><path class="cls-2" d="M63.81,228.94a2.36,2.36,0,0,1-1.47-2v-.06h1.26l0,.07a1.42,1.42,0,0,0,.54.88,2,2,0,0,0,1.2.32,2.48,2.48,0,0,0,.87-.14,1.29,1.29,0,0,0,.56-.38,1,1,0,0,0,.2-.59h0a.89.89,0,0,0-.25-.65,1.89,1.89,0,0,0-.89-.41l-1.2-.29a3.33,3.33,0,0,1-1.58-.76,1.76,1.76,0,0,1-.52-1.32h0a1.91,1.91,0,0,1,.35-1.15,2.26,2.26,0,0,1,1-.78,3.38,3.38,0,0,1,1.43-.29,3.25,3.25,0,0,1,1.44.3,2.36,2.36,0,0,1,1,.79,2.21,2.21,0,0,1,.4,1.14v.09H66.9v-.05a1.31,1.31,0,0,0-.48-.88,1.7,1.7,0,0,0-1.12-.34,2.14,2.14,0,0,0-.79.14A1.13,1.13,0,0,0,64,223a1,1,0,0,0-.17.58h0a.88.88,0,0,0,.27.65,1.89,1.89,0,0,0,.9.42l1.19.29a3.26,3.26,0,0,1,1.61.76,1.77,1.77,0,0,1,.47,1.28h0a1.93,1.93,0,0,1-.38,1.17,2.65,2.65,0,0,1-1,.79,4.1,4.1,0,0,1-3,0Z"/><path class="cls-2" d="M70.71,228.94a2.37,2.37,0,0,1-1-.79,2.46,2.46,0,0,1-.46-1.18v-.06H70.5V227a1.42,1.42,0,0,0,.54.88,2,2,0,0,0,1.2.32,2.58,2.58,0,0,0,.88-.14,1.26,1.26,0,0,0,.55-.38,1,1,0,0,0,.2-.59h0a.85.85,0,0,0-.25-.65,1.89,1.89,0,0,0-.89-.41l-1.19-.29A3.38,3.38,0,0,1,70,225a1.76,1.76,0,0,1-.52-1.32h0a2,2,0,0,1,.35-1.15,2.26,2.26,0,0,1,1-.78,3.43,3.43,0,0,1,1.44-.29,3.17,3.17,0,0,1,1.43.3,2.46,2.46,0,0,1,1,.79,2.29,2.29,0,0,1,.39,1.14v.09h-1.2v-.05a1.31,1.31,0,0,0-.48-.88,1.69,1.69,0,0,0-1.11-.34,2.07,2.07,0,0,0-.79.14,1,1,0,0,0-.51.39,1,1,0,0,0-.18.58h0a.88.88,0,0,0,.27.65,2,2,0,0,0,.9.42l1.2.29a3.22,3.22,0,0,1,1.6.76,1.77,1.77,0,0,1,.47,1.28h0a1.93,1.93,0,0,1-.38,1.17,2.58,2.58,0,0,1-1.05.79,4.1,4.1,0,0,1-3,0Z"/><path class="cls-2" d="M77.63,228.89a2.32,2.32,0,0,1-.89-1,3.4,3.4,0,0,1-.3-1.48v-4.89H77.7v4.66a2,2,0,0,0,.43,1.41,1.62,1.62,0,0,0,1.3.49,2,2,0,0,0,1-.26,1.85,1.85,0,0,0,.69-.75,2.46,2.46,0,0,0,.24-1.12v-4.43h1.26v7.53H81.39V228h0a2.45,2.45,0,0,1-.88.87,2.74,2.74,0,0,1-1.44.35A2.83,2.83,0,0,1,77.63,228.89Z"/><path class="cls-2" d="M85.53,228.75a3.15,3.15,0,0,1-1.2-1.35,4.88,4.88,0,0,1-.41-2.06h0a4.77,4.77,0,0,1,.42-2.06,3.26,3.26,0,0,1,1.18-1.38,3.48,3.48,0,0,1,3.56,0,3.1,3.1,0,0,1,1.14,1.33,4.73,4.73,0,0,1,.4,2v.46H84.55v-1H90l-.63.91v-.48a3.38,3.38,0,0,0-.27-1.45,1.81,1.81,0,0,0-.73-.85,2,2,0,0,0-1.06-.28,2.08,2.08,0,0,0-1.08.29,2,2,0,0,0-.75.87,3.21,3.21,0,0,0-.28,1.42v.48a3.11,3.11,0,0,0,.27,1.36,2,2,0,0,0,.77.87,2.28,2.28,0,0,0,1.18.3,2.54,2.54,0,0,0,.86-.14,1.84,1.84,0,0,0,.63-.4,1.48,1.48,0,0,0,.36-.58l0-.07h1.24V227a2.55,2.55,0,0,1-.36.87,2.89,2.89,0,0,1-.68.72,3.47,3.47,0,0,1-.94.48,3.78,3.78,0,0,1-1.14.17A3.48,3.48,0,0,1,85.53,228.75Z"/><path class="cls-2" d="M93,228.74a3.16,3.16,0,0,1-1.12-1.36,5,5,0,0,1-.4-2.07h0a4.93,4.93,0,0,1,.41-2.07A3.17,3.17,0,0,1,93,221.89a2.87,2.87,0,0,1,1.66-.49,2.75,2.75,0,0,1,1.43.38,2.56,2.56,0,0,1,1,1h0v-4.18h1.26v10.45H97.13v-1.27h0a2.59,2.59,0,0,1-2.39,1.42A3,3,0,0,1,93,228.74Zm3.06-1a2.24,2.24,0,0,0,.77-1,3.54,3.54,0,0,0,.28-1.47h0a3.54,3.54,0,0,0-.28-1.47,2.36,2.36,0,0,0-.77-1,1.85,1.85,0,0,0-1.13-.35,1.93,1.93,0,0,0-1.15.34,2.28,2.28,0,0,0-.75,1,3.93,3.93,0,0,0-.26,1.49h0a4,4,0,0,0,.26,1.5,2.16,2.16,0,0,0,.75,1,2.06,2.06,0,0,0,2.28,0Z"/><path class="cls-2" d="M103.33,218.63h6.48v1.17h-5.17v3.36h4.9v1.16h-4.9v3.59h5.17v1.17h-6.48Z"/><path class="cls-2" d="M111.52,218.63h3.92a3.77,3.77,0,0,1,1.76.39,2.82,2.82,0,0,1,1.16,1.08,3.15,3.15,0,0,1,.41,1.64v0a3.14,3.14,0,0,1-.56,1.88,2.86,2.86,0,0,1-1.54,1.1l2.42,4.34h-1.53L115.33,225h-2.5v4.13h-1.31Zm3.81,5.16a2.14,2.14,0,0,0,1.55-.52,2,2,0,0,0,.55-1.48v0a1.86,1.86,0,0,0-.58-1.46,2.25,2.25,0,0,0-1.58-.52h-2.44v4Z"/><path class="cls-2" d="M122.25,228.59a4.47,4.47,0,0,1-1.66-1.88,6.52,6.52,0,0,1-.58-2.86h0a6.5,6.5,0,0,1,.58-2.85,4.39,4.39,0,0,1,1.66-1.87,4.75,4.75,0,0,1,2.53-.66,4.62,4.62,0,0,1,2,.41,4,4,0,0,1,1.48,1.15,3.89,3.89,0,0,1,.8,1.73v.07h-1.32l0-.16a2.85,2.85,0,0,0-.6-1.08,2.7,2.7,0,0,0-1-.68,3.45,3.45,0,0,0-1.32-.24,3.16,3.16,0,0,0-1.82.52,3.36,3.36,0,0,0-1.19,1.45,5.38,5.38,0,0,0-.42,2.21h0a5.38,5.38,0,0,0,.42,2.21,3.37,3.37,0,0,0,1.2,1.47,3.13,3.13,0,0,0,1.81.52,3.4,3.4,0,0,0,1.31-.24,2.63,2.63,0,0,0,1-.7,3.17,3.17,0,0,0,.64-1.16l0-.06h1.32V226a3.93,3.93,0,0,1-2.28,2.89,5.14,5.14,0,0,1-4.51-.26Z"/><path class="cls-2" d="M130.07,224.26h4.64v1.17h-4.64Z"/><path class="cls-2" d="M136.42,228.18l3.68-3.84c.47-.49.83-.9,1.08-1.22a3.25,3.25,0,0,0,.51-.86,2.25,2.25,0,0,0,.14-.82h0a1.75,1.75,0,0,0-.25-1,1.7,1.7,0,0,0-.68-.65,2.09,2.09,0,0,0-1-.24,2.46,2.46,0,0,0-1.17.27,2.29,2.29,0,0,0-.81.73,1.84,1.84,0,0,0-.3,1v0h-1.26v0a2.88,2.88,0,0,1,.47-1.62,3.28,3.28,0,0,1,1.27-1.12,3.78,3.78,0,0,1,1.77-.41,3.54,3.54,0,0,1,1.69.38,3,3,0,0,1,1.16,1,2.62,2.62,0,0,1,.43,1.48h0a2.78,2.78,0,0,1-.22,1.11,5,5,0,0,1-.74,1.21,20,20,0,0,1-1.49,1.65l-2.87,2.94.39-.8v.8l-.39-.36h5.49v1.16h-6.89Z"/><path class="cls-2" d="M146.39,228.6a4.13,4.13,0,0,1-1.31-1.87,8,8,0,0,1-.46-2.87v0a7.94,7.94,0,0,1,.46-2.86,4.08,4.08,0,0,1,1.31-1.87,3.61,3.61,0,0,1,4.13,0,4.17,4.17,0,0,1,1.32,1.87,7.94,7.94,0,0,1,.46,2.86v0a8,8,0,0,1-.46,2.87,4.23,4.23,0,0,1-1.32,1.87,3.61,3.61,0,0,1-4.13,0Zm3.43-1a3.31,3.31,0,0,0,.87-1.47,7.66,7.66,0,0,0,.3-2.27v0a7.59,7.59,0,0,0-.3-2.26,3.31,3.31,0,0,0-.87-1.47,2,2,0,0,0-1.37-.51,2,2,0,0,0-1.36.51,3.39,3.39,0,0,0-.86,1.47,7.59,7.59,0,0,0-.3,2.26v0a7.66,7.66,0,0,0,.3,2.27,3.39,3.39,0,0,0,.86,1.47,2,2,0,0,0,1.36.52A2,2,0,0,0,149.82,227.6Z"/><path class="cls-2" d="M159.66,219.8h-3.3v-1.17h7.9v1.17H161v9.28h-1.3Z"/><path class="cls-2" d="M164.77,228.75a3.23,3.23,0,0,1-1.22-1.36,4.65,4.65,0,0,1-.44-2.08h0a4.58,4.58,0,0,1,.44-2.07,3.15,3.15,0,0,1,1.22-1.35,3.47,3.47,0,0,1,1.83-.48,3.41,3.41,0,0,1,1.82.48,3.11,3.11,0,0,1,1.23,1.35,4.58,4.58,0,0,1,.44,2.07h0a4.59,4.59,0,0,1-.44,2.08,3.23,3.23,0,0,1-1.22,1.36,3.42,3.42,0,0,1-1.83.48A3.47,3.47,0,0,1,164.77,228.75Zm3-1a2.18,2.18,0,0,0,.76-1,3.78,3.78,0,0,0,.27-1.51h0a3.81,3.81,0,0,0-.27-1.51,2.15,2.15,0,0,0-.77-.95,2.12,2.12,0,0,0-1.16-.32,2,2,0,0,0-1.15.33,2.1,2.1,0,0,0-.77,1,3.56,3.56,0,0,0-.28,1.5h0a3.6,3.6,0,0,0,.28,1.51,2.13,2.13,0,0,0,.77,1,2.2,2.2,0,0,0,2.32,0Z"/><path class="cls-2" d="M171.46,218.63h1.26v10.45h-1.26Zm1,6.24h.32l3.3-3.32h1.53L174,225.1h-.11l-1.47,1.41Zm.92.61.84-.84,3.49,4.44h-1.47Z"/><path class="cls-2" d="M179.43,228.75a3.13,3.13,0,0,1-1.19-1.35,4.74,4.74,0,0,1-.42-2.06h0a4.77,4.77,0,0,1,.42-2.06,3.33,3.33,0,0,1,1.18-1.38,3.23,3.23,0,0,1,1.79-.5,3.17,3.17,0,0,1,1.77.48,3,3,0,0,1,1.14,1.33,4.58,4.58,0,0,1,.4,2v.46h-6.07v-1h5.45l-.64.91v-.48a3.55,3.55,0,0,0-.26-1.45,1.87,1.87,0,0,0-.73-.85,2.15,2.15,0,0,0-2.14,0,2.09,2.09,0,0,0-.76.87,3.36,3.36,0,0,0-.27,1.42v.48a3.11,3.11,0,0,0,.27,1.36,2,2,0,0,0,.77.87,2.25,2.25,0,0,0,1.18.3,2.48,2.48,0,0,0,.85-.14,1.66,1.66,0,0,0,.63-.4,1.64,1.64,0,0,0,.37-.58l0-.07h1.24l0,.07a2.37,2.37,0,0,1-.36.87,2.85,2.85,0,0,1-.67.72,3.62,3.62,0,0,1-.94.48,3.9,3.9,0,0,1-1.15.17A3.48,3.48,0,0,1,179.43,228.75Z"/><path class="cls-2" d="M185.79,221.55h1.26v1.07h0a2.45,2.45,0,0,1,.88-.87,2.79,2.79,0,0,1,1.44-.35,2.48,2.48,0,0,1,1.92.75,2.94,2.94,0,0,1,.68,2v4.89h-1.26v-4.66a2,2,0,0,0-.43-1.41,1.63,1.63,0,0,0-1.3-.49,2,2,0,0,0-1,.26,1.79,1.79,0,0,0-.69.75,2.44,2.44,0,0,0-.24,1.12v4.43h-1.26Z"/><rect class="cls-1" x="42.74" y="137.87" width="162.25" height="36.55"/><path class="cls-2" d="M63.88,151a3.39,3.39,0,0,1,1.28.88,4.27,4.27,0,0,1,.92,1.6,7.56,7.56,0,0,1,.35,2.45v0a8.22,8.22,0,0,1-.49,3,4.14,4.14,0,0,1-1.38,1.91,3.71,3.71,0,0,1-2.19.65,3.94,3.94,0,0,1-1.6-.31,3.37,3.37,0,0,1-1.2-.89,3.25,3.25,0,0,1-.65-1.33l0-.09h1.33l0,.07a2,2,0,0,0,.45.75,1.86,1.86,0,0,0,.71.48,2.49,2.49,0,0,0,1,.17,2.23,2.23,0,0,0,1.58-.56,3.38,3.38,0,0,0,.88-1.5,7.56,7.56,0,0,0,.32-2s0-.1,0-.14V156l-.32-1.72a2.33,2.33,0,0,0-1.17-2.08,2.27,2.27,0,0,0-1.21-.33,2.38,2.38,0,0,0-1.21.32,2.34,2.34,0,0,0-1.18,2.05h0a2.32,2.32,0,0,0,.31,1.21,2.16,2.16,0,0,0,.84.83,2.42,2.42,0,0,0,1.22.3,2.49,2.49,0,0,0,1.23-.3,2.26,2.26,0,0,0,.86-.82,2.21,2.21,0,0,0,.31-1.18h.44V156h-.15a2.65,2.65,0,0,1-.63.85,3.25,3.25,0,0,1-1,.61,3.57,3.57,0,0,1-1.29.22,3.49,3.49,0,0,1-1.78-.45A3.19,3.19,0,0,1,59.21,156a3.48,3.48,0,0,1-.45-1.77v0a3.46,3.46,0,0,1,.48-1.82,3.38,3.38,0,0,1,1.31-1.26,4.05,4.05,0,0,1,3.33-.19Z"/><path class="cls-2" d="M68,156.5h4.63v1.17H68Z"/><path class="cls-2" d="M74.46,150.87H78a5.35,5.35,0,0,1,2.65.62,4.15,4.15,0,0,1,1.69,1.78,6.07,6.07,0,0,1,.59,2.81h0a6.25,6.25,0,0,1-.58,2.82,4.18,4.18,0,0,1-1.69,1.79,5.39,5.39,0,0,1-2.66.62H74.46Zm3.42,9.28a4,4,0,0,0,2-.47,3,3,0,0,0,1.25-1.38,5,5,0,0,0,.43-2.19v0a5.09,5.09,0,0,0-.43-2.21,3,3,0,0,0-1.25-1.37,4,4,0,0,0-2-.47H75.76v8.11Z"/><path class="cls-2" d="M84.48,152.28a.8.8,0,0,1,0-1.12.79.79,0,0,1,.56-.23.79.79,0,0,1,.56,1.35.73.73,0,0,1-.56.23A.75.75,0,0,1,84.48,152.28Zm-.07,1.51h1.26v7.53H84.41Z"/><path class="cls-2" d="M89,163.74a3,3,0,0,1-1.11-.72,2.15,2.15,0,0,1-.55-1v-.07h1.26l0,.07a1.34,1.34,0,0,0,.7.64,3.1,3.1,0,0,0,1.29.23,2.14,2.14,0,0,0,1.53-.51,1.81,1.81,0,0,0,.55-1.38v-1h0a2.6,2.6,0,0,1-.58.73,2.66,2.66,0,0,1-.82.47,2.69,2.69,0,0,1-1,.17,3,3,0,0,1-1.67-.48,3.19,3.19,0,0,1-1.12-1.35,4.84,4.84,0,0,1-.4-2.05h0a4.64,4.64,0,0,1,.41-2,3.24,3.24,0,0,1,1.13-1.34,3,3,0,0,1,1.68-.48,2.59,2.59,0,0,1,1,.18,2.85,2.85,0,0,1,.8.5,3,3,0,0,1,.59.74h0v-1.27H93.9v7.32a2.81,2.81,0,0,1-.41,1.52,2.64,2.64,0,0,1-1.15,1,4.05,4.05,0,0,1-1.77.36A4.66,4.66,0,0,1,89,163.74Zm2.66-3.81a2.28,2.28,0,0,0,.75-1,3.49,3.49,0,0,0,.28-1.46h0a3.4,3.4,0,0,0-.28-1.44,2.22,2.22,0,0,0-.75-1,1.9,1.9,0,0,0-1.12-.34,1.94,1.94,0,0,0-1.16.34,2.13,2.13,0,0,0-.76,1,3.58,3.58,0,0,0-.26,1.45h0a3.65,3.65,0,0,0,.26,1.47,2.11,2.11,0,0,0,.76,1,1.94,1.94,0,0,0,1.16.34A1.89,1.89,0,0,0,91.61,159.93Z"/><path class="cls-2" d="M95.68,152.28a.8.8,0,0,1,0-1.12.77.77,0,0,1,.56-.23.79.79,0,0,1,.56.23.82.82,0,0,1,0,1.12.75.75,0,0,1-.56.23A.73.73,0,0,1,95.68,152.28Zm-.07,1.51h1.26v7.53H95.61Z"/><path class="cls-2" d="M99.48,161A2.1,2.1,0,0,1,99,159.4v-4.57H97.86v-1H99v-2h1.3v2h1.43v1h-1.43v4.56a1,1,0,0,0,.26.82,1.2,1.2,0,0,0,.77.21h.22l.18,0v1l-.3,0-.37,0A2.15,2.15,0,0,1,99.48,161Z"/><path class="cls-2" d="M106.29,150.87h1.3v10.45h-1.3Zm.65,9.3H110a2.88,2.88,0,0,0,1.78-.47,1.6,1.6,0,0,0,.62-1.36v0a1.72,1.72,0,0,0-.29-1,1.64,1.64,0,0,0-.84-.61,4,4,0,0,0-1.39-.2h-3v-1.13h2.61a3,3,0,0,0,1.77-.44,1.52,1.52,0,0,0,.61-1.3v0a1.43,1.43,0,0,0-.51-1.18A2.36,2.36,0,0,0,110,152h-3v-1.15h3.31a3.52,3.52,0,0,1,1.57.33,2.46,2.46,0,0,1,1.05.91,2.49,2.49,0,0,1,.38,1.37h0a2.25,2.25,0,0,1-.25,1,2.46,2.46,0,0,1-.67.83,2,2,0,0,1-1,.41v0a2.91,2.91,0,0,1,1.29.44,2.38,2.38,0,0,1,.84.89,2.67,2.67,0,0,1,.29,1.24v0a2.76,2.76,0,0,1-.43,1.57,2.7,2.7,0,0,1-1.21,1,4.76,4.76,0,0,1-1.91.35h-3.29Z"/><path class="cls-2" d="M116.35,161a3.23,3.23,0,0,1-1.22-1.36,4.65,4.65,0,0,1-.44-2.08h0a4.65,4.65,0,0,1,.44-2.08,3.18,3.18,0,0,1,1.22-1.34,3.71,3.71,0,0,1,3.65,0,3.2,3.2,0,0,1,1.23,1.34,4.65,4.65,0,0,1,.43,2.08h0a4.6,4.6,0,0,1-.43,2.08A3.25,3.25,0,0,1,120,161a3.39,3.39,0,0,1-1.82.48A3.45,3.45,0,0,1,116.35,161Zm3-1a2.11,2.11,0,0,0,.76-1,3.78,3.78,0,0,0,.27-1.51h0a3.81,3.81,0,0,0-.27-1.51,2.13,2.13,0,0,0-.76-.95,2.16,2.16,0,0,0-1.17-.32,2.06,2.06,0,0,0-1.15.33,2.16,2.16,0,0,0-.77.95,3.72,3.72,0,0,0-.27,1.5h0a3.78,3.78,0,0,0,.27,1.51,2.19,2.19,0,0,0,.77,1,2.08,2.08,0,0,0,1.17.33A2,2,0,0,0,119.34,160Z"/><path class="cls-2" d="M123.83,161a2.1,2.1,0,0,1-.52-1.57v-4.57h-1.1v-1h1.1v-2h1.31v2h1.43v1h-1.43v4.56a1,1,0,0,0,.26.82,1.2,1.2,0,0,0,.77.21h.22l.18,0v1l-.3,0-.37,0A2.15,2.15,0,0,1,123.83,161Z"/><path class="cls-2" d="M128.3,161a2.06,2.06,0,0,1-.52-1.57v-4.57h-1.1v-1h1.1v-2h1.31v2h1.43v1h-1.43v4.56a1,1,0,0,0,.26.82,1.2,1.2,0,0,0,.77.21h.22l.18,0v1l-.3,0-.37,0A2.15,2.15,0,0,1,128.3,161Z"/><path class="cls-2" d="M131.93,150.87h1.26v10.45h-1.26Z"/><path class="cls-2" d="M136.14,161a3.15,3.15,0,0,1-1.2-1.35,4.74,4.74,0,0,1-.41-2.06h0a4.77,4.77,0,0,1,.42-2.06,3.26,3.26,0,0,1,1.18-1.38,3.48,3.48,0,0,1,3.56,0,3.1,3.1,0,0,1,1.14,1.33,4.73,4.73,0,0,1,.4,2v.46h-6.07v-1h5.44l-.63.91v-.48a3.38,3.38,0,0,0-.27-1.45A1.87,1.87,0,0,0,139,155a2,2,0,0,0-1.06-.28,2.08,2.08,0,0,0-1.08.29,2,2,0,0,0-.75.87,3.18,3.18,0,0,0-.28,1.42v.48a3.11,3.11,0,0,0,.27,1.36,2,2,0,0,0,.77.87,2.28,2.28,0,0,0,1.18.3,2.54,2.54,0,0,0,.86-.14,1.84,1.84,0,0,0,.63-.4,1.48,1.48,0,0,0,.36-.58l0-.07h1.24v.07a2.76,2.76,0,0,1-.36.87,2.89,2.89,0,0,1-.68.72,3.47,3.47,0,0,1-.94.48,3.78,3.78,0,0,1-1.14.17A3.48,3.48,0,0,1,136.14,161Z"/><path class="cls-2" d="M145.73,150.87H147l6.86,9.84-1.66-1.59h.58v-8.25h1.29v10.45h-1.26L146,151.48l1.65,1.59H147v8.25h-1.29Z"/><path class="cls-2" d="M157.07,161.12a2.13,2.13,0,0,1-.89-1,3.26,3.26,0,0,1-.31-1.48v-4.89h1.26v4.66a2,2,0,0,0,.43,1.41,1.63,1.63,0,0,0,1.3.49,2.06,2.06,0,0,0,1-.26,1.83,1.83,0,0,0,.68-.75,2.46,2.46,0,0,0,.24-1.12v-4.43h1.26v7.53h-1.26v-1.07h0a2.37,2.37,0,0,1-.88.87,3.06,3.06,0,0,1-2.84,0Z"/><path class="cls-2" d="M163.72,153.79H165v1.1h0a2,2,0,0,1,.8-.9,2.29,2.29,0,0,1,1.26-.35,2.45,2.45,0,0,1,.93.17,2.06,2.06,0,0,1,1.19,1.28h0a2.43,2.43,0,0,1,.56-.78,2.38,2.38,0,0,1,.81-.49,2.72,2.72,0,0,1,1-.18,2.62,2.62,0,0,1,1.29.31,2.16,2.16,0,0,1,.86.86,2.72,2.72,0,0,1,.3,1.31v5.2h-1.26v-4.91a1.66,1.66,0,0,0-.41-1.21,1.46,1.46,0,0,0-1.15-.44,1.66,1.66,0,0,0-1.49.86,1.91,1.91,0,0,0-.21.91v4.79h-1.26v-5a1.48,1.48,0,0,0-.42-1.1,1.57,1.57,0,0,0-1.13-.41,1.64,1.64,0,0,0-.88.24,1.62,1.62,0,0,0-.61.66,1.92,1.92,0,0,0-.23.94v4.72h-1.26Z"/><path class="cls-2" d="M178,161.08a2.67,2.67,0,0,1-1-1h0v1.27H175.7V150.87H177v4.18h0a2.63,2.63,0,0,1,1-1,2.75,2.75,0,0,1,1.43-.38,2.89,2.89,0,0,1,1.66.48,3.28,3.28,0,0,1,1.12,1.36,4.93,4.93,0,0,1,.4,2.07h0a4.87,4.87,0,0,1-.4,2.07,3.09,3.09,0,0,1-1.12,1.36,3,3,0,0,1-1.68.49A2.56,2.56,0,0,1,178,161.08Zm2.32-1.07a2,2,0,0,0,.75-1,4,4,0,0,0,.26-1.5h0a3.93,3.93,0,0,0-.26-1.49,2.13,2.13,0,0,0-.75-1,1.91,1.91,0,0,0-1.15-.34,1.82,1.82,0,0,0-1.12.35,2.3,2.3,0,0,0-.78,1,3.71,3.71,0,0,0-.28,1.47h0a3.71,3.71,0,0,0,.28,1.47,2.32,2.32,0,0,0,.77,1,1.94,1.94,0,0,0,1.13.35A1.91,1.91,0,0,0,180.28,160Z"/><path class="cls-2" d="M185.09,161a3.15,3.15,0,0,1-1.2-1.35,4.88,4.88,0,0,1-.41-2.06h0a4.77,4.77,0,0,1,.42-2.06,3.26,3.26,0,0,1,1.18-1.38,3.48,3.48,0,0,1,3.56,0,3.1,3.1,0,0,1,1.14,1.33,4.73,4.73,0,0,1,.4,2v.46h-6.07v-1h5.44l-.63.91v-.48a3.38,3.38,0,0,0-.27-1.45,1.81,1.81,0,0,0-.73-.85,2,2,0,0,0-1.06-.28,2.08,2.08,0,0,0-1.08.29,2,2,0,0,0-.75.87,3.18,3.18,0,0,0-.28,1.42v.48a3.11,3.11,0,0,0,.27,1.36,2,2,0,0,0,.78.87,2.23,2.23,0,0,0,1.18.3,2.52,2.52,0,0,0,.85-.14,1.84,1.84,0,0,0,.63-.4,1.48,1.48,0,0,0,.36-.58l0-.07h1.24v.07a2.37,2.37,0,0,1-.36.87,2.89,2.89,0,0,1-.68.72,3.47,3.47,0,0,1-.94.48,3.78,3.78,0,0,1-1.14.17A3.48,3.48,0,0,1,185.09,161Z"/><path class="cls-2" d="M191.44,153.79h1.26v1.27h0a2.05,2.05,0,0,1,.66-1,1.63,1.63,0,0,1,1.1-.39l.3,0,.2,0v1.23a.81.81,0,0,0-.25,0,2.82,2.82,0,0,0-.42,0,1.67,1.67,0,0,0-.85.21,1.58,1.58,0,0,0-.57.63,2.25,2.25,0,0,0-.2,1v4.65h-1.26Z"/><line class="cls-1" x1="122.01" y1="207.45" x2="122.01" y2="174.41"/><rect class="cls-1" x="45.12" y="1.65" width="159.88" height="36.55"/><path class="cls-2" d="M59.53,14.31h3.92a3.77,3.77,0,0,1,1.76.39,2.84,2.84,0,0,1,1.16,1.09,3.19,3.19,0,0,1,.41,1.64h0a3.21,3.21,0,0,1-.56,1.88,2.85,2.85,0,0,1-1.54,1.1l2.42,4.34H65.57l-2.24-4.13H60.84v4.13H59.53Zm3.8,5.17A2.18,2.18,0,0,0,64.89,19a2,2,0,0,0,.54-1.48h0A1.88,1.88,0,0,0,64.86,16a2.27,2.27,0,0,0-1.58-.53H60.84v4Z"/><path class="cls-2" d="M69,24.63a2.13,2.13,0,0,1-.88-.8,2.24,2.24,0,0,1-.32-1.2h0a1.87,1.87,0,0,1,.72-1.54,3.5,3.5,0,0,1,2-.65l2.79-.16v1l-2.64.16a2.14,2.14,0,0,0-1.17.36,1,1,0,0,0-.42.85h0a1.06,1.06,0,0,0,.41.87,1.74,1.74,0,0,0,1.09.31,2.22,2.22,0,0,0,1.07-.25,1.83,1.83,0,0,0,.75-.68,1.75,1.75,0,0,0,.28-1V19.68a1.37,1.37,0,0,0-.43-1.08A1.71,1.71,0,0,0,71,18.2a2,2,0,0,0-1.17.32,1.28,1.28,0,0,0-.55.82l0,.06H68.06v-.08a2.24,2.24,0,0,1,.43-1.13,2.55,2.55,0,0,1,1-.8,4.05,4.05,0,0,1,3.06,0,2.31,2.31,0,0,1,1,.86,2.42,2.42,0,0,1,.35,1.31v5.2H72.66V23.54h0a2.33,2.33,0,0,1-.58.72,3,3,0,0,1-.81.48,2.77,2.77,0,0,1-1,.17A3,3,0,0,1,69,24.63Z"/><path class="cls-2" d="M75.52,17.23h1.26V18.3h0a2.4,2.4,0,0,1,.89-.87,2.73,2.73,0,0,1,1.43-.34,2.45,2.45,0,0,1,1.92.75,2.87,2.87,0,0,1,.69,2v4.89H80.48V20.1a2.12,2.12,0,0,0-.43-1.41,1.63,1.63,0,0,0-1.3-.49,1.94,1.94,0,0,0-1,.27,1.74,1.74,0,0,0-.68.74,2.34,2.34,0,0,0-.25,1.12v4.43H75.52Z"/><path class="cls-2" d="M84.49,24.43a3.05,3.05,0,0,1-1.12-1.37A4.85,4.85,0,0,1,83,21h0a4.85,4.85,0,0,1,.4-2.06,3.16,3.16,0,0,1,1.12-1.36,2.92,2.92,0,0,1,1.66-.48,2.66,2.66,0,0,1,2.41,1.4h0V14.31h1.26V24.76H88.59V23.49h0a2.77,2.77,0,0,1-1,1,2.67,2.67,0,0,1-1.42.38A3,3,0,0,1,84.49,24.43Zm3.06-1a2.36,2.36,0,0,0,.77-1A3.71,3.71,0,0,0,88.6,21h0a3.54,3.54,0,0,0-.29-1.47,2.35,2.35,0,0,0-.77-1,1.89,1.89,0,0,0-1.12-.35,2,2,0,0,0-1.16.34,2.18,2.18,0,0,0-.74,1A3.75,3.75,0,0,0,84.26,21h0a3.78,3.78,0,0,0,.26,1.49,2.16,2.16,0,0,0,.74,1,2,2,0,0,0,1.16.33A1.87,1.87,0,0,0,87.55,23.44Z"/><path class="cls-2" d="M92.84,24.43a3.23,3.23,0,0,1-1.22-1.36A4.61,4.61,0,0,1,91.18,21v0a4.58,4.58,0,0,1,.44-2.07,3.26,3.26,0,0,1,1.22-1.35,3.44,3.44,0,0,1,1.83-.47,3.41,3.41,0,0,1,1.82.47,3.22,3.22,0,0,1,1.23,1.35A4.58,4.58,0,0,1,98.16,21v0a4.65,4.65,0,0,1-.44,2.08,3.26,3.26,0,0,1-1.22,1.35,3.42,3.42,0,0,1-1.83.48A3.47,3.47,0,0,1,92.84,24.43Zm3-1a2.22,2.22,0,0,0,.77-.95A3.81,3.81,0,0,0,96.87,21v0a3.72,3.72,0,0,0-.27-1.5,2.11,2.11,0,0,0-.77-.95,2,2,0,0,0-1.16-.33,2,2,0,0,0-1.15.33,2.15,2.15,0,0,0-.77.95,3.56,3.56,0,0,0-.28,1.5v0a3.64,3.64,0,0,0,.28,1.51,2.15,2.15,0,0,0,.77.95,2,2,0,0,0,1.16.33A2,2,0,0,0,95.83,23.46Z"/><path class="cls-2" d="M99.42,17.23h1.26v1.1h0a2.1,2.1,0,0,1,.8-.9,2.3,2.3,0,0,1,1.27-.34,2.33,2.33,0,0,1,.93.17,1.89,1.89,0,0,1,.72.49,2.1,2.1,0,0,1,.46.78h0a2.43,2.43,0,0,1,.56-.77,2.61,2.61,0,0,1,.81-.5,2.71,2.71,0,0,1,1-.17,2.68,2.68,0,0,1,1.3.3,2.22,2.22,0,0,1,.85.87,2.55,2.55,0,0,1,.31,1.3v5.2h-1.26V19.85a1.72,1.72,0,0,0-.41-1.21,1.53,1.53,0,0,0-1.16-.44,1.7,1.7,0,0,0-.88.23,1.52,1.52,0,0,0-.6.63,1.84,1.84,0,0,0-.22.92v4.78H104V19.71a1.49,1.49,0,0,0-.42-1.1,1.54,1.54,0,0,0-1.12-.41,1.65,1.65,0,0,0-.89.24,1.76,1.76,0,0,0-.61.66,1.92,1.92,0,0,0-.23.94v4.72H99.42Z"/><path class="cls-2" d="M114.57,14.31h1.27l6.86,9.84-1.65-1.59h.58V14.31h1.29V24.76h-1.27l-6.86-9.84,1.65,1.59h-.58v8.25h-1.29Z"/><path class="cls-2" d="M125.91,24.57a2.26,2.26,0,0,1-.89-1,3.4,3.4,0,0,1-.31-1.48V17.23H126v4.66a2,2,0,0,0,.44,1.41,1.62,1.62,0,0,0,1.3.49,2,2,0,0,0,1-.26,1.85,1.85,0,0,0,.69-.75,2.46,2.46,0,0,0,.24-1.12V17.23h1.26v7.53h-1.26V23.69h0a2.45,2.45,0,0,1-.88.87,2.74,2.74,0,0,1-1.44.35A2.83,2.83,0,0,1,125.91,24.57Z"/><path class="cls-2" d="M132.57,17.23h1.26v1.1h0a2.1,2.1,0,0,1,.8-.9,2.58,2.58,0,0,1,2.2-.17,1.89,1.89,0,0,1,.72.49,2.1,2.1,0,0,1,.46.78h0a2.43,2.43,0,0,1,.56-.77,2.61,2.61,0,0,1,.81-.5,2.71,2.71,0,0,1,1-.17,2.68,2.68,0,0,1,1.3.3,2.16,2.16,0,0,1,.85.87,2.55,2.55,0,0,1,.31,1.3v5.2h-1.26V19.85a1.72,1.72,0,0,0-.41-1.21,1.51,1.51,0,0,0-1.16-.44,1.72,1.72,0,0,0-.88.23,1.52,1.52,0,0,0-.6.63,1.84,1.84,0,0,0-.22.92v4.78h-1.26V19.71a1.49,1.49,0,0,0-.42-1.1,1.54,1.54,0,0,0-1.12-.41,1.67,1.67,0,0,0-.89.24,1.76,1.76,0,0,0-.61.66,1.92,1.92,0,0,0-.22.94v4.72h-1.26Z"/><path class="cls-2" d="M146.8,24.53a2.77,2.77,0,0,1-1-1h0v1.27h-1.26V14.31h1.26v4.18h0a2.66,2.66,0,0,1,2.41-1.4,2.93,2.93,0,0,1,1.67.48A3.21,3.21,0,0,1,151,18.93a4.85,4.85,0,0,1,.4,2.06h0a5,5,0,0,1-.39,2.06,3.19,3.19,0,0,1-1.12,1.37,3,3,0,0,1-1.69.48A2.67,2.67,0,0,1,146.8,24.53Zm2.33-1.07a2.16,2.16,0,0,0,.74-1,3.78,3.78,0,0,0,.27-1.49h0a3.74,3.74,0,0,0-.27-1.49,2.18,2.18,0,0,0-.74-1,2.06,2.06,0,0,0-2.28,0,2.35,2.35,0,0,0-.77,1A3.54,3.54,0,0,0,145.8,21h0a3.54,3.54,0,0,0,.28,1.47,2.21,2.21,0,0,0,.77,1,1.85,1.85,0,0,0,1.13.35A2,2,0,0,0,149.13,23.46Z"/><path class="cls-2" d="M153.93,24.43a3.13,3.13,0,0,1-1.19-1.35,4.69,4.69,0,0,1-.42-2h0a4.72,4.72,0,0,1,.42-2.05,3.3,3.3,0,0,1,1.18-1.39,3.23,3.23,0,0,1,1.79-.49,3.16,3.16,0,0,1,1.77.47,3,3,0,0,1,1.14,1.33,4.58,4.58,0,0,1,.4,2v.47H153v-1h5.45l-.64.91v-.48a3.58,3.58,0,0,0-.26-1.45,1.92,1.92,0,0,0-.73-.85,2,2,0,0,0-1.07-.28,2,2,0,0,0-1.07.29,2.09,2.09,0,0,0-.76.87,3.36,3.36,0,0,0-.27,1.42v.48a3.16,3.16,0,0,0,.27,1.37,2,2,0,0,0,.77.86,2.25,2.25,0,0,0,1.18.3,2.58,2.58,0,0,0,.86-.14,1.84,1.84,0,0,0,.63-.4,1.66,1.66,0,0,0,.36-.58l0-.07h1.24l0,.08a2.37,2.37,0,0,1-.36.87,2.81,2.81,0,0,1-.67.71,3.62,3.62,0,0,1-.94.48,3.9,3.9,0,0,1-1.15.17A3.48,3.48,0,0,1,153.93,24.43Z"/><path class="cls-2" d="M160.29,17.23h1.26v1.28h0a2,2,0,0,1,.65-1,1.66,1.66,0,0,1,1.1-.38h.3l.21,0v1.22a1,1,0,0,0-.26-.05l-.42,0a1.61,1.61,0,0,0-.85.22,1.41,1.41,0,0,0-.56.62,2.25,2.25,0,0,0-.2,1v4.65h-1.26Z"/><path class="cls-2" d="M168.1,14.31h1.3v9.28h5v1.17H168.1Z"/><path class="cls-2" d="M175.83,15.72a.76.76,0,0,1-.23-.55.79.79,0,0,1,.79-.79.73.73,0,0,1,.56.23.75.75,0,0,1,.23.56.76.76,0,0,1-.23.55.74.74,0,0,1-.56.24A.76.76,0,0,1,175.83,15.72Zm-.07,1.51H177v7.53h-1.26Z"/><path class="cls-2" d="M179.88,24.63a2.55,2.55,0,0,1-1-.79,2.43,2.43,0,0,1-.45-1.18v-.07h1.26l0,.07a1.38,1.38,0,0,0,.54.88,2,2,0,0,0,1.2.32,2.48,2.48,0,0,0,.87-.14,1.21,1.21,0,0,0,.56-.38.93.93,0,0,0,.19-.59h0a.88.88,0,0,0-.24-.65,2,2,0,0,0-.89-.41l-1.2-.28a3.29,3.29,0,0,1-1.58-.77,1.76,1.76,0,0,1-.52-1.32h0a1.91,1.91,0,0,1,.35-1.15,2.37,2.37,0,0,1,1-.78,3.46,3.46,0,0,1,1.44-.28,3.25,3.25,0,0,1,1.44.29,2.3,2.3,0,0,1,1,.8,2.14,2.14,0,0,1,.4,1.13v.09H183v0a1.31,1.31,0,0,0-.49-.88,1.71,1.71,0,0,0-1.11-.33,2.11,2.11,0,0,0-.79.13,1.2,1.2,0,0,0-.51.39,1,1,0,0,0-.18.58h0a.88.88,0,0,0,.28.65,1.89,1.89,0,0,0,.9.42l1.19.29a3.35,3.35,0,0,1,1.61.76,1.77,1.77,0,0,1,.46,1.29h0a1.87,1.87,0,0,1-.38,1.17,2.47,2.47,0,0,1-1,.79,3.75,3.75,0,0,1-1.5.29A3.94,3.94,0,0,1,179.88,24.63Z"/><path class="cls-2" d="M186.54,24.42a2.09,2.09,0,0,1-.52-1.58V18.27h-1.1v-1H186v-2h1.31v2h1.43v1h-1.43v4.57a1,1,0,0,0,.26.81,1.19,1.19,0,0,0,.76.21h.41v1l-.3,0-.37,0A2.2,2.2,0,0,1,186.54,24.42Z"/><line class="cls-1" x1="122.01" y1="71.24" x2="122.01" y2="38.2"/><rect class="cls-1" x="58.52" y="71.24" width="126.98" height="33.58"/><path class="cls-2" d="M76.47,92.78a3.27,3.27,0,0,1-1.36-1,2.88,2.88,0,0,1-.57-1.54v-.1h1.3v.1a1.72,1.72,0,0,0,.43.9,2.19,2.19,0,0,0,.93.59,3.82,3.82,0,0,0,1.32.2,3.67,3.67,0,0,0,1.31-.21,1.94,1.94,0,0,0,.85-.61,1.53,1.53,0,0,0,.3-.94h0a1.37,1.37,0,0,0-.48-1.1A3.57,3.57,0,0,0,79,88.4l-1.15-.25a4.67,4.67,0,0,1-2.27-1.05,2.43,2.43,0,0,1-.73-1.85h0a2.5,2.5,0,0,1,.48-1.52,3.07,3.07,0,0,1,1.3-1,4.54,4.54,0,0,1,1.9-.37,4.38,4.38,0,0,1,1.82.36,3.3,3.3,0,0,1,1.29,1,2.85,2.85,0,0,1,.54,1.51v.11h-1.3v-.1a1.88,1.88,0,0,0-.4-.92,2,2,0,0,0-.81-.58,3.59,3.59,0,0,0-2.39,0,1.89,1.89,0,0,0-.8.59,1.41,1.41,0,0,0-.29.88h0a1.32,1.32,0,0,0,.49,1,3.51,3.51,0,0,0,1.5.64l1.16.25a4.82,4.82,0,0,1,2.33,1,2.52,2.52,0,0,1,.71,1.88h0a2.79,2.79,0,0,1-.46,1.61,3.1,3.1,0,0,1-1.34,1.05,5.88,5.88,0,0,1-4,0Z"/><path class="cls-2" d="M83.65,85.42h1.26v1.1h0a2.08,2.08,0,0,1,.79-.9,2.58,2.58,0,0,1,2.2-.17,1.89,1.89,0,0,1,.72.49,2.26,2.26,0,0,1,.47.78h0a2.31,2.31,0,0,1,.57-.77,2.4,2.4,0,0,1,.81-.5,2.94,2.94,0,0,1,2.28.13,2.25,2.25,0,0,1,.86.87,2.68,2.68,0,0,1,.3,1.3V93H92.7V88a1.72,1.72,0,0,0-.41-1.21,1.51,1.51,0,0,0-1.15-.44,1.73,1.73,0,0,0-.89.23,1.65,1.65,0,0,0-.6.63,2,2,0,0,0-.22.92V93H88.17v-5a1.5,1.5,0,0,0-.42-1.11,1.54,1.54,0,0,0-1.12-.41,1.67,1.67,0,0,0-.89.24,1.85,1.85,0,0,0-.61.66,1.92,1.92,0,0,0-.22.94V93H83.65Z"/><path class="cls-2" d="M96.45,92.82a2.2,2.2,0,0,1-.88-.8,2.23,2.23,0,0,1-.31-1.2h0A1.89,1.89,0,0,1,96,89.27a3.51,3.51,0,0,1,2-.65l2.79-.16v1l-2.65.16A2.14,2.14,0,0,0,97,90a1,1,0,0,0-.41.85h0a1,1,0,0,0,.41.87,1.72,1.72,0,0,0,1.09.31,2.18,2.18,0,0,0,1.06-.25,1.92,1.92,0,0,0,.76-.68,1.84,1.84,0,0,0,.28-1V87.87a1.41,1.41,0,0,0-.43-1.08,1.73,1.73,0,0,0-1.22-.4,2,2,0,0,0-1.17.32,1.3,1.3,0,0,0-.56.82v.06H95.54v-.08A2.33,2.33,0,0,1,96,86.38a2.63,2.63,0,0,1,1-.8,3.6,3.6,0,0,1,1.53-.3,3.65,3.65,0,0,1,1.54.3,2.28,2.28,0,0,1,1,.86,2.34,2.34,0,0,1,.36,1.31V93h-1.26V91.73h0a2.66,2.66,0,0,1-.58.72,2.9,2.9,0,0,1-.82.48,2.77,2.77,0,0,1-1,.17A3,3,0,0,1,96.45,92.82Z"/><path class="cls-2" d="M103,85.42h1.26V86.7h0a2,2,0,0,1,.65-1,1.64,1.64,0,0,1,1.1-.38h.3l.21,0v1.22a1,1,0,0,0-.26,0l-.42,0a1.61,1.61,0,0,0-.85.22,1.41,1.41,0,0,0-.56.62,2.12,2.12,0,0,0-.2,1V93H103Z"/><path class="cls-2" d="M108.84,92.61a2.09,2.09,0,0,1-.52-1.58V86.46h-1.1v-1h1.1v-2h1.31v2h1.43v1h-1.43V91a1,1,0,0,0,.26.81,1.2,1.2,0,0,0,.77.22l.22,0h.18v1l-.3,0-.37,0A2.2,2.2,0,0,1,108.84,92.61Z"/><path class="cls-2" d="M117.49,92.46a4.35,4.35,0,0,1-1.66-1.88,6.52,6.52,0,0,1-.59-2.86h0a6.52,6.52,0,0,1,.59-2.86A4.42,4.42,0,0,1,117.48,83a5.09,5.09,0,0,1,4.51-.25,4.24,4.24,0,0,1,1.49,1.15,3.92,3.92,0,0,1,.79,1.73l0,.08H123l0-.16a3,3,0,0,0-.61-1.09,2.74,2.74,0,0,0-1-.68,3.41,3.41,0,0,0-1.32-.24,3.13,3.13,0,0,0-1.81.52A3.38,3.38,0,0,0,117,85.5a5.43,5.43,0,0,0-.42,2.22h0a5.43,5.43,0,0,0,.42,2.22,3.42,3.42,0,0,0,1.2,1.46,3.15,3.15,0,0,0,1.81.52,3.37,3.37,0,0,0,1.31-.23,2.78,2.78,0,0,0,1-.71,3.32,3.32,0,0,0,.64-1.16l0-.06h1.32l0,.07a3.86,3.86,0,0,1-.79,1.74A3.9,3.9,0,0,1,122,92.72a5.06,5.06,0,0,1-4.51-.26Z"/><path class="cls-2" d="M126.92,92.62a3.25,3.25,0,0,1-1.23-1.36,4.61,4.61,0,0,1-.43-2.07v0a4.58,4.58,0,0,1,.43-2.07,3.29,3.29,0,0,1,1.23-1.35,3.41,3.41,0,0,1,1.82-.47,3.44,3.44,0,0,1,1.83.47,3.26,3.26,0,0,1,1.22,1.35,4.58,4.58,0,0,1,.44,2.07v0a4.65,4.65,0,0,1-.44,2.08,3.26,3.26,0,0,1-1.22,1.35,3.71,3.71,0,0,1-3.65,0Zm3-1a2.13,2.13,0,0,0,.76-1,3.81,3.81,0,0,0,.27-1.51v0a3.72,3.72,0,0,0-.27-1.5,2.12,2.12,0,0,0-3.08-1,2.15,2.15,0,0,0-.77,1,3.72,3.72,0,0,0-.27,1.5v0a3.81,3.81,0,0,0,.27,1.51,2.15,2.15,0,0,0,.77,1,2,2,0,0,0,1.16.33A2,2,0,0,0,129.91,91.65Z"/><path class="cls-2" d="M133.5,85.42h1.26v1.07h0a2.37,2.37,0,0,1,.88-.87,2.78,2.78,0,0,1,1.43-.34A2.49,2.49,0,0,1,139,86a2.91,2.91,0,0,1,.68,2V93h-1.26V88.29a2.07,2.07,0,0,0-.43-1.41,1.63,1.63,0,0,0-1.3-.49,1.93,1.93,0,0,0-1,.27,1.71,1.71,0,0,0-.69.74,2.46,2.46,0,0,0-.24,1.12V93H133.5Z"/><path class="cls-2" d="M142.21,92.61A2.13,2.13,0,0,1,141.7,91V86.46h-1.1v-1h1.1v-2H143v2h1.43v1H143V91a1,1,0,0,0,.26.81,1.2,1.2,0,0,0,.77.22l.22,0h.18v1l-.3,0-.37,0A2.2,2.2,0,0,1,142.21,92.61Z"/><path class="cls-2" d="M145.78,85.42H147V86.7h0a2.07,2.07,0,0,1,.65-1,1.66,1.66,0,0,1,1.1-.38h.3l.21,0v1.22a.9.9,0,0,0-.26,0l-.41,0a1.56,1.56,0,0,0-.85.22,1.37,1.37,0,0,0-.57.62,2.25,2.25,0,0,0-.2,1V93h-1.26Z"/><path class="cls-2" d="M151.1,92.82a2.13,2.13,0,0,1-.88-.8,2.24,2.24,0,0,1-.32-1.2h0a1.87,1.87,0,0,1,.72-1.54,3.5,3.5,0,0,1,2-.65l2.79-.16v1l-2.64.16a2.14,2.14,0,0,0-1.17.36,1,1,0,0,0-.42.85h0a1.06,1.06,0,0,0,.41.87,1.74,1.74,0,0,0,1.09.31,2.22,2.22,0,0,0,1.07-.25,1.83,1.83,0,0,0,.75-.68,1.75,1.75,0,0,0,.28-1V87.87a1.37,1.37,0,0,0-.43-1.08,1.71,1.71,0,0,0-1.22-.4,2,2,0,0,0-1.17.32,1.28,1.28,0,0,0-.55.82l0,.06h-1.22v-.08a2.24,2.24,0,0,1,.43-1.13,2.55,2.55,0,0,1,1-.8,4.05,4.05,0,0,1,3.06,0,2.31,2.31,0,0,1,1,.86,2.42,2.42,0,0,1,.35,1.31V93h-1.26V91.73h0a2.49,2.49,0,0,1-.58.72,3,3,0,0,1-.81.48,2.77,2.77,0,0,1-1,.17A3,3,0,0,1,151.1,92.82Z"/><path class="cls-2" d="M158.92,92.62a3.17,3.17,0,0,1-1.21-1.37,4.58,4.58,0,0,1-.43-2.07h0a4.57,4.57,0,0,1,.44-2.06,3.21,3.21,0,0,1,1.21-1.36,3.53,3.53,0,0,1,1.83-.47,3.36,3.36,0,0,1,1.61.36,2.88,2.88,0,0,1,1.06,1,2.7,2.7,0,0,1,.47,1.22v.06h-1.23l0-.06a1.91,1.91,0,0,0-.6-1,1.84,1.84,0,0,0-1.3-.43,2,2,0,0,0-1.15.35,2.21,2.21,0,0,0-.76,1,3.52,3.52,0,0,0-.28,1.48h0a3.56,3.56,0,0,0,.28,1.5,2.15,2.15,0,0,0,.78,1,2,2,0,0,0,1.14.33,1.81,1.81,0,0,0,1.9-1.42l0,0h1.23v0a2.93,2.93,0,0,1-.53,1.29,3,3,0,0,1-1.09.91,3.31,3.31,0,0,1-1.53.34A3.49,3.49,0,0,1,158.92,92.62Z"/><path class="cls-2" d="M166,92.61a2.13,2.13,0,0,1-.51-1.58V86.46h-1.1v-1h1.1v-2h1.3v2h1.43v1h-1.43V91a1,1,0,0,0,.26.81,1.2,1.2,0,0,0,.77.22l.22,0h.18v1l-.3,0-.37,0A2.2,2.2,0,0,1,166,92.61Z"/><line class="cls-1" x1="122.01" y1="137.86" x2="122.01" y2="104.82"/></svg>