<svg id="Layer_1" data-name="Layer 1" xmlns="http://www.w3.org/2000/svg" viewBox="0 0 2713.85 348.37"><defs><style>.cls-1{fill:#fff;}</style></defs><path class="cls-1" d="M1636.13,31.11c-4.28,3-4.55,3.45-5.49,13.28a162.82,162.82,0,0,1-3.22,18.45C1623.27,79,1621,88,1619.92,93.39c-.53,2.91-1.74,7.55-2.41,10.25s-2.41,9.72-3.62,15.65-2.81,13-3.61,15.65a104.39,104.39,0,0,0-2.41,10.8c-.67,3.23-2.15,10.57-3.35,16.19-3.75,17.48-5.9,28.27-7.37,37.77-.8,5.08-2,11.87-2.81,15.11s-1.88,18-2.68,32.92-1.88,29.36-2.68,32.38c-2,7.34-1.21,11.44,2.28,12.52,3.88,1.08,8.57-1,11.78-5.5,2.42-3.24,2.82-6.48,3.75-26.88,1.34-29.57,4.83-55.26,13.8-101,5.09-25.8,6.3-31.95,8-39.94.94-4.75,2.81-13.49,4-19.43,3.75-17.59,3.35-17,6-9.17,1.34,3.89,4.28,13.6,6.7,21.59,2.27,8,10.18,28.92,17.41,46.41s14.74,36.05,16.75,41.23c4.28,11.22,7.9,14.89,14.6,14.89,4.95,0,8.3-2.05,10.31-6.26.81-1.51,2.15-15,3.22-29.79s2.27-28.28,2.81-29.79,1.61-7.12,2.68-12.41,2.81-13.81,4-18.89,2.54-11.65,3.21-14.68c1.08-5.72,2.95-13.27,6-25.25,1.07-3.89,2.28-8.64,2.68-10.58.94-3.45,1.07-3.56,2.81-1.51.94,1.19,3.62,9.39,5.76,18.13,14.47,59.37,14.74,60.23,20.9,79.55,10.59,33.24,20.77,54.4,43.81,91.2,20.49,32.6,22.64,35.4,28.4,37.56,4,1.62,4.69,1.62,8.57,0,3.62-1.51,4.29-2.37,4.29-5.72,0-3.56-4.29-11.22-8.71-15.43-3-2.7-31-48.46-36.17-58.83-2.68-5.39-5.36-10.68-6-11.87-2.81-4.75-11.12-26.87-15.94-42.09-7-22.24-8.3-27-16.88-61-4-16.3-8.3-32.38-9.51-35.62s-2.54-7.45-3.21-9.18c-3.62-10.79-10.19-17.81-16.62-17.81-7.5,0-8.3,1.3-14.87,27.53-1.07,4.1-2.81,10.9-3.88,15.11s-3,12.19-4.15,17.81-2.68,12.19-3.35,14.57-2.55,9.93-4,16.73-3.35,15.11-4,18.35a170.69,170.69,0,0,0-2.68,17.7c-1.2,10.25-2.81,15.11-4.42,13.49-1.21-1.08-18.08-40.69-24.11-56.56-1.74-4.64-4.83-14.89-10.32-34.54-.67-2.37-2.14-8.74-3.35-14s-2.68-12.73-3.48-16.51A75.07,75.07,0,0,1,1646.85,38c.53-9.39.53-9.39-2.81-9.61C1641.89,28.2,1639,29.28,1636.13,31.11Z"/><path class="cls-1" d="M439.19,33.81c-4.15,2.37-4.95,9.28-5.76,47.81-.8,38-.13,53.54,4.56,101.35,1.07,11.88,2.27,34.65,2.54,50.52s.81,29.78,1.21,31,2.41,2.81,4.42,4c3.21,1.72,6.7,1.94,31.75,1.94,27.19,0,28.53.11,38.18,2.91,25.85,7.45,29.74,8.42,33.89,8.42,5.62,0,11.65-3.56,11.65-6.91s-4.82-8.2-7.9-8.2c-1.34,0-6-1.29-10.32-2.81s-10.18-3.45-13.12-4.31c-21.71-6.37-20.5-6.15-44.75-6.37-18.62-.11-23.44-.43-24.51-1.62-.67-.86-1.21-7-1.21-13.49-.13-14.36-1.61-33.14-5.09-69.08-4.69-46.73-5.89-67.56-5.49-101.56.27-27.63,0-33.14-1.61-34A8.72,8.72,0,0,0,439.19,33.81Z"/><path class="cls-1" d="M1277.79,44.17c-1.74,1.51-1.88,2.59-.81,4.86,1.61,3.56,1.61,20.83-.13,28.17-1.61,7.12-4.82,24.18-7.1,38.31-1.07,6.26-2.68,12.74-3.48,14.58s-8,8.52-15.94,15.11-15.68,13.38-17.29,15.32c-2.94,3.35-3.88,9.39-1.87,11.88,1.74,2.15,9.91,4.42,18.89,5.28,7.1.65,8.57,1.08,9.91,3.35s.94,3-4.29,6.91c-5,3.67-5.62,4.75-4.82,7.23a13.1,13.1,0,0,0,3.75,5.4c2.41,2.05,2.81,3.56,2.55,9.71-.27,7.45-2.82,27.95-6.43,50.4a242.22,242.22,0,0,0-2.28,26.23c-.27,12.2,0,13.49,2.41,14.9a13,13,0,0,0,6.7,1.29c5.76-.43,9-6.47,8.84-16.51,0-4.1.8-14.57,1.88-23.21s2.94-23.53,3.88-33.13,2.28-17.92,2.68-18.57,4.55-1.18,9-1.18,9.24-.54,10.71-1.19c9.38-4,4.29-19.11-10.58-31.41l-6.16-5.07,1.74-18.14c1.61-17.91,3.62-34.32,7.37-58.6,2.27-14.68,4.82-32.92,5.09-36.7.13-1.51-.81-5.4-2-8.74-1.61-4.43-3.08-6.37-5.63-7.23C1280.06,41.8,1280.47,41.8,1277.79,44.17Zm-13.53,106.1c-.4,1.94-1.21,6.69-1.74,10.58l-.94,7h-7.64c-13.26-.11-13-2.7,1.21-15C1263.19,145.84,1265.33,145.3,1264.26,150.27Zm18.89,42.09c2.41,3.13,3.08,5,2.27,6.37-.94,1.73-1.47,1.73-5.36.43-4.55-1.62-5.49-4.21-3.61-9.93C1277.52,186.21,1278.86,186.86,1283.15,192.36Z"/><path class="cls-1" d="M2059.18,48.7c-3.08,2.49-3.21,4.32-.67,8.31,2.68,4.32,7.1,14.9,9.38,22.89,4.55,15.43,8.57,32.92,18.89,83.11,1.87,9.17,4.28,20.5,5.35,25.14,2.42,10.26,2.55,14.79.41,15.22-.94.22-6.84,1-13,1.62-12.32,1.3-16.21,3.13-16.21,7.56,0,5.5,1.48,6,17,6.26,7.9.1,15.54.21,16.74.21,1.47.11,2.81,2,4.42,6.26,4.82,14,10.45,28,11.52,28.82a4,4,0,0,1,1.21,2.59c0,2.92,13.26,23.21,22,33.68,8,9.49,12.72,12.95,17.81,12.95,8.18,0,10.86-8.42,5.23-17.16-1.07-1.51-2.95-4.64-4.29-7s-3.35-4.32-4.15-4.64a3.54,3.54,0,0,1-1.88-2.91c0-1.19-.4-1.62-.8-1-1.47,3-4.15,1.08-7.77-5.39-6.7-12-7.23-13.06-11.39-23.32-4.95-12.08-8.44-23.63-7.5-24.82.4-.43,4.16-1.4,8.44-2.27a156.54,156.54,0,0,0,33.09-9.28c12.32-5.07,15.67-7.12,18.62-11.12,2.28-3.13,2.28-3.34-.4-5.5-4-3.24-10.85-2.7-24,2.05-13.8,5-33.89,10.15-37.91,9.61s-3.62.64-13.8-46.74C2101,132.24,2096,112.06,2092,97.71c-1.2-4.21-2.54-9.29-3.21-11.34C2080.88,57.88,2068,41.58,2059.18,48.7Z"/><path class="cls-1" d="M577.71,176.93c-2.15,3.45-1.74,50.94.8,66.16,3.48,21.48,10.58,38,18.22,42.42,9.38,5.29,18.62-2.48,11.92-10-6.83-8-12.59-32.49-14.2-60.66-1.47-25.47-2.81-35.61-5.49-37.88C585.88,174.23,579.58,174.23,577.71,176.93Z"/><path class="cls-1" d="M775.17,178.76c-9.78,5.29-18.89,15.44-32.69,36.59-4.56,7.13-9.38,13.82-10.72,15-2.27,1.94-2.41,1.72-4.55-4.32-7.5-21.26-11.12-27.63-18.35-31.84-5.1-2.92-16-3.24-22.11-.65-10.45,4.32-18.62,15.22-23.58,31.19s-5.89,14.14-10.44-16c-1.21-8.1-4.29-15.44-7.1-16.84s-8.58-1-10.45.86c-3.62,3.57-.27,30.33,9,71.13,4.29,18.57,6.3,22.67,11.52,24.18,5.9,1.62,12.33-.76,14.34-5.4,1.87-4.1,6.16-24,7.5-33.89,1.87-15.43,7.1-31.73,11.92-37.45a10.47,10.47,0,0,1,6.3-3.89c4.55-.43,6.43,2.81,11.79,19.32,6.83,21.05,8.44,24.07,14.33,27.85,4.29,2.7,8.57,2.91,13.93.65,3-1.3,5.49-4.32,10.18-12.2,23.45-39.83,31.48-50.94,36.44-50.94,2.28,0,3.21,2,8.31,18.35,12.72,40.15,25.72,58.5,50.23,70.26,14.47,7,36.84,9.17,50.91,4.86,7.77-2.49,22.9-10,26.65-13.39,3.49-3.23,4.56-3,13.13,1.95,9.92,5.72,18.09,8.09,32.69,9.82,10.85,1.19,13.53,1.19,22.5-.43,17.82-3.13,27.47-8.31,30-16.09,1.07-3.23.94-4.1-.67-4.53-3.88-1.19-8.44-.65-20.76,2.7-11.26,3-13.67,3.35-24.52,2.91-8.44-.43-14.06-1.29-18.75-2.91-8.71-3.13-15.41-7.34-15.41-9.71,0-1.08,2-5.51,4.56-9.93,7.77-13.71,10.58-23.64,10.71-37.67.14-14.25-1.87-18.78-10.85-24.72A24.88,24.88,0,0,0,911,185.46c-9.38,8-12.46,18-11.38,37.34.67,12.09,2.27,17.38,9,29.25l3.08,5.29-6.56,4.86c-11.79,8.52-25.59,12.08-39.52,10-16.08-2.48-28.8-10-38.31-22.88-8.58-11.55-11.66-18-21.7-47.06-3-8.31-6.57-16.83-8.18-19C791.78,175.53,784,174,775.17,178.76Zm156.46,18.46a13.61,13.61,0,0,1,3.08,4.53c3.08,8.21-2.41,31.74-8.7,37.24-2.28,1.83-2.42,1.73-4.83-3.78-2-4.42-2.54-8.85-2.54-18.24.13-10.68.53-13.06,3.08-17.05C924.93,195,928.28,194.09,931.63,197.22Z"/><path class="cls-1" d="M1912.49,208.12c-3.35,1.84-3.08,4.53.67,6.8a13.48,13.48,0,0,1,5.23,6.15c1.47,3.89,3.48,17.81,4.95,33.68,3.49,36.59,9.78,50.19,23.45,50.19,9.51,0,13.8-5.62,18-23.21,9.24-39.93,13.8-50.84,21.83-52.45,5.09-1.08,8.71.86,19.16,10.57,42.33,39.08,65.1,58.07,73.14,60.77a46.65,46.65,0,0,0,12.46,1.83c6.16,0,7.77-.54,11-3.13a13.61,13.61,0,0,0,4.95-8.09l1.21-5.07-4.82,1.72c-11.53,4-13.8,3.24-30.15-10.68-6.69-5.51-18.75-15.65-26.79-22.56s-20.23-17.16-26.79-23c-12.59-11.12-22.64-16.84-29.87-16.84-5.5,0-15,3.35-18.76,6.59-8.44,7.55-14.73,22.45-21.3,50.08-1.2,5.29-2.68,10.14-3.35,10.68-1.2,1.08-5.22-9.17-5.22-13.6a71.06,71.06,0,0,0-1.34-10.25c-.67-4.1-2.14-12.95-3.35-19.75-3-16.84-5.49-23.53-10.85-27.85C1921.74,207.37,1916,206.18,1912.49,208.12Z"/><path class="cls-1" d="M1855.56,212.87c-1.61,2.37-.8,16.3,1.47,23.53.67,2,2.15,7.12,3.35,11.33,8.44,29.36,15.14,44.26,21.44,47.6,3.08,1.62,3.61,1.62,6.69,0,3.89-2.05,4.29-5.61,1.48-10.68-5.63-9.93-17.55-44.9-23.18-67.14C1865.2,210.93,1858.64,208.23,1855.56,212.87Z"/></svg>