<svg id="Layer_1" data-name="Layer 1" xmlns="http://www.w3.org/2000/svg" viewBox="0 0 2713.85 348.37"><defs><style>.cls-1{fill:#fff;}</style></defs><path class="cls-1" d="M313.87,27.18c-11.77,4.7-27.37,14.55-39.31,25.1-8.89,7.67-12.21,13.51-11.42,19.61.26,2,1.48,11.86,2.7,22,3.23,26.32,4.27,33.3,8,53.17.78,4.27,1.74,10.81,2.18,14.38S277.26,172.48,278,178s1.74,16.91,2.35,25.27,1.31,16.91,1.66,19c1.48,7.67,7.84,10.46,11.76,5.14,2.1-2.88,2.1-3.92-.26-35-.87-11.94-1.48-22.23-1.22-22.75s2.62-1.83,5.32-3c7.93-3.31,28.42-14,29.64-15.51a4.15,4.15,0,0,0-.44-5.84c-2.88-3-9.33-1.4-23,5.58-10,5-12.64,6-13.51,5.14-.61-.61-1.48-3.66-2-6.8s-2-12.38-3.48-20.48-3.23-20.14-4-26.59-2-16-2.71-21.09c-1.83-13.51-1.83-13.25,3.4-18.74,8.55-9.07,32.78-25.81,49.25-34,.18-.09-.08-1-.7-1.92C328.6,23.69,321.71,24,313.87,27.18Z"/><path class="cls-1" d="M1038.22,44.17c-4.27.7-12.29,2.27-17.69,3.58-9.24,2.18-9.85,2.27-11.42.87-3.83-3.49-9.94.7-10,6.63,0,4,3.83,42.45,5.66,56,2.62,20,6.71,42.45,11.68,64.07,2.18,9.41,3.93,18.48,5.67,29.2,1.22,7.5,2.44,10,5.49,11.77,2.09,1.13,2.62,1.13,4.71,0,3.66-2.09,4.18-5.14,2.53-15.6-.88-5.06-2.71-14.12-4.1-20.14s-3-12.46-3.4-14.38a693.8,693.8,0,0,1-12.64-69.3c-4.1-30.16-4.45-34.43-3-35.39,1.22-.7,5.4-1.66,22.14-4.79,13.16-2.44,26.58-2.53,31.9-.18C1076.23,61.17,1081.2,71,1082,88.63c.44,9.76.35,10.9-1.92,17.35a101.76,101.76,0,0,1-5.31,12.37c-1.66,3.05-4.36,8.2-6.1,11.42-2.62,5.06-3.05,6.54-2.71,10,.18,2.26.88,4.79,1.57,5.58s5.76,4.88,11.25,8.89c13.51,9.93,24.93,21.53,28.59,29,5.05,10.46,3.75,18.4-5,30.42a115.13,115.13,0,0,1-16.3,17.09c-7.76,6.36-24.58,11.68-32.95,10.46-2.27-.35-6.36-2.35-11-5.32-7.5-5-9.77-5.58-12.38-3.57-3.92,3-.78,10.28,7.58,17.69,5.84,5.32,11.33,7.24,20,7.24,20.75,0,41.23-12.55,56.14-34.52,13.6-20,13.51-33.82-.26-53.17-4-5.49-15.69-16.83-23.54-22.67-10.63-7.84-10.89-8.54-6.53-16a131.6,131.6,0,0,0,8.63-18.75c2.09-5.57,2.26-7.14,2.17-18.74,0-9.5-.43-14-1.65-18.3-4.53-16.21-11.68-25.1-24.06-29.72C1061.93,43,1048.68,42.52,1038.22,44.17Z"/><path class="cls-1" d="M1309.75,50.28c-1.22,1.48-1,4.79,1.66,27.89,5.14,45.07,7.14,56.05,14.9,81.94,2,6.71,3.92,13.33,4.36,14.82s1.57,5.75,2.7,9.58c1.57,5.67,1.92,8.55,1.66,15.26-.18,4.53-.35,14.38-.35,21.79-.09,15.43,1,20.66,4.79,23.88,2.18,1.83,2.36,2.53,2.36,7.59-.18,12,7.41,17.69,18.13,13.33,13.77-5.49,34.43-21.44,42.62-33,1.92-2.61,3.92-4.7,4.36-4.53s1.48,2.35,2.18,5c4.18,15,14.47,25.19,29.29,29,7.14,1.83,11.15,1.74,17.95-.35,11.25-3.49,19-12.38,19-21.79,0-3.4-.53-5.41-1.75-7l-1.65-2.18-2.27,2.18a24.63,24.63,0,0,0-3.66,4.62c-2.53,4.88-7.24,9.15-11.77,10.72-14,4.62-30.59-6-32.69-21l-.52-3.93h5.75c16.74,0,28.33-15.16,23.71-31-1.74-6.1-7.84-12.81-12.64-13.68-8.36-1.75-13.77,0-19.17,6.1-3.4,3.83-8.72,15.17-8.72,18.48,0,2.79-1.66,3-3.75.43-8.54-10.28-15.34-15.69-26.32-20.83-7.5-3.57-19.09-4.1-26.76-1.31-5.14,1.83-5.41,1.92-6.54.35a6.06,6.06,0,0,1-1.13-2.79c0-1-2.62-9.85-8.46-28.5-5.31-17-8.54-32-11.59-53.61-.44-3.14-1.57-10.89-2.62-17.34s-1.74-12.9-1.74-14.47c0-3.66-3.14-13.43-5-15.43S1311.23,48.53,1309.75,50.28Zm126.74,141c2.35,1,6.62,8.45,6.62,11.33,0,2.61-2.52,7.93-5,10.54-5,5.23-14.73,7.76-16.65,4.28-1.22-2.27,1.13-14,3.92-19.79,2.27-4.53,5.23-7.32,7.93-7.41A9.62,9.62,0,0,1,1436.49,191.23Zm-62.59,1.65c7.5,2.79,17.79,10.2,21.1,15.08,4.62,6.89,3.66,11.68-4.1,20-6.54,7-28.41,22.75-32.42,23.28-2.53.43-3.4-.09-3.4-1.83,0-1.92,5.49-15.26,8-19.53,2.26-3.84,2-4-2.79-1.66-7.5,3.58-7.59,3.58-8.29-7.75-.26-5.32-1-12.21-1.39-15.26-1.05-6.8.26-9.67,5.49-12.2C1361.09,190.53,1367.63,190.53,1373.9,192.88Z"/><path class="cls-1" d="M1964.72,59.52c-1.48,1.65-1.57,4-1.66,42,0,39.14,1,66.68,3,74.7.87,3.58,2.26,11.94,4.44,26.59.44,2.87,1.66,12.46,2.71,21.35,2,17.61,3.48,22.06,7.58,23.63,3.75,1.48,7.84.26,9.41-2.88,1.48-2.79,1.31-5.75-.69-14.91-.88-4-1.4-5-2.53-4.7s-1.66-1.14-2.88-9.33c-.87-5.32-2.09-12.55-2.79-16.13-1.65-8.45-.78-9.5,4.1-4.88,1.92,1.92,7.41,9.33,12.11,16.57s11.68,17.52,15.43,22.92a196.71,196.71,0,0,1,10.72,17.43c3.4,6.45,4.36,7.67,6.8,8.37s3.32.52,5.23-1,2.36-2.44,2.36-6c-.09-5.67-3.84-12.9-16.39-31.56-5.32-8-11.85-17.78-14.38-21.7a74.39,74.39,0,0,0-20-21.53c-8.9-6.28-9.42-7.32-9.33-16.65s1.39-13.77,9.06-30.42c2.53-5.67,12.21-21,21.62-34.52,15.26-21.88,17.7-26.85,14.56-29.9a5,5,0,0,0-2.18-1.48c-2.62,0-33.56,41.06-41.4,54.92-3.93,7.06-5.23,8.63-6.72,8.71-.43,0-.69-12-.69-26.84,0-30.34-.88-41.84-3.23-43.5C1967,57.34,1966.64,57.34,1964.72,59.52Z"/><path class="cls-1" d="M1131.93,69c-1.4,1.39-1.74,2.87-1.74,7.32,0,6.36,1.22,13.77,7.93,47.59,3.66,18.66,7.23,36.35,8.63,42.28.43,1.92,1.39,6.45,2.18,10,1.74,8,5.31,23.19,7,29.64.7,2.61,2.61,10.28,4.36,17,6.19,24.49,9.32,29.89,16.39,28.59,3-.61,5-4.1,5-8.81s-1.57-12.72-3-15.6a14.84,14.84,0,0,1-1.39-4.18c0-1.66-.09-1.57-1,.17-1.39,2.88-2,2.53-3.14-2.18-.61-2.26-2.09-7.84-3.31-12.38-4.71-17.43-12.64-50.29-16.91-70.6-.61-2.62-1.4-6.19-1.74-7.85s-1.49-7-2.53-11.76-2.44-11.07-3-14c-3.4-15.25-5.76-28-5.76-31.21C1139.77,68,1135.33,65.62,1131.93,69Z"/><path class="cls-1" d="M820.57,76.17c-1.22,1.91-7.93,20.65-9.5,26.41-.35,1.39-1.48,5.75-2.53,9.58s-2.18,8.55-2.61,10.46c-.88,4-3,12.38-4.28,17.44-.52,1.92-1.56,8.1-2.26,13.77-2,14.91-2.62,16.3-7.67,18.13-5.58,2-6.71,3-6.71,6.45,0,3.14,2,5.41,5.75,6.45,3.31.87,3.48,2.53,1.74,14-2.87,19.17-3.92,29.63-4.53,42.36-.7,15.95-.18,20.66,2.53,21.88,5,2.26,7.58-2.09,7.58-12.47,0-6.45,1.57-23.36,3.92-42.62.7-5.75,1.48-12.82,1.83-15.6.87-8.46,1-8.55,10-11.34,11.42-3.48,16.82-6.27,20.39-10.28,3.84-4.19,4.8-6.63,4.8-12,0-3.57-.44-4.62-2.7-6.89l-2.62-2.7,1.74-2.27c1-1.3,1.57-2.61,1.31-3.05-.61-1-2.09-.17-2.09,1.22,0,.61-.78,1.57-1.74,2.18-1.4.87-3.75.87-11.07.18a78.38,78.38,0,0,1-10-1.4c-2.44-1.57,1-8.54,4.8-9.93s4.09-1.14,4.09,2.61c0,4.18,1.66,4,4.36-.52,3.4-5.84,1.75-8.37-6-9.07-5.58-.52-5.49,0-3.14-10.46.78-3.57,1.74-8.28,2.27-10.46a54.92,54.92,0,0,1,1.56-6.1c.44-1.22,1.49-4.71,2.27-7.84s2.09-7.24,2.79-9.24c1.83-5.06,1.22-10.29-1.13-10.64A3.33,3.33,0,0,0,820.57,76.17Zm6.71,79.06c2.7.43,3.66,1,4.27,2.87,1.66,4.71-5.58,11.33-15.16,13.77-7.85,2-9.59,2.1-9.59.35.08-4.88,2.52-17.17,3.57-17.78S820.57,154.18,827.28,155.23Z"/><path class="cls-1" d="M2438.91,81.66c-2.44,3.74-3.23,15.08-2.09,31.81,1.91,30.51,4.53,53.87,7.93,70.61,2.44,12.38,2.44,12.46-2.7,14.29-3.23,1.14-4.54,2.09-4.89,3.66-1,3.93,0,4.71,6,4.71,3.48,0,5.93.44,6.54,1a33.17,33.17,0,0,1,2.26,6.36c1.66,5.84,7.5,24.76,10.46,34,1.14,3.31,3.31,10.19,4.88,15.16,3,9.76,5.41,13.16,9.16,13.16,3.05,0,6.53-3.66,6.53-6.79,0-1.4-2.26-9.59-5.14-18.14-12.29-37.56-14.38-44.45-13.68-46.19.17-.53,2.44-1.49,5-2.1,29.2-6.53,41.93-10.46,46.81-14.12,2.35-1.74,2.44-1.74-6.28-3.57-5.23-1.13-7-1.22-13.94-.09-4.45.7-12.73,2.44-18.48,3.92a108.69,108.69,0,0,1-13.95,2.88l-3.49.09-1.39-6.1c-1.57-6.89-2.79-13.69-4.62-25.72-1.22-8-1.57-11.33-4.53-39.48-.7-7.15-1.31-18.83-1.31-26-.09-14.3-.44-15.6-5.14-15.6A4.43,4.43,0,0,0,2438.91,81.66Z"/><path class="cls-1" d="M2235.63,89c-10.19,3.49-17.6,10.46-20.83,19.7-2.26,6.62-2.7,29-.7,38.35,2.62,11.77,11.34,35.65,17.26,47.25,2.18,4.18,1.83,5.14-2.52,7.14-4.8,2.27-8.2,5.5-8.2,7.76a8.11,8.11,0,0,0,1.83,4c2.27,3,7.67,3.31,8.37.52.44-1.74,4.88-3.57,7-2.87s8.55,20.13,9.5,28.15c.44,4.19.35,5.23-.61,5.23-1.3,0-4.27-3-5.31-5.23-.44-.87-.61-.69-.61.79-.18,4.79,4.36,15.25,7.41,17.26a7.2,7.2,0,0,0,9.41-1.75c1.57-2.18,1.83-3.66,1.74-11.76-.08-9.77-1-14.65-5.66-28.33a75.64,75.64,0,0,1-2.53-8.81c0-1,3-2.61,10.46-5.31,13.34-5,15.69-6.37,15.69-9.77,0-2.7-3.57-4.09-8.54-3.31-2.09.35-7.93,1.92-13.08,3.49l-9.32,3-1.49-1.92a7.32,7.32,0,0,1-1.56-2.53,73.44,73.44,0,0,0-3-7c-1.57-3.49-3.83-8.54-4.88-11.16s-2.27-5.57-2.7-6.53c-1.4-3.4-5.06-14.91-6.54-20.92-2.27-8.81-2.27-27.2,0-33.13,3-7.93,10.29-13.51,21.18-16.21,4.1-1,4.71-1,6.28.44a8.58,8.58,0,0,1,2.26,4.09c.61,2.53,2.53,3.4,3.23,1.4a22.15,22.15,0,0,0-.44-5.67c-.61-3.83-1.22-5-3.48-6.36C2251.67,86.8,2242.08,86.8,2235.63,89Z"/><path class="cls-1" d="M1847,99.79l-4,3.83-.18,6.89c-.08,3.75-.52,8.28-1.13,9.94s-1.57,6.18-2.35,10-2,9.24-2.7,11.94a41,41,0,0,0-1.23,7.06c0,1.4-2.61,4.62-8.19,10.38-6.45,6.53-8.37,9.06-8.89,11.59-.87,4.79.61,7.15,5.32,8.37a12.35,12.35,0,0,1,3.92,1.39c0,.26-.61,2.44-1.31,4.88-1,3.66-1.92,4.8-4.18,5.84-3.4,1.57-4.36,5.41-1.57,6.89,1.74,1,1.74,1-.09,7.32-1,3.4-2.09,7.41-2.44,8.89s-1.39,4.8-2.18,7.41q-9.93,33.6-10,54.22c0,7.76.26,9.76,1.74,12.29,3.14,5.23,8.37,6.45,11.77,2.7,2.7-3,3-6.1.43-4.71-1.39.79-1.91.53-3.13-1.3-1.31-2-1.31-3.14,0-15,1.74-15.6,2.87-21.35,8.54-41.66,2.44-8.63,4.71-16.91,5.05-18.31,1.84-7.23,3.67-12.55,4.62-13.33a34.91,34.91,0,0,1,5.15-2.36c7.93-3,13.77-9.85,12.55-14.73-.79-3.31-2.7-4.62-7.5-5.31-3.83-.53-4.36-.88-4.36-2.62,0-3.49,2.53-12.12,3.84-12.81.78-.44,1-1.92.7-5.15a44.18,44.18,0,0,1,1-11.15c.78-3.66,2.09-10.2,2.87-14.47,1.22-6.89,2.27-11.6,5.67-24.85,1-4.27-.26-7.75-3-7.84C1851.23,96,1849.14,97.78,1847,99.79ZM1830.13,170c0,1.75-.52,2.62-1.74,3-2.44.61-3-.79-1.13-3.31C1829.35,166.91,1830.13,167,1830.13,170Zm13.34,12.64c.52,1.22-2.7,4-4.53,4-1.48,0-1.92-1.65-1-3.48C1839,181.2,1842.77,180.85,1843.47,182.68Z"/><path class="cls-1" d="M618.34,152c-7.15,1.92-14.38,11.24-17.69,22.93-2.09,7.32-2.09,23.09-.09,27.89,3.49,7.93,10.2,13.42,19.79,16.39,11.85,3.57,25.36-.27,34.43-10,2.09-2.26,4.36-4.18,5-4.18s2.87,1.74,5,3.75c11.16,10.19,28.42,22.75,32.78,23.79,3,.79,6.36-1,6.36-3.31-.09-1.48-2.18-3.66-8-8.11-22.14-16.91-32.86-26.06-34.34-29.28-.61-1.14-1.75-3.84-2.62-6-2.26-5.58-7.93-14.73-11.07-18.13-4.88-5.06-11.07-3.14-11.07,3.57,0,4.19,3,10.38,8.37,17.18,7.15,9.06,7.41,9.5,6,12.11-4.27,8.28-16.12,13.25-26.32,11.07-6.36-1.31-10.72-4-14-8.8-2.27-3.4-2.36-3.84-2.27-13.95.17-9,.44-11.24,2.35-16,5.23-12.81,13.34-17.35,19.27-10.72,1.74,1.92,4,2.44,4,1a1.66,1.66,0,0,0-.87-1.39,3.33,3.33,0,0,1-.88-2.44C632.46,153.83,625.32,150.08,618.34,152Z"/><path class="cls-1" d="M1567.68,152.26c-7,2.53-11.07,5.41-17.79,12.12-7.58,7.76-12.11,15.34-13.07,21.7-.79,5-1,5.32-5.23,6.28-3.4.87-3.49,1-3.75,5s.52,6.72,5.75,20.49c2.27,5.93,12.47,20.4,15.61,22.23,3,1.74,5.4,1.48,7.67-.79,1.91-2,1.57-5.93-1-11.5-5.41-11.77-7.76-22.76-7.15-34,.44-9.5,2.88-14.73,10.9-23.8a145.61,145.61,0,0,0,9.06-11.42c1.83-2.7,3.75-5.23,4.27-5.49,1.14-.69.26-2.18-1.13-2.09A17,17,0,0,0,1567.68,152.26Z"/><path class="cls-1" d="M360.68,154c-8.2,4.7-13.51,13.77-15.26,26.41-1.48,10.11-.43,18.74,3.14,26.23,3.84,8.11,13,17,21.53,21.19,13.25,6.45,32.6,8.89,40,5a23.07,23.07,0,0,0,10.55-9.67c1.48-2.88,2.35-6.89,1.48-6.89-.17,0-3.05,1.31-6.45,3-9.85,4.8-12.38,5.23-21.09,3.66-14.21-2.61-20.84-5.4-27.9-11.59a38.78,38.78,0,0,1-6.54-7.15c-2.52-3.92-5.23-11.94-4.62-13.51.27-.7,2.62-2.61,5.32-4.44,5.75-3.75,14.65-13.17,17.09-17.87,1.91-3.84,2.26-10.29.69-12.38C374.71,151.3,367,150.34,360.68,154Zm8.54,9.15c0,1.74-8.28,12.2-10.2,12.9s-1.22-4.45,1.13-7.93c2-3,6.72-6.72,8.46-6.72C369,161.41,369.22,162.2,369.22,163.16Z"/><path class="cls-1" d="M488.81,153.66c-2.53,1-3.14,4-2.44,12.46.53,7.24,1,9.68,4,24.32,2.88,13.86,8,27.11,12.38,31.73,3.4,3.66,9.41,1.83,9.41-2.79,0-1.13-1.3-4.88-3-8.46-5.06-11.15-6.89-17.25-10.63-36.87-.7-3.83-1.66-9.15-2-11.76C495.52,154.53,493.26,152,488.81,153.66Z"/><path class="cls-1" d="M1224.06,154.18c-1.13,2-1.39,6.45-.61,10.29,1.31,6.1,7.24,29.89,9.59,38.87,1.57,5.58,1,11.59-1.13,14.82-1.83,2.7-2.35,3-7.15,3.22a19.68,19.68,0,0,1-16.12-6.1c-5.84-5.66-9.59-15.69-9.59-25.89,0-9.23-3.84-14.64-7.85-11-3.22,2.88-3.66,6.36-2.18,17.09,1.48,11.5,2.88,15.77,6.89,22.05,4.62,7.23,10.81,11.51,20.31,13.95,6.62,1.74,10.37,1.74,15.17.08,7.14-2.52,11.68-8.8,12.81-17.6l.61-5,3.84,4.79c11.59,14.38,26.41,22.23,43.75,23.19,11.94.7,15.61,0,20-4,3.49-3,3.75-3.58,4.1-8.63.26-3.49.09-5.41-.52-5.41a2,2,0,0,0-1.49.88,19.71,19.71,0,0,1-5,3.13c-4.1,2.1-5,2.27-11.33,1.66-12.38-1.05-25.63-6.36-33-13.25-4.45-4.18-5.49-6.54-2.53-5.75,4.18,1.13,11.5-6.1,16-15.69,6.89-14.56,6.28-23.54-1.57-27.29-4.79-2.26-11.42-1.91-17.08.88-8.11,4.09-12.73,9.58-16,19.17-1,2.88-2.18,5.32-2.7,5.49s-1.31-1.13-1.57-3-1-4.53-1.4-5.93-1.48-4.79-2.18-7.41-1.74-5.57-2.18-6.53-1.22-3.05-1.74-4.62a14.45,14.45,0,0,0-3.66-5C1225.81,153.48,1224.67,153.13,1224.06,154.18Zm48,21c.61,4.44-10.2,28.94-12.81,28.94-1.31,0-3.57-7.85-3.57-12.21,0-5.14,2.79-12.29,5.75-15C1266.34,172.57,1271.66,171.7,1272.09,175.19Z"/><path class="cls-1" d="M540.94,158.28c-11.51,7.84-19.88,35.3-15.34,50.29,1.91,6.19,3.48,8.81,7.93,12.9,6.19,5.67,10.63,7.32,21.53,7.76,7.5.26,10.11.09,13.51-1.22,8.72-3.23,16.39-9.33,19.7-15.6,2.35-4.62,2.53-13.51.26-17.87-5-9.42-23.27-29.81-27.89-31-5.49-1.31-5.49,3.57.09,11.07a66.43,66.43,0,0,0,4.62,6c2.09,1.66,14.73,19.79,15.07,21.79.88,4.1-.87,8.28-5,12.12-5.58,5.14-11,7.32-17.87,7.41-11.24.09-19.79-5.23-23-14.3-4.71-13,4.62-43,13.86-44.63,1.13-.17,1.74.26,2,1.49.61,3.74,1.31,4.35,1.92,1.74,1.13-4.45,1-7.24-.52-8.63C549.74,155.49,544.43,155.84,540.94,158.28Z"/><path class="cls-1" d="M1500.21,164.12c-7.85,3.92-14.21,12.64-15.69,21.44-.44,2.7-1.31,4.27-3.14,5.58-3.57,2.53-3.31,5.4,1.74,15.43,2.44,4.62,6,12.55,8,17.6,6.19,15.26,9.68,19.18,14.73,16.39s4.8-7.41-1.56-20.74c-5.15-11-6.54-16.48-6.63-26.59-.09-7.93.09-9.07,2.27-12.73a36.49,36.49,0,0,1,5.66-7c6.28-5.75,9.24-9.68,7.93-10.46C1511.45,161.68,1503.78,162.29,1500.21,164.12Z"/><path class="cls-1" d="M432.68,169c-3.75,1-3.93,9.24-.53,22.05,1,3.57,2,7.67,2.36,9.15,1,3.58,9.59,29.12,14,41.41,11.07,30.51,15.52,47.33,16.3,61.45.61,12-.26,15.25-4.27,15.25-6.45,0-25.89-13-40.1-26.76-2.79-2.7-5.05-5.31-5.05-5.92s1-2.1,2.18-3.4c2.79-3.05,1.39-3.58-5.06-1.92-6.19,1.66-6.27,1.66-7.58,4.88-1.83,4.53,0,8.72,7.41,16.39,7.06,7.41,24.14,20.31,32.25,24.41,11.59,5.84,17.08,6.71,22.92,3.74,7.33-3.74,9.24-8.36,9.07-22.31-.17-16.3-3.92-32.78-14-61.89-3.32-9.5-14.65-43.23-16.57-49.68-.95-2.88-2.87-11.16-4.62-19.18C439.91,169.52,437.82,167.6,432.68,169Z"/><path class="cls-1" d="M2369.09,172.75c-3.05,1.3-3.32,4.35-.61,10.54,5.66,13.51,9.76,36.18,8.19,45.68-.44,2.87-.87,5.49-.87,5.84a15,15,0,0,1-2.7,3.22c-3.32,3.4-6.28,3.49-12.21.53-7.49-3.84-12.55-12.9-13.51-24.24-.7-7.84-1.48-9.32-4.7-9.32-5.23,0-7.24,7.15-4.89,17.43,1.83,7.93,4.54,13.25,9.5,18.83,5.23,5.84,11,8.8,18.31,9.59,10.37,1,17.35-3.49,21.09-13.78,4-10.8,1-42.53-5.31-56.13C2378.06,173.88,2373.62,170.92,2369.09,172.75Z"/><path class="cls-1" d="M2310.34,177c-11.34,5.66-18.31,12.37-23.45,22.31-2.44,4.71-3.14,5.49-4.45,4.8a5.78,5.78,0,0,0-7.67,1.39c-2.44,3.14-2.26,6.63.35,9.76,2.44,3,6.36,11.42,8.63,18.74,3,9.42,8.89,13.25,12.46,7.94,1.31-2.1,1.31-2.88.35-8.55-2.61-14.12-2.09-21.61,2.1-30.33,3.05-6.28,6.88-10.63,14.9-16.91,7.24-5.67,11.25-10,10.2-11.16C2322.28,173.62,2315,174.66,2310.34,177Z"/><path class="cls-1" d="M1649.44,177.89c-1.75,2.18-2.27,4.36-3.58,14.56-3.13,25.71-4.18,33.21-5.4,38.7a51.23,51.23,0,0,0-1.22,8.19c0,1.31-.61,5.84-1.31,10-2.61,15.69-4,30.94-4.79,55-1,24.84-.61,40.18,1,46.54,1.75,7,8.46,10,11.6,5.23,1.13-1.83,1.3-3.39.87-8.45-.52-5.93.35-30.07,2.18-59.88.7-12.29,2.18-25.2,5.75-50.12,2-14,3.75-35.05,3.84-44.55,0-6.1.34-9.24,1.22-10.37,1-1.48,1-2.09,0-4C1657.46,174.58,1652.66,174.14,1649.44,177.89Z"/><path class="cls-1" d="M2128.07,181.2c-2.35.61-1.92,4.1,1.13,10.2,9.07,17.61,12.21,34.52,8.28,44.11-3.74,9.41-6.27,9.32-16.38-.53-7.24-7.14-7.85-7.49-10.72-7.06a12.19,12.19,0,0,0-5.41,2.7c-4,3.75-6.8,4.45-10.55,2.79-5.4-2.44-9-9.32-12-22.92-.79-3.49-2-7-2.71-7.67-1.48-1.57-5.58-1.74-7.06-.26-2.61,2.61.7,21.18,5.41,30.16,1.83,3.48,7.06,8.63,10.54,10.28,5,2.36,12.64,1.92,18.31-1l4.71-2.52,5.05,4.88c6.54,6.19,9.5,7.67,15.26,7.67,9.15,0,15.42-7.67,18.21-22,1.31-7.23.18-16.21-3.66-28C2140.71,184.69,2135.83,179.11,2128.07,181.2Z"/><path class="cls-1" d="M1585.37,190.44c-4.1,4.36-.87,12.81,4.53,11.77,2.62-.52,3.14,0,12,12.38,10.81,15,22.93,25.27,29.81,25.27,4.19,0,5.76-1.39,5.76-5.23,0-3.13-.27-3.57-3-4.7-3.67-1.57-11.86-9.85-19.44-19.7-15.78-20.4-17.26-21.79-23.89-21.79C1588.16,188.44,1586.77,189,1585.37,190.44Z"/><path class="cls-1" d="M2040.64,191.49c-6.45,5,3.23,51.69,12.9,62.06,2.44,2.7,6.28,2.61,8.11-.17,1.74-2.62,1-7.59-1.48-10.81-3.14-3.93-7.93-21.8-10.9-40.19C2047.44,190.79,2045.26,188.09,2040.64,191.49Z"/><path class="cls-1" d="M2404.21,195.58c-1.91,2.62-1.83,3.14,1.57,13.69,1.66,5,4.62,14.29,6.63,20.57,6.62,20.57,12.55,30.07,18.74,30.07,5,0,7.84-6.62,3.83-8.71-2.44-1.4-6.71-10.9-12.11-27-2.44-7.4-4.8-14.29-5.23-15.25-5.41-12.55-7.24-15.25-10.37-15.25A4.43,4.43,0,0,0,2404.21,195.58Z"/><path class="cls-1" d="M2164.77,200.55c-2,1.57-2.09,2.27-2.09,11.6,0,14.46,3.31,27.8,9.15,36.61,3.48,5.23,6.36,6.71,9.41,5,3.4-1.83,3.66-6.8.7-11.33-4-6-6.1-13.68-7.85-29.11-1.13-9.59-1.65-11.59-3.22-12.9C2168.52,198.46,2167.3,198.46,2164.77,200.55Z"/></svg>