<svg id="Layer_1" data-name="Layer 1" xmlns="http://www.w3.org/2000/svg" viewBox="0 0 2713.85 348.37"><defs><style>.cls-1{fill:#fff;}</style></defs><path class="cls-1" d="M55.44,17.77a39.33,39.33,0,0,0-.6,7.8c0,5.2-.4,6.6-2.1,8.2-3.8,3.4-7.9,9.6-7.9,12.1,0,3.8,2.8,8.1,6.9,10.7,4.3,2.8,4,1.6,6.6,26.2.8,7.7,2.3,21.5,3.4,30.9s2.5,21,3,26,1.5,12.4,2.1,16.5,1.9,15,3,24.2c1.9,15.7,1.9,17,.4,20-2.3,4.5-1.5,12.6,1.7,16.6,6.6,8.2,16.6,11.8,32.9,11.6s26.1-3.5,35.5-11.7l4.9-4.4,3.7,4.7c9.8,12.4,27.4,20,43.2,18.8,24.5-2,38.8-27,24.5-42.9-5-5.5-17.9-12.9-30.3-17.4a28.84,28.84,0,0,1-6.6-3.2c-2.4-2-4.6.9-3.3,4.5.7,2,3.6,4,12.6,8.7,20.6,10.6,25.4,15.2,24.4,23.4-2.2,17.3-24,23.5-45.2,12.8-5.8-2.9-13.6-11-15.8-16.2-1.3-3-1.3-4.6-.4-8.8.7-3.2.8-8.4.3-14.2-.4-4.9-.7-10.3-.6-11.9.3-6.1,12.1-24.6,15.7-24.6,1.1,0,1.4,2.6,1.4,14,0,13.8.9,17.2,2.8,10.7,1.2-4,3.6-25.6,3.1-28.1-.2-1-1.7-2.8-3.2-4l-2.8-2.1-4.5,2.5c-5.1,2.6-10,7.9-14.7,15.7-1.7,2.9-3.4,5.3-3.7,5.3s-2.3-2.2-4.4-5a42.85,42.85,0,0,0-29.1-16.6c-3-.4-5.5-1-5.5-1.4s3.7-8.1,8.3-17.1,9.5-20.2,11-24.9c10.9-32.8,1-61.1-24.2-69.5-7.1-2.3-24.4-1.6-34.1,1.5-3.6,1.1-6.6,2-6.7,2s-.3-2.2-.3-4.9c0-6.2-.7-8.1-3-8.1A2.65,2.65,0,0,0,55.44,17.77Zm46,16.5c17.8,6.7,25.2,30.8,17,55.4-3,9-11.2,26.3-17.8,37.5-6.7,11.4-7.4,13.5-5.4,16.5a9.88,9.88,0,0,0,1.9,2.5c.1.1,4.7.5,10.2.9,7.7.7,11.3,1.5,15.1,3.4,6.5,3.3,13.7,10.7,16.9,17.1,2.3,4.8,2.4,5.6,1.4,12.1a70.53,70.53,0,0,0-.4,14.6c.6,7.5.6,7.7-2.7,11.9-4.2,5.5-13.3,10.5-21.8,12.1-8.9,1.6-24.5.8-28.8-1.5-3.9-2-4.8-4-5.7-13l-.8-6.8,6.9-6.5,6.9-6.4-6,2.6a49.68,49.68,0,0,1-7.5,2.9c-1.5.1-3.7-12.4-7.5-42.4-.9-7.4-2.3-18.2-3-24s-2.3-18.6-3.5-28.5-2.5-21.4-3.1-25.5-1.3-12.7-1.6-19.1c-.6-11.6-.6-11.7,1.8-13C72.84,32.17,92,30.77,101.44,34.27Zm-46.6,14.4c0,6.2-1.2,7-3.5,2.4-1.5-2.8-1.5-3.3,0-5.5C53.74,41.77,54.84,42.67,54.84,48.67Z"/><path class="cls-1" d="M497.74,49.77c-2,2.4-1.7,16.2.5,24.9.9,3.8,5.7,19.1,10.6,34,10.2,31.1,13,40.1,16.4,54,4.8,19.3,5.8,25.2,4.6,29.3a41.92,41.92,0,0,0-1,8.3,33.58,33.58,0,0,1-1.6,9.2c-1.9,5.7-.7,10.5,3.4,13.8,2.4,1.8,3.7,2.1,10.2,1.7,9.1-.6,15.6-3.6,22.4-10.4,3.7-3.6,5.1-4.5,6.9-4,4.2,1.2,19.2,3.6,23,3.6,3.4,0,4,.4,7.4,5.7,7.5,11.8,18.6,19.6,31.6,22.3,9.2,1.8,16.5-.7,23.1-8,4.1-4.5,9.2-14.5,10.2-19.7.7-3.7-.2-8.3-1.6-8.3-.5,0-3,3.8-5.6,8.5-8.6,15.4-14.6,20.3-23.2,19.1-9.4-1.3-21-8.8-25.5-16.5-1.8-3-1.8-3.1,0-3.7,10.3-3.3,14.7-6.6,18-13.3,3.5-7,4.4-19,1.9-25.5-6.1-16-24.6-10.8-31.5,8.8-2,5.6-2.9,12.8-3.1,23.9,0,.9-11.6,0-18.6-1.5l-5.1-1,.5-10.5c.6-12.6-1.4-20.7-6.4-25.9-2.7-2.9-3.8-3.4-7.9-3.4-6,0-10.9,2.3-16.1,7.7-2.2,2.4-4.3,4.3-4.7,4.3-.6,0-1.4-2.7-7.2-24.5-2-7.7-7.7-25.9-12.6-40.5-11.5-34-14.9-46.1-14.9-52.7,0-5.7,1-6.6,3.5-3.1l1.7,2.3-.7-2.5c-.9-3.4-3.9-7.4-5.7-7.8C499.84,48.17,498.54,48.87,497.74,49.77Zm62.9,122.6c3.2,3.6,4.4,7.6,4.5,16.4.1,12.4-.3,12.8-13.9,12.5a89.71,89.71,0,0,1-11.6-.7c-.5-.3-.8-3-.8-6,0-8.8,6.8-19.5,14.8-23C557.54,169.77,558.24,169.87,560.64,172.37Zm59.6,2.7c3.7,4,3.2,18.4-.7,24.3s-13.7,9.9-15.1,6.2c-1.8-4.8.7-18.9,4.6-25.2,1.8-2.9,7.1-7.2,8.9-7.2A7.13,7.13,0,0,1,620.24,175.07Zm-63.4,33c0,3.4-17.7,10.1-19.3,7.3-.2-.4.3-2.1,1.3-3.7a6.47,6.47,0,0,1,5.1-3.6C549.44,207.07,556.84,207.07,556.84,208.07Z"/><path class="cls-1" d="M1086.54,55.37c-3.5,5.5-5.5,26-3.7,38.8.6,4.7,2.6,18.1,4.5,29.8s3.5,23.8,3.5,27a45.28,45.28,0,0,0,1,9.2c1.5,5.1,3.8,21.7,5.5,40.3,3.4,36,3.7,41.6,3.1,50.2-.7,10.8.4,13.8,5.1,14.3,6.3.6,7.5-5.6,5.3-28.3-.6-5.5-1.7-17.2-2.5-26s-1.8-18.9-2.1-22.5l-.7-6.5,2.3,2c4.3,3.7,19,21.9,24.7,30.4,3.1,4.7,11.2,19.6,18,33.2,12.2,24.3,15.7,29.9,18.8,29.9,2.5,0,5.8-3.9,5.2-6.3-2.4-9.7-4.1-14.7-4.7-13.7-1,1.7-1.9.3-12-20-10.9-21.9-18.5-33.6-31.5-48.5-5.3-6.1-12.4-14.1-15.7-17.9-12-13.7-11.8-19.7,1.3-39.3,5.5-8.2,24.7-33.3,35.9-46.8,8.5-10.2,10.4-13.1,9.6-15q-1.65-4.35-9.9,4.2c-11.2,11.8-38.1,44.9-44.3,54.7-1.6,2.5-3.3,4.4-3.9,4.3s-2.5-8.2-4.4-17.8c-3.2-16.2-3.4-18.7-3.3-35.9.1-10.2.2-20.1.4-22,.3-2.9,0-3.5-1.9-3.8A3.58,3.58,0,0,0,1086.54,55.37Z"/><path class="cls-1" d="M1898.54,60c-1,1-2.4,4.3-3.3,7.2a39.59,39.59,0,0,1-3,7.5c-.8,1.2-1.2,2.4-.8,2.7.5.6-13.7,68.2-15.7,74.4a14.56,14.56,0,0,1-3.4,5.4c-2.8,2.7-3.2,6.5-.9,9.1,1.4,1.5,1.4,2.4,0,8.9-.9,4.4-2.3,8.1-3.6,9.5-2,2.1-2.1,3-1.5,9a41.72,41.72,0,0,1-.4,12.3c-.6,3.1-1.8,9.3-2.6,13.7s-3.1,14.2-5,21.8c-2.6,10.4-3.2,14.4-2.4,15.8,1.3,2.6,4.5,2.4,6.3-.4,2.3-3.5,6.6-19.6,10.6-39.7l3.6-18.5,6-.6c11.2-1.2,17.5-4,22.3-10a17.54,17.54,0,0,0,1.3-18.6c-1.7-3.1-9.3-6.4-16.2-7-5.7-.6-6-.7-6-3.3a6,6,0,0,1,1.8-4.2c3.1-2.8,8.4-5,10.5-4.4s4.6-1.7,4.7-4.2c0-1.5-6.7-1.6-10.5-.2-1.5.6-3,.8-3.5.5s0-4.2,1-8.7,4.1-19.6,6.9-33.3c4.7-23.3,8.6-39.8,9.7-41.7,1-1.6-.7-4.8-2.5-4.8A5.45,5.45,0,0,0,1898.54,60Zm-1.4,110.9c3.9,2,5.3,5.4,3.7,9.3-2.5,6.2-9.7,10-18.7,10-4.7,0-4.8-.2-3.3-6.5a73.18,73.18,0,0,0,1.5-7.9c1-7,1.8-7.7,8.3-7C1891.74,169.17,1895.64,170.07,1897.14,170.87Z"/><path class="cls-1" d="M1414,66.37c-1.4,1.8-3.2,18.9-3.2,30.6s1.5,16.8,6.3,22.2c2.9,3.1,3.5,4.7,4.1,10.6,1,10,6.3,44,9.1,57.9,1.3,6.6,3.5,19.2,5,28,2.9,17.7,4.2,20.8,8.2,20.3,2.9-.3,2.4.7,10.4-20.6,2.3-6.2,4.6-11.5,5.1-11.8s4.6,2.1,9.1,5.3c24.6,17.8,35.8,23.4,40.5,20.4,1-.6-.1-1.8-4-4.6-19.3-13.8-41.8-31-41.8-31.9,0-1.4,10.6-27.1,13.1-31.8,2.7-5.1.1-8.8-6.2-8.8s-23,10.4-28.7,17.7c-1.4,1.9-2.9,3-3.3,2.6-.9-1-4.1-20-10.9-66.3-4-27.3-5.7-35.9-7.5-38.7C1417.64,65,1415.64,64.47,1414,66.37Zm3.3,34.1c.9,6.5,1.5,13.2,1.3,15l-.4,3.2-1.9-4c-2.2-4.7-3-13.3-2-21.1.3-3,.8-5.4,1-5.2S1416.44,94,1417.34,100.47Zm55.9,58.5c.3.5-.1,2.5-.8,4.6-2.2,6.5-12.1,26.4-13.3,27-.6.3-3.9-1.3-7.2-3.4-4.4-2.8-6.1-4.6-6.1-6.1,0-4.9,7.3-12.7,18.4-19.8C1469.14,158.17,1472.24,157.37,1473.24,159Zm-23.6,38c3,1.8,5.1,3.9,4.9,4.5-2.5,6.4-7.1,15.7-7.8,15.7-.9,0-1-.3-3.4-12.4-1.9-9.7-2-13-.2-12C1443.74,193.17,1446.74,195.07,1449.64,197Z"/><path class="cls-1" d="M939.24,76.37a22.28,22.28,0,0,0-1.5,5.3c-.3,2.2-1.3,7.4-2.2,11.5-1.5,7.3-2.5,13.2-4.7,27.6-1,6.4-1.6,7.6-5.7,11.9-9.3,9.9-9.8,19-1.2,22.5l3.1,1.3-.6,6.6c-.3,3.6-.6,8.1-.6,9.8.1,2.7-.3,3.3-2,3.3-2.3,0-2.4-.4-1-3.1.9-1.6.7-1.9-.8-1.9-1,0-2.8,1-4.1,2.1-1.7,1.6-2.1,2.8-1.6,4.8.9,3.6,2.2,4.9,5.7,5.6l3,.7-.7,26.7c-.7,28.2.5,53.1,2.7,57.9.9,1.9,2.1,2.7,3.8,2.7h2.5l-.2-29.5c-.2-16.2,0-35.8.5-43.5l.7-13.9,4.2-.8c5.9-1,11.1-3.6,13.1-6.6,2.1-3.2,2-11.7-.2-15.9-1.8-3.6-6.8-7.7-10.6-8.8-5.3-1.6-5.2-.8-2.5-25.5,1.6-14.1,3-24.4,4.5-34,2.2-13,2.3-15,1-16.5C942.34,74.87,940.24,74.77,939.24,76.37ZM927.44,148c-.4.3-1.2,0-1.8-.6-.9-.9-.8-1.8.2-3.9l1.4-2.8.4,3.3C927.84,145.87,927.74,147.67,927.44,148Zm16.5,14.8a14.21,14.21,0,0,1,2.4,5.1c.9,4.4-2.8,8.3-8,8.3h-3.5v-7.8c0-9,1-10.8,4.9-8.8A20.17,20.17,0,0,1,943.94,162.77Z"/><path class="cls-1" d="M2058.84,80.07c-8.9,2.4-17.6,6.8-21,10.7-6.5,7.4-9.1,22.5-5,29.1,2.5,4.1,4.6,4.4,2.5.3-3-5.9-1.2-16.8,4-23.5,2.4-3.3,12.4-8.8,13.7-7.6.4.3.3,4.6-.2,9.6-.7,7.7,1.5,66.7,3.3,89,.4,4.7.3,5.1-3.5,8.6-3.1,2.8-3.9,4.1-3.4,5.7.7,2.2,3.9,3.8,5.5,2.7,1.9-1.1,2.8,3.1,3.5,15.5,1.4,24.3,5.4,57.2,7.8,63.2,1.1,3,4.4,3.8,6.6,1.6,1.3-1.3,1.4-17.4.3-35.8l-.7-10.5-.8,5.8c-.6,3.8-1.2,5.5-1.8,4.9s-4.5-38.6-4.8-47.8c0-.6,4.4-4.9,9.9-9.7,17.6-15.3,29.2-32.4,35.9-53.2,2.6-8,2.3-27.2-.6-35.7-4.1-11.9-9.9-18.6-19.7-22.8C2084.24,77.57,2068.24,77.47,2058.84,80.07Zm31.1,7.8c9.8,5.3,15.2,17,15.3,32.8,0,13.6-5.5,28.5-16,43.2-5.6,7.8-22.1,24.6-23.7,24-.8-.2-1.5-4.5-1.9-11.8-.4-6.3-1.2-18.2-1.8-26.4-2.8-39.3-3.3-50.3-2.5-52.1a24.79,24.79,0,0,0,1-6.2,14.46,14.46,0,0,1,.9-5c1.2-1.1,10.8-2.1,17.4-1.7A24.78,24.78,0,0,1,2089.94,87.87Z"/><path class="cls-1" d="M2437.34,84.87c-6.6,3.4-15,14-20.2,25.3-7.1,15.5-10.8,42.1-9.2,66.5.9,14,1.7,19.3,5,32.3,1.2,4.8,1.8,8.7,1.3,9.2s-4.2,1.6-8.3,2.4-8.4,2.2-9.7,3.1a4.64,4.64,0,0,0-.1,8c2.1,1.5,2.2,1.4,2.5-1,.2-1.4.9-2.5,1.5-2.5s4.8-.7,9.1-1.5,8.4-1.2,8.8-.9,1.9,2.9,3.2,5.7c6,13.6,28.1,45.2,32.3,46.3,6.6,1.8,5.8-4.4-1.9-14.8-12.5-16.9-23.8-36.3-22.4-38.6.3-.5,3.6-1.5,7.3-2.2,15-2.8,23.1-8,12.4-8a111,111,0,0,0-13.6,1.5c-4.9.9-9.2,1.2-9.6.8-1.2-1.3-3.6-9.3-5.3-17.3-5-24.8-4.3-55.5,2-77,2.7-9.3,8.6-20,14.1-25.7,4.5-4.6,5.6-5.3,9-5.3,2.5,0,6.6,1.3,11,3.5,3.9,1.9,7.6,3.5,8.2,3.5,1.8,0-1.4-5.4-5-8.4C2452.14,83.37,2443.64,81.47,2437.34,84.87Z"/><path class="cls-1" d="M2607.24,92.67c-1,2.5.1,6.3,5.9,20.5,11.3,27.6,17.7,56,20.3,89.7l.7,9.3h-5.8a60.07,60.07,0,0,1-12.6-1.7c-5.6-1.3-7.1-1.4-8.4-.3-2.2,1.8-1.8,4.7.9,6.5s14.5,4.5,20.1,4.5a15,15,0,0,1,5.3.8c.8.6,1.6,5.2,2.3,13.3,2.6,32.5,8.3,53.8,16,60.4,3.9,3.2,6.2,3.2,8.8-.1,2.5-3.1,2.6-6.3.7-13.8-2.3-8.7-3.5-10.1-3.6-3.9-.1,19.1-8.4-11.6-11-41.1-.7-7-1-13.3-.7-14s4-1.8,9-2.5a86.4,86.4,0,0,0,26.5-7.9l5.7-2.7-5.5-.3a118.16,118.16,0,0,0-15.5.8c-22.7,2.6-21.2,2.6-21.8-.6-.3-1.6-.9-6.3-1.2-10.4-2.8-32.6-11.2-65.5-23.6-91.9-2.7-5.7-4.9-10.9-4.9-11.6,0-1.7-3.3-4.5-5.4-4.5A2.55,2.55,0,0,0,2607.24,92.67Z"/><path class="cls-1" d="M688.34,125.07c-3.8,2.3-10.8,9.9-12.9,13.9-3.8,7.4-4.8,12-5.3,24.3-.5,12.1-.6,12.7-2.9,13.8-5.1,2.3-4.3,10.8,2,22.6,15.4,28.4,16.4,29.8,20.6,29.3,3.9-.5,3.8-4.7-.4-11.5-6.9-11.5-10.1-29.8-9.4-53.4.3-11.4.6-12.9,3.5-19.1,3.9-8.3,10.1-14.8,14.2-14.8,2.2,0,3.2.7,4.5,3.2l1.6,3.3v-4.5c0-6.7-2-9-7.8-9A16.21,16.21,0,0,0,688.34,125.07Z"/><path class="cls-1" d="M281.54,150c-3.6,4-5.9,12.2-7.7,27.7-1.7,14-4,34.7-4,35.8,0,1.9-2.8-1.5-5.5-6.8l-2.5-5v4.2c0,2.3-.4,4.5-1,4.8-1.4.9-14-11-22.2-21a138.3,138.3,0,0,1-13.3-20.5c-3.3-6.6-6.2-10-8.6-10s-4.2,3.5-3.4,7.1c.8,3.8,7.2,15.2,13.3,23.9,9.7,13.8,30.8,32.9,38.7,35.1l3.7,1.1-.7,4.6c-1.1,7.3-2.1,49.6-1.4,60.9.3,6,1.1,10.8,1.9,11.8,1.9,2.3,5.9,1.9,6.9-.8,1.2-3.1,1.9-13.7.9-13.1-1.8,1.1-.5-41.5,2.1-71.1,2.1-23.6,5.3-52.2,6.2-56.3a52.57,52.57,0,0,1,2.4-7.9c1.1-2.7,1.2-3.9.4-4.9C286.14,147.67,283.44,147.87,281.54,150Z"/><path class="cls-1" d="M729.14,150.27c-9.7,2.8-21.1,14.7-24,25.1-1.2,4.4-2.3,6.2-4.2,7.1-2.5,1.2-2.6,1.7-2.4,8.2.1,4.9,1.2,10.1,3.6,17.5,6.2,18.6,9.4,23.9,13.6,22.5,3.3-1,3.4-4.5.4-15.1-2.4-8.7-2.8-11.6-2.8-23.9s.3-14.6,2.2-18.7c3.2-7,10.1-13.3,19.5-17.8,7.8-3.8,8-4,5.4-5C737.24,149,733.54,149,729.14,150.27Z"/><path class="cls-1" d="M436,158.77c-5.9,4.1-9.8,14-15.2,38.2-.7,3-1.6,5-2.1,4.5s-4-7.3-7.9-15.3-7.5-15.2-7.9-15.9a14.22,14.22,0,0,0-3.5-3.5c-3.1-2.3-5.9-1.4-6.4,2.2-.5,3.2,23.4,50.9,25.8,51.7a5.1,5.1,0,0,0,6.8-3.3c.6-1.5,2.4-9.7,4.1-18.2,4.2-21.3,8-32,11.5-32,.8,0,6.1,6.9,11.8,15.2,14.9,22.1,25.1,32.2,34.9,34.8,4.1,1.1,8.3.1,9.2-2.3.8-2,1.8-13.5,1-11.7a17.05,17.05,0,0,1-2.8,3.8c-1.9,2-2.8,2.3-5.6,1.7-5.1-1.1-17.8-14.8-28.7-30.8C447.54,158.27,442.44,154.27,436,158.77Z"/><path class="cls-1" d="M298,162.77c-4.7,1.9-7.8,9-6.2,13.9,1.4,4.3,2.8,5.4,21.5,17,16.8,10.5,20.5,13.6,18.9,16.3-2.5,4.1-14.2,8.9-28.7,11.8-9.8,1.9-12.6,3.2-13.3,6-1,4,.1,6.8,3.6,9.2,8.2,5.6,26.6-.3,40.2-12.7,3.6-3.3,7.1-7.4,7.8-9.1,1.5-3.5,3-3.8,5.6-.9,4.2,4.6,15.7,8.9,24.2,8.9,9.6,0,17.8-5.5,22.9-15.4,2.9-5.7,2.6-5.7-7.8,1-6.4,4.1-8.3,4.8-13.6,5.2a33.74,33.74,0,0,1-10-.8c-4.5-1.5-11.3-5.9-11.3-7.2,0-.6,2.2-2.9,4.8-5.3,5.8-5.2,7.7-10,7-18-.6-6.8-3.2-10.7-8-11.9-9.8-2.5-17.2,6.3-18.1,21.4-.1,3-.7,5.5-1.2,5.5s-4.5-2.3-8.7-5c-29.9-19.3-29.6-19.1-26.6-22.1,1.5-1.5,2-1.4,7.1,1.5,3,1.7,6,3.1,6.6,3.1,1.9,0-7.8-11.4-10.8-12.7C301.84,161.57,300.64,161.67,298,162.77Zm57.4,19.1c1.1,4.4-.3,10.4-3.2,13.4-5.1,5.3-7.3,2.7-5.4-6.5S353.84,175.47,355.44,181.87Zm-47.3,46a5.28,5.28,0,0,1-2.5,0c-.7-.3-.2-.5,1.2-.5S308.74,227.57,308.14,227.87Z"/><path class="cls-1" d="M1311.54,167.37c-.2.7.9,3.9,2.5,7s5.3,12,8.4,19.5c6.9,17,7.9,23.9,4.2,29.3a18.94,18.94,0,0,1-6.2,5.4c-3.5,1.7-4.5,1.8-8.5.7a27.46,27.46,0,0,1-8.6-4.2c-8.8-6.5-13.8-8.9-18.8-8.9-4.6,0-5.2.3-9.5,5-5.7,6-9,7.4-14.1,6-6.4-1.7-10.6-7.9-12.2-18.3-1.3-8.1-.6-10.7,2.9-10.7l2.7-.1-2.4-1.9c-3.2-2.7-7.7-2.6-9.2.2-1.6,3-.6,19.2,1.6,24.3,4,9.4,10.7,14.4,19.3,14.5,6.2,0,10.2-2.1,15.4-8,4.3-4.9,4.9-5.2,8.2-4.7,2.1.3,6.1,2.5,9.4,5a65.22,65.22,0,0,0,8.9,6.1c3.7,1.9,14.3,2.2,17.6.5,4-2,9.6-8.2,10.8-11.7l1.1-3.5,4.1,4.8c5.5,6.4,12.9,9.7,21.7,9.8,11.8.1,19-5.8,22-18.2,2.1-8.5,3.4-8.7,12.5-2,9.4,6.9,14.5,9,23.5,9.5,8,.5,11.2-.4,13.6-4.1,1.3-1.9,1.1-2-4.5-1.7-8.9.5-15.7-2-26.8-9.9-10.7-7.7-12.6-8.4-17.8-7.5-4.4.9-6.6,4-7.7,11.4s-3.8,11.4-8.7,13.7c-7.1,3.2-17.6-.8-22.8-8.6-2.5-3.8-2.8-5.2-2.8-12.3s.4-8.8,3-13.5c3.2-5.7,9.1-11.3,11.5-10.9,1.2.3,1.4,1.5,1.2,5.5-.7,10.1,2.8,6.2,4.4-5,.8-5.9-.5-7.7-5.6-7.7-7.6,0-19.2,11.4-22.1,21.8-1,3.8-1.3,4.1-2.4,2.5a17.07,17.07,0,0,1-2-4.3c-1.9-6.2-9-21.7-10.8-23.8C1316.34,166,1312.24,165.37,1311.54,167.37Z"/><path class="cls-1" d="M805.94,168.57c-.7.8-1.6,4.2-2.1,7.6-.9,6.4-4.6,18.8-6.1,20.4a5.9,5.9,0,0,0-.9,3.3c0,1.3-.4,2.3-1,2.3s-1,1.2-1,2.7c0,1.7-.3,2.3-.8,1.6s-2.5,1.2-5.7,5.5c-2.8,3.6-5.5,6.7-6.2,6.9s-2.2-1.7-3.5-4.3c-4.7-9.6-14.4-18.3-30-26.8-7.4-4-10.1-3.9-9.6.3.2,2.1,2.4,4,10.3,9.3,11.6,7.7,17.7,13.9,22.3,22.7,5.6,10.4,10.9,10.6,16.1.6,3.3-6.3,3-5.9,3.5-5.4s-1,6.2-4.4,17.4c-8,26.3-15,55.8-18,76.2-4.4,29.4-4.8,35.8-2.6,38.9,1.2,1.5,1.9,1.7,3.2.8,1.9-1.1,3.2-6.3,5.3-19.9,1.3-8.7,1.6-10.5,6.2-33.5s7.9-36.3,17.4-69c13.2-45.1,13.6-46.7,13.3-52.9-.3-4.8-.6-5.6-2.4-5.9A4,4,0,0,0,805.94,168.57Zm-13.4,43.8c-.3.8-.6.5-.6-.6s.2-1.7.5-1.3A2,2,0,0,1,792.54,212.37Z"/><path class="cls-1" d="M1622.34,170.17c-.4,1.2,1.6,7.3,5.1,16.2,6.2,15.5,7.1,21.2,3.9,24.8-3.8,4.2-10.2,2.2-18.7-5.7-3.1-2.9-6.4-5.3-7.3-5.3-3.1,0-6.5,3.3-11,10.5-6,9.6-7.8,11.2-11,9.7-7.9-3.6-17.5-26.2-15.1-35.6.6-2.4,1-2.6,6.6-2.6,6.5,0,7.6-1.1,3.3-3.4-7.6-3.8-13.4-3.1-15.8,2.1-2.8,5.7-1.7,19,2.2,27.3,5.7,12.4,14.7,21,21.8,21,3.6,0,7.2-3.9,12.9-13.8,2.6-4.5,5.1-8.2,5.5-8.2s2.8,1.9,5.2,4.3c5.6,5.3,10.9,7.9,17.5,8.5,4.6.4,5.4.1,8.7-2.8,5.5-4.8,7.1-12.8,4.3-22-1.9-6.2-9.5-23.1-11.4-25.3C1626.94,167.57,1623.14,167.67,1622.34,170.17Z"/><path class="cls-1" d="M1504.34,171.57c-11,4.8-18.2,27.4-12.2,38.1,5.3,9.3,21.1,14.2,31.2,9.6a20.22,20.22,0,0,0,5.4-3.4,3.82,3.82,0,0,1,2.2-1.7c.4,0,3,2.4,5.8,5.3,5.5,5.8,12.1,9.6,18,10.4,3.2.4,4.1.1,5.5-1.8,1.5-2.2,2.2-6.9,1-6.9a6.85,6.85,0,0,0-2.1,1.5,3.54,3.54,0,0,1-3.7.9c-4.3-1.3-11.6-7.7-15.5-13.6-3.5-5.1-4.1-6.8-4.1-11.2,0-6.9-1.7-10.1-5.6-10.2s-5.4-1-5.4-3.5a23.14,23.14,0,0,0-2.2-6.5A13.8,13.8,0,0,0,1504.34,171.57Zm9.9,7.2c2.3.9,12,21.3,12,25.2a8.49,8.49,0,0,1-2.7,6c-2.4,2.3-3.5,2.7-8.5,2.6-6.5-.1-13.4-3.1-15.3-6.6-1.6-2.9-.6-14.5,1.6-18.8C1505,179.77,1509.44,177,1514.24,178.77Z"/><path class="cls-1" d="M1660.24,173.17c-6.6,4.2-10.7,13.4-10.8,24,0,7.5,2.2,12.2,7.9,16.6,4.2,3.2,13.7,5.8,18.2,4.9s10.1-6,12.4-11.3l1.9-4.5,5.9,5.6c5.7,5.5,18.8,14.6,26.6,18.5,14.3,7.1,27.6,9.3,34.6,5.6l3.4-1.8-4.4-.8c-12-2.1-32.2-10.7-44.1-18.8-7.2-4.9-15.3-13-18.2-18.2-1.2-2.1-3-4-4-4.4-2.6-.8-4.8,1.3-4.8,4.5,0,4.6-3,13.2-5.5,15.7-2.9,2.9-7.6,3.1-13.5.8-7.2-2.9-10.2-9.6-8-18.1,1.1-4.5,1.6-5,7.3-7.8,7.4-3.7,10.4-7.3,8.8-10.4C1672.34,170.37,1664.64,170.37,1660.24,173.17Z"/><path class="cls-1" d="M2211.14,180.87c-3.1.6-10.2,8.8-14.2,16.3a28.66,28.66,0,0,0-3.8,12.5c-.5,5.9-.4,6.3,2.8,10,2.4,2.6,7,5.6,15.7,9.8,16.7,8.1,20.3,12.7,16.6,20.8-3.3,7.5-18.4,17.9-26.6,18.2-3.1.2-3.3,0-3.6-3.6-.2-2.7.4-5.1,2.3-8.3,1.5-2.5,2.5-4.7,2.3-5s-2.5.9-4.9,2.5c-5.9,3.7-8.3,8.6-7.6,15.4.5,5.9,3.9,9.7,8.6,9.7,12.4,0,33.3-14.1,37.6-25.4,3.2-8.4.6-17.5-7-23.8a127.38,127.38,0,0,0-13-7.2c-6.1-3.1-12.2-6.7-13.5-8.1-2.3-2.4-2.3-2.8-1.2-7.2,1.4-5.2,7-15.6,10.2-19.1,2.6-2.7,4-2.8,9-.2,3.2,1.6,4,1.8,4,.6,0-1.8-5.7-7.6-7.5-7.6a13.57,13.57,0,0,1-2.7-.4A10.55,10.55,0,0,0,2211.14,180.87Z"/><path class="cls-1" d="M2503,186.17c-7.5,3.4-24.3,18.4-30.7,27.4-2,2.8-2.2,2.9-5.8,1.5-2.7-.9-4.3-1-5.4-.3-2.8,1.8-2.6,3.1,1.1,6.4,3.7,3.5,4.4,5.5,6.4,21.3,1.7,13.4,9,25.2,15,24.5,4.1-.5,4.9-3,2.8-8.5-13-33.7-12.6-35.4,10.9-58.9,7.8-7.9,14-14.6,13.7-14.9C2510,183.67,2507.34,184.17,2503,186.17Z"/><path class="cls-1" d="M2150.34,190.77c-3.8,4.1-6.7,12.9-6.9,20.7-.1,6.7,0,6.9,3.5,10.2,2.4,2.1,6.4,4.2,12,6,14.2,4.5,18.1,7.5,19.4,14.7,1.8,9.4-10.4,21.6-26.4,26.7-1.9.6-3.7.9-3.9.6s.9-2.7,2.6-5.5,2.7-5,2.3-5c-1.4,0-8.5,5-11.5,8.2l-3,3.1-1.8-2.3c-5.7-7.1-14.8-27.7-16.3-37-.9-5.5-2-7-5.1-7s-4.4,3.2-4.4,12.3c-.1,12.2-5.1,27.8-9.3,28.5-3,.6-6.8-2.7-8.9-7.6-3.9-8.8-1-27.4,6.5-41.6,4.5-8.6,10.7-14.6,15-14.6,4.9,0,7.1,2.8,6.3,8-.7,4.8.7,5.3,2.3.9q4.35-12.6-8.4-14.4c-5.6-.9-10.3,1.3-15.5,7.3-10.1,11.4-15.9,27.8-16,44.7,0,10.4,2.5,17.2,7.9,21.8,9.8,8.3,19.5,4,24.5-10.8,1-2.7,1.9-5.2,2.2-5.7s2.4,2.8,4.7,7.3c8.2,16.1,16.4,22,27.6,19.9,12.3-2.3,30-15.3,34.7-25.5,2.9-6.1,3.1-13.4.5-19-2.9-6.4-8.6-10.8-18.7-14.3-14.3-5.1-13.9-4.7-13.8-12.3.1-7.1,2.5-13.2,4.8-12.3.8.3,2.7,2.4,4.2,4.7,2.2,3.3,2.9,3.8,3.2,2.4,1.2-6-4.6-15.7-9.5-15.7C2153.84,188.17,2151.64,189.37,2150.34,190.77Z"/><path class="cls-1" d="M1171.74,193c-8.9,5.8-16,23.1-14.3,34.3,2.1,13.9,14.3,23.8,30.4,24.7,6.3.4,8.3.1,11.6-1.6a22.5,22.5,0,0,0,5.3-3.6c1.2-1.4,2.2-.6,8.5,5.8,7.9,8,15.5,12.6,21,12.6,5,0,7.4-2.9,8.1-9.9.3-3.1.7-7.1,1-8.9.3-2.9.2-3.1-1.5-2.2-1.1.6-3.1,3.1-4.6,5.5-1.5,2.6-3.3,4.5-4.3,4.5-4.2,0-16.3-11.6-20.2-19.2-1.3-2.5-1.9-5.8-1.9-9.9,0-7.5-1.6-13.2-4.6-16.4-2.8-3.1-4.8-3.1-7.5-.4-2,2-2.1,2.9-1.6,10.3.3,4.4,1.3,10,2.3,12.3,1.4,3.6,1.5,4.7.4,7.3-2.5,6.1-9.8,7.5-19.6,3.9-11.2-4.2-16.3-12.7-14.5-24,1.5-9,6.4-18,11.3-20.5,2.7-1.4,3.2-1.2,10.9,2.7,8.1,4.2,11.9,4.5,6.4.6-1.6-1.2-4.9-3.9-7.3-5.9-3.5-3.1-5.1-3.8-8.5-3.8A14,14,0,0,0,1171.74,193Z"/><path class="cls-1" d="M2549.34,196.17c-.4,1.1.3,4.5,1.5,7.7,6.3,16.7,6.7,38.4.9,45.8-2.8,3.5-7.9,3.3-14.5-.5-5.8-3.3-9.4-7.4-14.8-17.4-3-5.3-3.5-7-2.5-7.7s.5-1.1-1.6-1.9c-3.7-1.4-7.5-.5-7.5,1.8,0,3.2,10.9,22.5,15.2,26.9,5.4,5.5,13,9.3,19.9,10,4.6.4,5.9.1,8.8-1.9,6.5-4.5,10.1-15.2,10.1-30.5,0-16.8-6.3-34.3-12.5-34.3A2.88,2.88,0,0,0,2549.34,196.17Z"/><path class="cls-1" d="M2241.54,197.87a37.26,37.26,0,0,0-1.7,7.1c-1.7,8.3-.7,25.6,1.9,34.7,4.8,16.5,16.4,33.5,22.8,33.5,3.4,0,4.2-.7,5.9-5.8,1.2-3.2,1.1-3.3-.6-1.7a4.28,4.28,0,0,1-3.7,1.1c-3.8-1.2-12.4-16.7-16.2-29.1-2.5-8.1-3.9-19.4-2.4-20.3.5-.4.7-4.6.4-10.2-.6-9.4-.6-9.5-3.3-9.8C2243.24,197.17,2241.84,197.37,2241.54,197.87Z"/><path class="cls-1" d="M2279.34,203.87c-7.7,5.7-13.7,20.8-13.9,35.3-.1,7.2.3,9.2,2.4,13.4,4.8,9.3,13.8,14.6,25.2,14.6,9.7,0,15.4-3.6,18.1-11.5l1.4-4,1.7,4c2.2,5.2,4.4,7.5,7.2,7.5,3.5,0,5.5-3.9,7.5-15.3,3.4-18.5,8.3-29.7,12.9-29.7,2.6,0,18.7,16.4,34.9,35.6,5.5,6.5,9.1,8.8,12.2,7.9,2.3-.8,2.4-1.8.2-5.3-4.2-6.7-34.8-41-39.1-43.8-3.9-2.5-7.9-3.3-11.6-2.3-7,1.9-12,9.9-15.8,25.3-1.1,4.8-2.4,8.4-2.9,7.9-1.2-1.2-3.9-13.9-3.9-18.4,0-2.6.4-3.9,1.4-3.9a3.78,3.78,0,0,0,2.5-1.4c.9-1.1.3-1.7-3-3-5-2-7.7-1.3-8.5,2.1-.7,2.5,0,14.2,1.2,21.8l.7,4-7.4-7.9c-12.5-13.4-19.7-18.1-21.3-13.9-.8,2.1,1.2,4.9,10.6,14.8,8.5,8.9,10.8,12.2,10.8,15.2,0,8.7-17.8,8.3-25.3-.6-4.1-4.9-5.1-10-3.7-19.5s6.7-21.7,10.6-24.3c2.6-1.6,10.4-2.1,14.4-.8,2.7.9,2.5-.7-.4-3.4-1.9-1.8-4-2.4-8.8-2.8C2283.84,201,2283,201.17,2279.34,203.87Z"/><path class="cls-1" d="M2569,212.37c-3.8,3.8,1.7,29.5,9.9,45.9,5,10.2,8.3,13.9,12,13.9,2.6,0,2.9-.3,2.9-3.4,0-1.9-.5-3.8-1-4.1-1.4-.9-6.7-11.5-9.5-19a149.33,149.33,0,0,1-4.4-16.5c-1.2-5.8-2.4-11.5-2.7-12.7C2575.34,212.17,2571.44,210,2569,212.37Z"/></svg>