<svg id="Layer_1" data-name="Layer 1" xmlns="http://www.w3.org/2000/svg" viewBox="0 0 774 806"><defs><style>.cls-1{fill:#fff;}</style></defs><path class="cls-1" d="M229.4,5.9a27.24,27.24,0,0,0-13.3,14.6c-1.1,3-3.6,13.4-5.5,23.2s-6,29-9,42.6-7,31.4-8.7,39.5a525.65,525.65,0,0,1-15,57.5c-3.3,10.6-7.8,26.2-9.9,34.7s-6.6,23.3-9.9,32.8-7.9,23.4-10,31c-7.4,25.3-20.1,60.3-28.3,77.6-4.4,9.3-10,22.1-12.4,28.3a209.14,209.14,0,0,1-10.7,22.6c-3.5,6.1-8.1,14.2-10.1,17.9s-7,11.6-11,17.5S64.2,463.5,59.3,472s-13.8,22.9-19.6,32-13,20.3-16,25-8.2,12.8-11.5,18C5.2,557.9,3,562.7,3,566.9s.9,6,4.1,7.6c7.2,3.8,12.2.9,33.3-19.3,17.6-16.8,34.1-34.5,41.3-44.4,2.2-2.9,8.1-11.8,13.1-19.7,7.6-11.8,17.9-26.2,28.3-39.4,1.7-2,1.8-1.9,13.6,7.1,26.5,20.1,54.5,36,78.7,44.5l12,4.2,3.7,19.5c2,10.8,6.8,35.1,10.7,54s9.6,47.1,12.6,62.5,7.3,34.7,9.6,43c5.1,18.3,15,45.8,19.6,54.3,6.6,12.2,24.2,37.8,31.7,46.2,8.7,9.6,20.2,19,23.4,19,2.8,0,8-6.3,9.4-11.3.8-3.2.5-5.1-2.6-14.5a233.62,233.62,0,0,0-10.7-24.7c-11.1-22.2-25-54.3-32.8-76-12.9-35.8-19.7-57.1-22.5-70.3-4.7-22.5-8.8-47.1-9.5-57.2-.5-6.3-1.4-17.1-1.9-24-3.4-39.4-4.2-70-5.1-186-.6-75.8-.6-132.9,0-156,.5-20.1.8-65.1.6-100-.2-69.9,0-66.8-6.5-74.3A24.68,24.68,0,0,0,229.4,5.9ZM216,327c1.1,25.6,2.4,58.9,3,74s1.3,32.8,1.6,39.2c.6,9.7.4,11.8-.7,11.8-2.2,0-12.5-5.2-24.5-12.3-10.2-6.1-42.5-29.4-44-31.8-.3-.5.1-2,.9-3.2s5.9-11.9,11.4-23.7C174,359.1,186,326.7,194,298.9c2.2-7.5,7.2-23,11.2-34.5l7.3-20.9.7,18.5C213.6,272.2,214.9,301.4,216,327Z"/><path class="cls-1" d="M557.3,343.4c-6.3,2.1-10.5,5-17.1,12.1-18.7,20-32.4,61.8-41.7,127.5-1.5,10.2-3,19.4-3.4,20.4-.8,2.2-13-21.9-27.8-54.9-15.1-33.9-21-43.6-30.6-51.1-12.8-10-28-8.3-40.8,4.5-5.3,5.4-7.6,8.8-12.1,18.1a141.68,141.68,0,0,0-11.9,33.8c-.7,3.4-1.6,6.2-2,6.2s-2.3-6.1-4.4-13.5c-6.1-21.9-10.7-29.5-18-29.5-4.3,0-6.5,2.7-6.5,7.8,0,5.6,3.3,27.5,8,53.2,4.2,23.2,6.9,41.4,15.5,104,3.1,22.3,6.9,48.8,8.5,59s3.3,25.5,3.8,34.1c.8,14.3,1.1,16.1,3.5,20.2,3.7,6.3,8.7,9.2,15.8,9.2,4.4,0,6.5-.6,9.6-2.7,5.9-3.9,7.8-8.5,7.7-18.8,0-8.4-.1-8.8-8.1-27-10.3-23.7-13.4-32.8-17.7-52.5-5.4-25-6.1-32-6.1-64.5,0-26.5.2-30.6,2.2-40,1.2-5.8,2.7-13.8,3.3-17.9,1.5-10.7,7.7-37.2,10.1-43.6,5.6-15,20.8-17.2,32.2-4.6,7.2,8,11.1,18.4,20.2,54.1,7,27.3,9,37.5,11.5,57.5,2.1,17,3.2,23,6,31.3,8.9,26.2,23.9,38.2,41.2,33,4.5-1.3,11.7-7.3,14.7-12.2,4.9-7.9,11.3-33.4,12.6-50.1.3-4.4,1-21.3,1.5-37.5,1.1-31.8,2.7-50.1,6-67.5,2.4-12.6,7-29.7,10.7-39.4,2.8-7.6,8.2-18.1,9.3-18.1.8,0,4.5,5.4,9.1,13.2,3.9,6.6,19,39.6,24.9,54.3,2.6,6.6,11.3,30,19.3,52,17.2,47.3,22.3,59.9,32.3,80.1,12.6,25.5,32.9,54.3,48.5,68.8,14.8,13.7,26.9,19.3,40.2,18.4,9.1-.6,15.2-3.3,22-9.7a40.12,40.12,0,0,0,11.8-35.2c-1.1-6.5-3.3-10.9-5.4-10.9a115.25,115.25,0,0,0-11.2,3.5c-11.5,4-15.5,4.3-20.1,1.5-6.4-4-22.5-24-32.4-40.5-12-19.8-21.1-41.1-40.6-95.3-25.5-70.6-33.2-87.3-51.2-111.5-15-20.2-28-29.6-41.9-30.3A35.72,35.72,0,0,0,557.3,343.4Z"/></svg>