<svg id="Layer_1" data-name="Layer 1" xmlns="http://www.w3.org/2000/svg" viewBox="0 0 2713.85 348.37"><defs><style>.cls-1{fill:#fff;}</style></defs><path class="cls-1" d="M372.24,12.83c-3.56,4.53-4.62,20.4-4.62,69.46-.08,51.66,1,63.64,9.72,107.68,3.24,16,3.56,19,3.16,24.69-.57,6.16-.49,6.56,1.53,8.67,2.59,2.91,5.59,2.91,12.55.08l5.35-2.11,28.25-.16,28.34-.16,1.86-2.19c2.1-2.51,2.43-5.83.65-8.26-1-1.53-2.59-1.78-13.52-2.75-7.21-.56-20.49-.89-31.82-.73l-19.35.33-.65-2.43C381.14,154,377.58,123.34,377.74,66.1c0-14.49.33-31.41.65-37.64.81-13.61.24-16.6-3.08-16.6A4.72,4.72,0,0,0,372.24,12.83Z"/><path class="cls-1" d="M926.33,24.57c-3.32,3.72-6.8,20.89-9.07,45.18-2.43,25.42-2.43,25.17-5.1,28.33-2.83,3.16-4.21,7.29-3.64,10.36a16.13,16.13,0,0,0,3.15,5.35c2.19,2.51,2.76,3.88,2.76,6.56,0,4.69-1.06,6.15-4.7,6.8-8.42,1.29-8.34,11.33,0,20.16l4,4.12-.41,47.45c-.32,39.59-.56,48.17-1.61,52.22-2,7.77-2.6,16.67-1.14,18.54,1.62,2.18,6.4,2.18,8.75,0,1.78-1.54,6.39-10.93,6.39-13,0-1.29-1.29-1.54-2-.32a6.79,6.79,0,0,1-2.19,1.7c-1.54.81-1.62.73-1.13-1.38.24-1.29,1.05-7.28,1.78-13.28,1-9.14,1.13-17.16.65-48.25-.33-20.56-.33-38.29,0-39.51.48-1.94.89-2.1,4.45-2.1,9.71,0,19.51-8.1,19.51-16.19,0-6.56-4.53-12.15-15.62-19.19a42.57,42.57,0,0,1-6.8-4.94c-1.38-1.7-1.38-14.49,0-17.16.64-1.22,2.5-2.51,5-3.48,5.83-2.19,6.81-3.16,4-4a12.81,12.81,0,0,0-5.34-.16c-2.43.32-3.16.16-3.56-.89-.73-1.87,1.29-23.48,2.59-28.26a28.89,28.89,0,0,0,1.13-6.23,16.45,16.45,0,0,1,1.3-5.35c.72-1.7,1.7-3.8,2-4.69a61.39,61.39,0,0,0,1.86-8.1c.89-5.42.89-6.88,0-9.15-.81-2.1-1.54-2.59-3.4-2.59A5.88,5.88,0,0,0,926.33,24.57Zm1.86,100c0,.32.49.64,1,.64,1.7,0,8.83,6.64,9.88,9.23,2.1,4.94-2.91,10-10.53,10.77-4.12.41-4.45.32-5.34-1.54-.57-1.46-.65-4.21-.16-9.23.57-6.64.81-7.2,2.67-7.69s1.86-.57.24-.65c-2-.08-3-1.29-2.34-2.91.32-1,.81-1.05,2.51-.24C927.3,123.42,928.19,124.15,928.19,124.56Zm-14.57,10.52c-.08,2.11-.25,2.43-.81,1.3a3.3,3.3,0,0,1-.33-2.6C913.21,131.76,913.62,132.25,913.62,135.08Z"/><path class="cls-1" d="M1045.1,28.62c-1.22,1.21-1.3,3.16-.81,19.59.73,26.88,2.43,53.27,4.45,69,.49,3.72,1.29,9.88,1.78,13.68s1.13,9.23,1.54,12.14c1,7.53,2.27,21.46,2.83,32.79.89,16.68,4.13,26.07,10,28.5,2.59,1,3,1,4.94-.4s2.1-2,2.35-9c.16-4.7-.08-7.37-.65-7.37-.41,0-.81.65-.81,1.38a6.13,6.13,0,0,1-.81,2.67c-.65,1-.89,1-2-.08-1-.89-1.54-4.94-2.43-16.19-.65-8.18-1.22-16.6-1.22-18.79v-3.8l5.51-.08c3-.08,4.53-.33,3.4-.49-3.32-.56-3.89-1.78-1.7-3.56a7,7,0,0,1,3.16-1.54c2.18,0,25.66-12,27.93-14.25,3.24-3.23,2.59-5.18-1.78-5.18-1.54,0-11.1,3.65-18.22,6.88-8.34,3.81-17.81,7.69-18.86,7.69s-2.35-4-3.08-10.12c-.24-2.26-.81-6.07-1.21-8.5s-1.3-9.39-2-15.38-1.62-13.68-2-17a84.51,84.51,0,0,1-.81-10c0-2.19-.33-7-.81-10.93s-1.38-14.65-2.11-24-1.7-17.49-2.18-18.06C1048.33,26.84,1046.8,27,1045.1,28.62Z"/><path class="cls-1" d="M1106.63,30.24c-1.7,4.29-2.59,48.82-1.22,64.77,1.46,17.32,3.4,32.86,5.75,46.39,2.51,14.41,3.4,19.34,4,22.26.4,1.78,1.29,6,2,9.31s2.19,9.71,3.24,14.17c2.43,10,4,18.21,5.34,26.88,1.38,9,4.21,12,8.5,8.82,2.59-1.94,1.79-14.57-2-30.84-5.34-22.35-5.59-23.65-7.69-33.2-1.3-6.15-3.32-17.24-4.62-25.5-.48-2.92-1.21-7.29-1.61-9.72-.9-5.5-2.76-20.24-4-32-.57-4.93-1.05-20.8-1.14-35.29-.16-27.85-.32-29.07-3.8-29.07C1108.49,27.24,1107.52,28.29,1106.63,30.24Z"/><path class="cls-1" d="M1796.49,88.12c-7.78,2.76-20.65,14.25-27.45,24.53-9.8,14.66-18,37.33-21.62,58.7-2,12.55-2.51,19.11-2.51,33.6s.09,15.7,2.11,21.86c5.1,15.06,14.57,23.64,31.09,28.09,5.1,1.38,8.58,1.7,18.78,1.7,11.5,0,13.12-.16,19-2.18,12.38-4.13,21-9.72,26.87-17.49,1.71-2.19,3.65-4,4.21-4s2.11.81,3.24,1.86c6.8,6.4,14.9,7.13,17.49,1.54,1.7-3.56,1.21-4.78-2.19-5.42-3.56-.73-8.5-4.54-11.33-8.75l-2.35-3.48.25-19c.24-22.35-.33-26.07-5.19-30.93-3.8-3.81-7.44-4.13-10.36-1-2.59,2.75-3.08,11.17-1.29,22.75.81,4.85,1.94,12.46,2.59,16.92s1.62,9.23,2,10.68c.73,2.27.49,3.4-1.7,7.86-4.29,9.06-15.3,16.92-28.17,20.24-7.37,1.86-22.35,1.7-30-.33-22.43-6-29.14-20.56-26.15-57.07a156.38,156.38,0,0,1,3.81-25.91c6.23-29.39,19.59-53.6,35.94-65.25,7.21-5.19,12.15-5.83,13.93-1.95,1.21,2.67,2.26,1.78,2.26-2C1809.84,88,1803.77,85.53,1796.49,88.12Z"/><path class="cls-1" d="M1806.36,98.16a3,3,0,0,0-.56,1.86c0,.9.24,1,.89.33a1.88,1.88,0,0,0,.56-1.86C1807.09,98,1806.69,97.84,1806.36,98.16Z"/><path class="cls-1" d="M1620.32,106.34a82.54,82.54,0,0,0-3.48,12.39c-2.43,11.57-3.73,20.64-3.73,27,0,6.8-1,10.2-4.61,14.81-3.16,4.21-3.08,8.34.4,11.9,3.89,4,3.56,10.28-.57,10.28-4.93,0-5.34,3.49-.89,7.53l3.24,2.92-.08,7.53c-.08,16.43-1.94,31.73-7.2,60.15-1,5.59-1,18,0,19.92a3.47,3.47,0,0,0,3.15,1.54c3,0,4-2.51,4.94-13,.41-4.21,1.14-9.31,1.54-11.33.81-3.81,2.51-15,4.53-30.36a146.64,146.64,0,0,0,1.22-15.38,86.77,86.77,0,0,1,.48-9.48l.49-3,4.7.16c7.28.16,9.87-3.16,9.87-12.79,0-8.58-2-11.74-9.47-15.06a16,16,0,0,1-4.61-2.67c-.33-.49-.65-3.16-.65-5.83,0-5.67,1.37-8,6.48-11.26a9.86,9.86,0,0,0,3.64-3.8c.32-1.05,3.32-4.45,6.72-7.69,4.61-4.29,5.83-5.83,4.61-5.83-.89,0-3.07,1.05-4.85,2.35a56.46,56.46,0,0,1-7.45,4.53,19.84,19.84,0,0,0-4.7,2.83,2.93,2.93,0,0,1-2.1.73c-1.38,0-1.62-.4-1.22-2.26a105,105,0,0,0,1.3-10.53c.73-8.18,2-14.25,3.4-16,1-1.37,1.7-8,1.13-10.36-.4-1.7-1-2.11-2.91-2.11S1621,104.64,1620.32,106.34Zm6.39,73.59c1.3,1.54,1.78,3,1.78,6.07,0,7.05-2,8.75-6.55,5.51-2.19-1.54-2.35-1.94-2.35-7.53,0-3.24.24-6.15.56-6.48C1621.21,176.45,1624.77,177.83,1626.71,179.93Z"/><path class="cls-1" d="M1167.26,152.81a18.08,18.08,0,0,0-5.74,4c-10.77,11-13.12,33.68-5.27,50,6.48,13.6,16.36,20,31,20,6.8,0,8.26-.24,12.31-2.27,9.71-4.78,14.65-12.55,14.73-23.23,0-5-.4-6.81-2.1-10.21-4.13-7.93-15.47-17.56-28-23.8-3.65-1.78-6.64-3.72-6.72-4.29a31.19,31.19,0,0,1,.08-3.8C1177.71,154.35,1172.77,151.27,1167.26,152.81Zm2.76,13.68c-1.22,3.08.48,5.43,6,8.42,11.33,6.07,21.45,14,25.18,19.84,2.1,3.32,2.35,4.21,1.94,8.09a12,12,0,0,1-2.75,7.29c-3.81,4.7-7,6.15-13.52,6.07-11.09-.08-18.62-6-23.08-18.21-2.34-6.32-2.26-20,.08-26,2.11-5.43,5.59-10.12,6.4-8.75A4.71,4.71,0,0,1,1170,166.49Z"/><path class="cls-1" d="M496.27,155.73c-6.56,2.67-14.49,10.36-17.81,17.16-6.64,13.52-3.08,30.93,8.58,41.69,2.67,2.51,6.23,5.18,7.85,5.83,18.79,8.18,44.69,4.29,48.58-7.28,1.37-4.38.32-8.26-2.35-7.94a14,14,0,0,0-4.78,2c-4.85,3.23-9.87,4.77-16.75,5.18-11.58.81-19.76-1.7-25.51-7.61-7.53-7.78-9.71-20-5-28.5,4.21-7.85,13.69-14.17,17-11.42,1,.89,1.14,1.95.73,4.78-.73,5.34-3.48,12.39-5.74,15.06s-2.35,3.08-.57,4.86c1.54,1.62,5.34,1.13,7.77-1.06,2.75-2.34,6.8-12.38,7.45-18.21.81-7.69.08-10.61-3.4-13.28C508.66,154.27,501.29,153.62,496.27,155.73Z"/><path class="cls-1" d="M708.38,158.32c-3.56,1.61-8.42,6.55-10.6,10.76-1.54,3-3.16,9.48-3.89,16.11-.73,5.91,1.3,15.71,4.45,21.46a23.93,23.93,0,0,1,2.35,5.42c0,1.06-13,3.81-18.05,3.81-6.8,0-10-3.32-25.91-27.12-16.6-24.86-19.51-27.93-26.47-27.93-6.24,0-9.72,3.8-15,16.67-3.16,7.69-4.78,10-6,8.83-.41-.49-2.27-4.29-4.21-8.5-6.88-15.39-10.44-19.11-17.81-18.46-8.26.81-18.06,12.71-23.56,28.82-2.27,6.4-3.56,8.5-4.21,6.56-.16-.65-1-3.89-1.7-7.21-4-18.38-4.94-20.72-8-21.53s-5.5-.08-7.2,2.26c-2.35,3.16-2.19,9.31.24,12.63,1,1.46,2.51,5.75,3.64,10.77,3.16,14.49,5,20.65,8.18,27,3.08,6.07,5.67,8.5,9.31,8.5,6.56,0,8-2.35,8-13.11.08-13.2,1.7-20.89,6.72-31.25,2.67-5.51,7.36-11.5,9-11.5.89,0,5.35,7.77,5.35,9.31a18,18,0,0,0,1.29,3.48c4.86,10.85,7,14.66,9.64,17.17s3.48,2.83,6.88,2.83c2.67,0,4.37-.49,5.58-1.54,2.59-2.35,6.08-8.9,9.88-18.38,1.78-4.61,3.72-8.66,4.21-9,1.54-1,3.4,1.45,14.09,17.48,15.22,23,20.08,29,26.39,32.14a22.08,22.08,0,0,0,16.11,1.22c5.75-1.86,16.27-6.15,17.25-7,1.29-1.22,3.72-.81,8.42,1.45,13.92,6.56,26.39-1.29,31.73-20,1.86-6.48,2-10.69.24-15.87-2.42-7.29-9.79-15.38-17.56-19.27a15.58,15.58,0,0,1-4.78-4,12.55,12.55,0,0,0-8.91-4.61A16.66,16.66,0,0,0,708.38,158.32Zm6.24,17.08c1.46,12.63-.33,25.1-3.56,25.1-2.43,0-3.89-5-3.89-13.69,0-6.88.24-8.42,2.1-12.14Q713.53,166.29,714.62,175.4Zm13.19,6c4.3,4.61,5.51,7.61,5,12.55-.89,10.6-7.93,18.3-14,15.3-3.89-1.86-4.05-3.08-1.22-10,1.38-3.48,2.84-7,3.24-7.61a20.93,20.93,0,0,0,1.3-4.86C723.44,179.12,724.66,178,727.81,181.39Z"/><path class="cls-1" d="M1343.51,158.23c-5.34,2-8.09,3.73-11.65,7.21-7.61,7.45-11.34,16.68-11.18,28.17,0,8.34,1.62,13.93,6.24,21.54,2,3.32,2.75,5.26,2.43,6.48-.33.89-3.57,4.69-7.21,8.5-10.28,10.44-11.41,10-20.16-8.58-2.43-5.1-5.5-11.66-6.8-14.58-4.86-10.6-13.6-28-16.27-32.62-3.56-5.91-9.72-11.58-13.52-12.23a16.86,16.86,0,0,0-11.74,2.35c-8.42,5.42-12,14.65-13.36,35.38-.32,4.37-.89,8.09-1.29,8.42s-.73-.24-.73-1.05c0-1.87-4.21-18.87-6-24.13-2.19-6.23-5.51-11.74-7.61-12.23-4.54-1.21-5.35,3.57-2.27,13.36,1.13,3.4,2.59,9.07,3.32,12.63,4.77,22.75,5.91,26.72,9.15,30.44a5.37,5.37,0,0,0,4.93,2.35c6.4,0,8.26-5.18,10.21-28.66,1.62-19.59,3.07-24.53,8.5-28.25s8.17-.57,17.81,19.35c4,8.25,7.28,15.14,7.28,15.3s1.22,2.91,2.76,6.23,3.48,7.69,4.53,10c6.56,14.82,10.69,20.89,15.71,23.15,7.61,3.49,13,1.22,23.56-10,4.13-4.3,7.77-7.86,8.17-7.86s3.57,1.46,7.21,3.16c15.14,7.37,29.79,7.53,44.69.4,11.25-5.34,16.11-14.65,8.74-16.84-1.62-.48-2.67,0-10.93,4.54a38.17,38.17,0,0,1-35.21,1.46c-7.94-3.57-7.94-3.4-2.19-14.82a209.38,209.38,0,0,0,10.69-25.66,57.67,57.67,0,0,0,1.37-9.88c.57-8.34-.4-10.45-5.67-12.87C1352.91,156.45,1348.37,156.45,1343.51,158.23Zm9.48,11.18c1.62,4.37-11,36.91-14.9,38.13-1.29.49-3.89-4.78-5.1-10.53-2.35-10.28,3.32-22.75,12.55-27.52C1348.78,167.79,1352.34,167.79,1353,169.41Z"/><path class="cls-1" d="M791.77,158.4a24.6,24.6,0,0,0-14.17,7.93c-4.12,4.78-9.39,15.46-10.28,20.81-1,5.91-2.83,5.83-4.53-.16-1.7-6.16-3-12.72-3-15.63a4.55,4.55,0,0,0-4.85-4.86c-3.73,0-4.86,2.43-4.86,10.77,0,9.55,1.86,17,6.64,26.88,5.5,11.25,12.46,15.38,17.65,10.28,2.1-2.1,2.26-2.91,2.75-10.36.81-11.74,1.86-17,5-23.56,4.21-8.91,9.88-12.71,15.3-10.36C800,171.19,811,182.6,820,193.61c11.74,14.33,18.13,21.13,22.42,23.73,4.13,2.51,7.94,3.15,7.53,1.37-1.78-7.77-6.31-14.41-26.63-38.86C807.56,160.91,801.81,157,791.77,158.4Z"/><path class="cls-1" d="M2254.72,162c-13.76,3.08-26.8,13-34.81,26.8l-3.16,5.42-1.38-3.32c-1.7-3.88-4.29-5.66-6.07-4.13a3,3,0,0,0-.89,2.68c.24,1,1.21,4.77,2.19,8.58,1.62,6.39,1.7,7.45.81,14.17a132.65,132.65,0,0,0-.73,18c.32,9.23.56,10.93,2,12.95,2.27,3.08,6.72,3.56,9.15,1,3.48-3.8,3.64-10.76.49-25.74-1.14-5.51-1.14-6.4.08-10.53,3.07-10.68,11.17-22.75,20.56-30.44,4.78-4,11.33-7.93,14.57-8.9,1.14-.33,4.13-1.54,6.72-2.67l4.7-2-2.35-1C2262.57,161.07,2259.74,160.91,2254.72,162Z"/><path class="cls-1" d="M1478.64,162.53c-4,1.45-5.67,7.2-11.74,40.8-2.92,15.95-3.65,17.89-5.1,14-.73-2-.81-2-2.11,2.18-.16.65-.73,1.22-1.13,1.22-1.3,0-9-6.8-30.28-27-13.68-13-16-14.82-20.08-16-3.4-1.06-5.67-.17-7.61,2.83-1.78,2.75-.48,5.51,4.21,8.66a142.19,142.19,0,0,1,11.58,10c13.11,12.47,18,17,23.07,21.13,2.67,2.27,5,4.29,5.26,4.53,1.62,2,10.61,7.37,13.12,7.78,1.7.24,3.32.81,3.56,1.21s-.08,4.62-.81,9.39c-1.13,8-1.62,12.79-3.72,37.81-.65,8.74-1.13,25.58-.89,34.49.08,5.59,1.78,8.1,5.58,8.18a6.78,6.78,0,0,0,4.13-1.3c1.7-1.62,2.92-6.23,1.78-7-.56-.24-.56-3.24-.08-8.1.41-4.21,1.3-14.25,2-22.26,2-22.75,3.64-39.19,4.45-44.53.41-2.67,1.13-7.77,1.54-11.33s1.62-11.42,2.51-17.41,2-13.28,2.43-16.19c2-15.14,3.48-23.32,4.61-25.67,1.54-3.32.89-6.15-1.78-7.36a7.74,7.74,0,0,0-2.27-.89C1480.82,161.72,1479.77,162.12,1478.64,162.53Z"/><path class="cls-1" d="M1884.81,175.88c-1.21,1.22-1.37,2.19-.89,5.51.73,5.75,1.95,16.52,2.84,25.58,1.94,21.38,2.83,27.69,4.53,34.09a10.23,10.23,0,0,0,2.51,3.48c4.13,4.13,9.23,2.1,12.71-5.1,2.11-4.54,1.62-5.43-1.54-2.59-1.62,1.37-3.4,2.51-4,2.51-1.53,0-2.67-4-3.64-12.55-1.29-11.42-2.35-18.78-3.56-26.72-.65-4.05-1.54-9.71-2-12.71s-1-5.91-1-6.48,1.3-1.37,3.4-1.94l3.65-.89-2.51-1.3C1890.89,174.59,1886.43,174.18,1884.81,175.88Z"/><path class="cls-1" d="M1915.17,176c-1.94,1.29-2.26,6.23-1,11.49.49,1.62,1.38,8,2.11,14.25s1.62,13.36,2,15.87a43.62,43.62,0,0,1,.81,6.8c0,2.59,2,13.84,3.4,18.62,1.3,4.53,3.64,6.88,6.72,6.88,5.18,0,5.59-.57,21-32.79,3.48-7.12,7.85-15.46,9.88-18.46,5.34-8,5.74-7.77,13.19,7.13,10.61,21.13,16.11,29.63,24,37,6.56,6.07,11.58,8.17,19.27,8.25,7.53,0,11.41-1.61,19.1-7.93,2.51-2,4.94-3.72,5.35-3.72a29.75,29.75,0,0,1,5.58,2.34,57.9,57.9,0,0,0,21.46,4.94c8.9,0,14.57-3.32,20.48-11.74l1.46-2.18,1.37,2.35c2.35,3.8,6.72,11.74,8.83,15.86,1.62,3.16,1.78,4,.89,5.1-.57.65-6.48,5.51-13.2,10.61-15.46,11.9-24,20.16-27.85,27-2.83,5-3,5.59-2.91,12.95,0,8.26,1.21,12.07,5.5,17.81,5,6.64,17.09,12.15,26.72,12.15,11.5,0,21.54-4.05,28.26-11.34,6.55-7,8.25-12.3,8.17-24.77s-2.91-24.77-8.9-38.21a25.6,25.6,0,0,1-2-5.83c0-1.7,8.75-10.45,10.45-10.53.56,0,3.56,2.27,6.56,5.1,9.79,9.07,20.56,13,36,13,8.5.08,10.12-.16,13-1.7a21,21,0,0,0,10.84-14.66c1.7-8.17.57-19.59-2.18-21.77-1.05-.89-1.46-.33-3,3.64a85.55,85.55,0,0,0-3.15,10.77c-1.79,8.09-4.62,11.57-10.29,12.79-6.47,1.38-18.86-.89-27-4.94-4.61-2.35-11-8.58-11-10.85,0-1.13,2-4,5.27-7.53,13.68-14.89,20.64-27.36,20.64-36.75,0-4.46-.16-4.86-3.56-8.26-4.21-4.21-8.42-5.59-15.46-5.1-13,.81-21.86,15.22-22.84,36.92-.4,8-.24,10.93,1,15.22l1.45,5.34-4.77,4.78c-3.08,3.15-5.35,4.77-6.32,4.61-1.78-.24-8.82-12.39-17.16-29.63-5.59-11.5-7.13-13-11.26-11.5-2.75,1.06-3.15,3.65-1.61,10.12,1.7,7.45.48,14-3.32,18.14l-2.68,2.91-7.12-.08c-7.45-.08-15.14-2.18-18.13-4.86-1.54-1.37-1.46-1.53.8-5.66,4.62-8.1,6.72-16.36,6.81-27l.16-9.64-2.43-2.59c-6.8-7.2-15.55-5.67-21.13,3.73-3.16,5.42-5.18,14-5.18,21.86,0,5.91.4,7.93,2.59,13.52l2.59,6.55-3.24,2.67c-9.72,8.26-17.08,7.94-26.23-1.29-6.15-6.07-14.09-18.62-22.1-34.81-6-12.23-9.56-16.6-13.85-17.41-9.63-1.86-16.84,7.45-33.19,42.67-2,4.37-3.81,7.93-4,7.93-1,0-2.27-3.64-3-8-.41-2.51-1.3-7.86-2-11.82s-1.62-9.48-1.94-12.15S1922.7,192,1922,188c-1-5.35-1.21-7.61-.56-8.66C1923.19,176.53,1918.25,173.78,1915.17,176ZM2149,190.54c3.31,1.86,3.72,3.8,1.78,9.07-2.27,6.15-6,12-13,20.48-5.5,6.72-6.07,7.2-7.12,5.83-1.3-1.78-1.38-10.28-.16-16.92.89-4.7,4.45-13.36,6.55-15.79C2140.57,189.08,2144.78,188.19,2149,190.54Zm-100,4.53c1.62,6.48-4.13,26.39-7.85,27.12-.89.17-1.62-1-2.51-4.13-1.62-5.58-1.62-7.28,0-14.57,1.45-6.48,2.18-8.26,4.53-10.85C2045.44,190.21,2048,191.27,2049,195.07Zm59.59,72.38c6.64,15.06,9.31,35.06,5.74,43.39-4.21,9.88-14.08,15.14-26.47,14.09-10.28-.81-17.32-6.23-20.32-15.7-1.3-4.21-1.3-4.62.08-8.59,1.94-5.5,5.59-10.36,12.79-17.24,8.58-8.1,24.29-20.48,25.5-20C2106.48,263.64,2107.7,265.43,2108.59,267.45Z"/></svg>