<svg id="Layer_1" data-name="Layer 1" xmlns="http://www.w3.org/2000/svg" viewBox="0 0 243 243"><defs><style>.cls-1{fill:#231f20;}.cls-2{fill:none;stroke:#231f20;stroke-miterlimit:10;stroke-width:0.5px;}</style></defs><path class="cls-1" d="M52.63,194.8h6.13v1.11h-4.9v3.18h4.65v1.09H53.86v3.41h4.9v1.11H52.63Z"/><path class="cls-1" d="M60.39,194.8H64.1a3.5,3.5,0,0,1,1.66.37,2.65,2.65,0,0,1,1.1,1,3,3,0,0,1,.39,1.56h0a3,3,0,0,1-.53,1.78,2.76,2.76,0,0,1-1.46,1.05l2.3,4.11H66.11L64,200.78H61.62v3.92H60.39Zm3.6,4.89a2.06,2.06,0,0,0,1.47-.49,1.88,1.88,0,0,0,.52-1.41h0a1.79,1.79,0,0,0-.55-1.39,2.14,2.14,0,0,0-1.5-.49H61.62v3.79Z"/><path class="cls-1" d="M70.55,204.23A4.13,4.13,0,0,1,69,202.45a6,6,0,0,1-.56-2.71h0A6,6,0,0,1,69,197a4.13,4.13,0,0,1,1.57-1.78,4.42,4.42,0,0,1,2.39-.63,4.24,4.24,0,0,1,1.87.4,3.88,3.88,0,0,1,1.41,1.09,3.59,3.59,0,0,1,.75,1.64l0,.06H75.74l0-.15a2.82,2.82,0,0,0-.57-1,2.65,2.65,0,0,0-.93-.65,3.28,3.28,0,0,0-1.25-.23,3.07,3.07,0,0,0-1.72.49,3.23,3.23,0,0,0-1.13,1.38,5,5,0,0,0-.4,2.1h0a5,5,0,0,0,.4,2.1,3.27,3.27,0,0,0,1.13,1.39,3,3,0,0,0,1.72.49,3.26,3.26,0,0,0,1.24-.22,2.58,2.58,0,0,0,.93-.67,3.08,3.08,0,0,0,.61-1.1l0-.06H77l0,.07a3.77,3.77,0,0,1-.74,1.65,3.88,3.88,0,0,1-1.41,1.09,4.57,4.57,0,0,1-1.88.38A4.46,4.46,0,0,1,70.55,204.23Z"/><path class="cls-1" d="M78,200.13h4.39v1.11H78Z"/><path class="cls-1" d="M84,203.85l3.49-3.64a15,15,0,0,0,1-1.15,3.26,3.26,0,0,0,.49-.82,2.28,2.28,0,0,0,.13-.78h0a1.68,1.68,0,0,0-.23-.9,1.76,1.76,0,0,0-.65-.62,2.12,2.12,0,0,0-1-.22,2.39,2.39,0,0,0-1.11.26,2,2,0,0,0-.76.69,1.73,1.73,0,0,0-.29,1v0H83.9v0a2.7,2.7,0,0,1,.45-1.53,3,3,0,0,1,1.2-1.07,3.64,3.64,0,0,1,1.68-.39,3.46,3.46,0,0,1,1.6.37,2.85,2.85,0,0,1,1.1,1,2.57,2.57,0,0,1,.4,1.4h0a2.92,2.92,0,0,1-.2,1,4.7,4.7,0,0,1-.71,1.14A19.61,19.61,0,0,1,88,201.16l-2.72,2.78.37-.76v.76l-.37-.34h5.2v1.1H84Z"/><path class="cls-1" d="M93.41,204.24a4,4,0,0,1-1.24-1.77,7.68,7.68,0,0,1-.44-2.72h0a7.68,7.68,0,0,1,.44-2.72,3.87,3.87,0,0,1,1.24-1.76,3.08,3.08,0,0,1,2-.63,3.13,3.13,0,0,1,2,.63A3.89,3.89,0,0,1,98.57,197a7.68,7.68,0,0,1,.44,2.72h0a7.68,7.68,0,0,1-.44,2.72,4,4,0,0,1-1.25,1.77,3.18,3.18,0,0,1-2,.62A3.13,3.13,0,0,1,93.41,204.24Zm3.25-1a3,3,0,0,0,.82-1.39,7.19,7.19,0,0,0,.28-2.15h0a7.24,7.24,0,0,0-.28-2.15,3,3,0,0,0-.82-1.38,2,2,0,0,0-2.59,0,3.09,3.09,0,0,0-.81,1.38,7.24,7.24,0,0,0-.28,2.15h0a7.19,7.19,0,0,0,.28,2.15,3.13,3.13,0,0,0,.81,1.39,2,2,0,0,0,2.59,0Z"/><path class="cls-1" d="M106,195.91h-3.13V194.8h7.48v1.11h-3.12v8.79H106Z"/><path class="cls-1" d="M110.82,204.38a3.13,3.13,0,0,1-1.16-1.28,4.5,4.5,0,0,1-.41-2h0a4.44,4.44,0,0,1,.41-2,3.11,3.11,0,0,1,1.16-1.27,3.55,3.55,0,0,1,3.46,0,3.11,3.11,0,0,1,1.16,1.27,4.44,4.44,0,0,1,.41,2h0a4.44,4.44,0,0,1-.41,2,3.07,3.07,0,0,1-1.16,1.28,3.55,3.55,0,0,1-3.46,0Zm2.83-.91a2,2,0,0,0,.72-.91,3.42,3.42,0,0,0,.26-1.43h0a3.42,3.42,0,0,0-.26-1.43,1.88,1.88,0,0,0-1.82-1.21,2,2,0,0,0-1.09.31,2.05,2.05,0,0,0-.73.9,3.42,3.42,0,0,0-.26,1.43h0a3.42,3.42,0,0,0,.26,1.43,2,2,0,0,0,.73.91,2,2,0,0,0,1.1.31A1.94,1.94,0,0,0,113.65,203.47Z"/><path class="cls-1" d="M117.15,194.8h1.19v9.9h-1.19Zm.93,5.91h.29l3.13-3.15H123l-3.39,3.37h-.09l-1.39,1.33Zm.86.58.8-.8,3.3,4.21h-1.38Z"/><path class="cls-1" d="M124.7,204.38a3,3,0,0,1-1.13-1.28,4.51,4.51,0,0,1-.39-1.94h0a4.4,4.4,0,0,1,.4-1.94,3,3,0,0,1,1.11-1.31,3,3,0,0,1,1.7-.47,3.06,3.06,0,0,1,1.68.45,3,3,0,0,1,1.08,1.25,4.44,4.44,0,0,1,.37,1.88v.44h-5.74v-.93h5.15l-.6.86v-.46a3.23,3.23,0,0,0-.25-1.37,1.77,1.77,0,0,0-.69-.8,1.88,1.88,0,0,0-1-.27,2,2,0,0,0-1,.28,1.91,1.91,0,0,0-.71.82,3,3,0,0,0-.26,1.34v.46a2.94,2.94,0,0,0,.25,1.29,1.89,1.89,0,0,0,.73.82,2.15,2.15,0,0,0,1.12.29,2.29,2.29,0,0,0,.81-.14,1.67,1.67,0,0,0,.6-.38,1.37,1.37,0,0,0,.34-.55l0-.06h1.17v.07a2.27,2.27,0,0,1-.34.82,2.58,2.58,0,0,1-.64.68,3,3,0,0,1-.89.45,3.5,3.5,0,0,1-1.09.16A3.34,3.34,0,0,1,124.7,204.38Z"/><path class="cls-1" d="M130.72,197.56h1.2v1h0a2.39,2.39,0,0,1,.84-.83,2.61,2.61,0,0,1,1.36-.32,2.32,2.32,0,0,1,1.82.71,2.75,2.75,0,0,1,.65,1.93v4.63h-1.19v-4.42A1.94,1.94,0,0,0,135,199a1.55,1.55,0,0,0-1.23-.47,1.9,1.9,0,0,0-1,.25,1.66,1.66,0,0,0-.65.71,2.21,2.21,0,0,0-.23,1.06v4.2h-1.2Z"/><path class="cls-1" d="M142.55,204.53a3,3,0,0,1-1.29-.95,2.63,2.63,0,0,1-.54-1.46V202H142v.1a1.64,1.64,0,0,0,.4.85,2.19,2.19,0,0,0,.88.56,3.71,3.71,0,0,0,1.26.19,3.31,3.31,0,0,0,1.23-.2,1.77,1.77,0,0,0,.81-.58,1.42,1.42,0,0,0,.28-.88h0a1.31,1.31,0,0,0-.45-1,3.38,3.38,0,0,0-1.47-.62l-1.1-.24a4.59,4.59,0,0,1-2.15-1,2.33,2.33,0,0,1-.69-1.75h0a2.39,2.39,0,0,1,.45-1.44,3,3,0,0,1,1.23-1,4.32,4.32,0,0,1,1.8-.36,4.14,4.14,0,0,1,1.73.35,3.08,3.08,0,0,1,1.22,1,2.75,2.75,0,0,1,.51,1.43v.1h-1.24v-.09a1.8,1.8,0,0,0-.37-.87,2,2,0,0,0-.77-.54,2.93,2.93,0,0,0-1.11-.2,3.11,3.11,0,0,0-1.15.2,1.74,1.74,0,0,0-.77.56,1.33,1.33,0,0,0-.27.83h0a1.25,1.25,0,0,0,.46,1,3.3,3.3,0,0,0,1.43.6l1.09.24a4.55,4.55,0,0,1,2.21,1,2.38,2.38,0,0,1,.68,1.79h0a2.61,2.61,0,0,1-.45,1.53,2.75,2.75,0,0,1-1.26,1,4.85,4.85,0,0,1-1.95.35A5,5,0,0,1,142.55,204.53Z"/><path class="cls-1" d="M150.19,204.37a2,2,0,0,1-.49-1.49v-4.33h-1v-1h1v-1.92h1.24v1.92h1.36v1h-1.36v4.32a.93.93,0,0,0,.25.77,1.07,1.07,0,0,0,.72.21h.21l.18,0v1l-.29,0h-.35A2.07,2.07,0,0,1,150.19,204.37Z"/><path class="cls-1" d="M154.28,204.57a1.91,1.91,0,0,1-.83-.76,2.1,2.1,0,0,1-.3-1.13h0a1.75,1.75,0,0,1,.68-1.46,3.25,3.25,0,0,1,1.9-.61l2.64-.16v.93l-2.5.15a2.06,2.06,0,0,0-1.11.34,1,1,0,0,0-.39.81h0a1,1,0,0,0,.39.82,1.62,1.62,0,0,0,1,.3,2.12,2.12,0,0,0,1-.24,1.78,1.78,0,0,0,.71-.65,1.63,1.63,0,0,0,.27-.92v-2.11a1.33,1.33,0,0,0-.41-1,1.65,1.65,0,0,0-1.16-.38,1.86,1.86,0,0,0-1.1.3,1.23,1.23,0,0,0-.53.78v.06h-1.15v-.07a2.15,2.15,0,0,1,.4-1.07,2.4,2.4,0,0,1,1-.77,3.41,3.41,0,0,1,1.45-.28,3.46,3.46,0,0,1,1.46.28,2.38,2.38,0,0,1,.95.82,2.27,2.27,0,0,1,.33,1.24v4.93h-1.19v-1.16h0a2.26,2.26,0,0,1-.55.68,2.48,2.48,0,0,1-.77.45,2.53,2.53,0,0,1-.91.16A2.72,2.72,0,0,1,154.28,204.57Z"/><path class="cls-1" d="M160.49,197.56h1.19v1h0a2.23,2.23,0,0,1,.84-.83,2.55,2.55,0,0,1,1.35-.32,2.3,2.3,0,0,1,1.82.71,2.7,2.7,0,0,1,.65,1.93v4.63h-1.19v-4.42a1.94,1.94,0,0,0-.41-1.33,1.55,1.55,0,0,0-1.23-.47,1.93,1.93,0,0,0-1,.25,1.66,1.66,0,0,0-.65.71,2.33,2.33,0,0,0-.23,1.06v4.2h-1.19Z"/><path class="cls-1" d="M169,204.38a3,3,0,0,1-1.06-1.29,4.6,4.6,0,0,1-.38-2h0a4.68,4.68,0,0,1,.38-2,3.08,3.08,0,0,1,1.06-1.29,2.78,2.78,0,0,1,1.57-.45,2.66,2.66,0,0,1,1.35.35,2.5,2.5,0,0,1,.93,1h0v-4h1.2v9.9h-1.2v-1.21h0a2.47,2.47,0,0,1-2.26,1.34A2.8,2.8,0,0,1,169,204.38Zm2.89-.93a2.14,2.14,0,0,0,.73-.93,3.35,3.35,0,0,0,.27-1.39h0a3.35,3.35,0,0,0-.27-1.39,2.25,2.25,0,0,0-.73-.92,1.79,1.79,0,0,0-1.07-.33,1.83,1.83,0,0,0-1.09.33,2,2,0,0,0-.7.91,3.5,3.5,0,0,0-.25,1.4h0a3.55,3.55,0,0,0,.25,1.41,2,2,0,0,0,.7.92,1.89,1.89,0,0,0,1.09.32A1.79,1.79,0,0,0,171.87,203.45Z"/><path class="cls-1" d="M176.51,204.57a2,2,0,0,1-.83-.76,2.1,2.1,0,0,1-.3-1.13h0a1.78,1.78,0,0,1,.68-1.46,3.26,3.26,0,0,1,1.91-.61l2.64-.16v.93l-2.51.15a2.06,2.06,0,0,0-1.11.34,1,1,0,0,0-.39.81h0a1,1,0,0,0,.39.82,1.64,1.64,0,0,0,1,.3,2.09,2.09,0,0,0,1-.24,1.88,1.88,0,0,0,.72-.65A1.7,1.7,0,0,0,180,202v-2.11a1.33,1.33,0,0,0-.41-1,1.64,1.64,0,0,0-1.15-.38,1.87,1.87,0,0,0-1.11.3,1.27,1.27,0,0,0-.53.78v.06h-1.15v-.07a2.15,2.15,0,0,1,.4-1.07,2.47,2.47,0,0,1,1-.77,3.41,3.41,0,0,1,1.45-.28,3.46,3.46,0,0,1,1.46.28,2.31,2.31,0,0,1,1,.82,2.27,2.27,0,0,1,.33,1.24v4.93H180v-1.16h0a2.26,2.26,0,0,1-.55.68,2.57,2.57,0,0,1-1.68.61A2.72,2.72,0,0,1,176.51,204.57Z"/><path class="cls-1" d="M182.72,197.56h1.19v1.21h0a1.89,1.89,0,0,1,.62-1,1.59,1.59,0,0,1,1-.36h.28l.2,0v1.16l-.24,0a2.41,2.41,0,0,0-.4,0,1.52,1.52,0,0,0-.8.21,1.47,1.47,0,0,0-.54.59,2.2,2.2,0,0,0-.19.93v4.41h-1.19Z"/><path class="cls-1" d="M187.79,204.38a3.08,3.08,0,0,1-1.06-1.29,4.76,4.76,0,0,1-.38-2h0a4.68,4.68,0,0,1,.38-2,3.16,3.16,0,0,1,1.06-1.29,2.81,2.81,0,0,1,1.58-.45,2.66,2.66,0,0,1,1.35.35,2.58,2.58,0,0,1,.93,1h0v-4h1.19v9.9h-1.19v-1.21h0a2.5,2.5,0,0,1-2.26,1.34A2.86,2.86,0,0,1,187.79,204.38Zm2.9-.93a2.22,2.22,0,0,0,.73-.93,3.35,3.35,0,0,0,.26-1.39h0a3.52,3.52,0,0,0-.26-1.39,2.34,2.34,0,0,0-.73-.92,1.93,1.93,0,0,0-2.16,0,2,2,0,0,0-.71.91,3.69,3.69,0,0,0-.24,1.4h0a3.75,3.75,0,0,0,.24,1.41,2,2,0,0,0,.71.92,1.89,1.89,0,0,0,1.09.32A1.81,1.81,0,0,0,190.69,203.45Z"/><rect class="cls-2" x="39.72" y="106.65" width="161.87" height="39.24"/><rect class="cls-2" x="39.83" y="180.13" width="161.77" height="39.24"/><path class="cls-1" d="M66,130.84a2.1,2.1,0,0,1-.89-.8,2.28,2.28,0,0,1-.31-1.2v0a1.89,1.89,0,0,1,.72-1.55,3.41,3.41,0,0,1,2-.65l2.81-.16v1l-2.67.16a2.09,2.09,0,0,0-1.18.37,1,1,0,0,0-.42.85v0a1,1,0,0,0,.42.86,1.7,1.7,0,0,0,1.1.33,2.26,2.26,0,0,0,1.07-.26,1.87,1.87,0,0,0,.76-.69,1.75,1.75,0,0,0,.28-1v-2.24a1.38,1.38,0,0,0-.43-1.09,1.74,1.74,0,0,0-1.23-.4,1.94,1.94,0,0,0-1.18.32,1.3,1.3,0,0,0-.56.82v.07H65.06v-.08a2.33,2.33,0,0,1,.42-1.14,2.59,2.59,0,0,1,1-.81,3.53,3.53,0,0,1,1.54-.31,3.66,3.66,0,0,1,1.55.31,2.3,2.3,0,0,1,1,.87,2.44,2.44,0,0,1,.35,1.31V131H69.7v-1.23h0a2.25,2.25,0,0,1-.58.72,2.84,2.84,0,0,1-.82.49,2.87,2.87,0,0,1-1,.17A2.92,2.92,0,0,1,66,130.84Z"/><path class="cls-1" d="M72.78,120.45H74.3L78,129.32h0l3.65-8.87h1.51V131H81.94v-8.14h-.6l1.42-2.1L78.53,131H77.42l-4.23-10.24,1.42,2.1H74V131H72.78Z"/><path class="cls-1" d="M89.72,130.8a3.19,3.19,0,0,1-1.38-1,2.92,2.92,0,0,1-.57-1.55v-.11h1.32v.11a1.79,1.79,0,0,0,.43.91,2.44,2.44,0,0,0,.93.59,4,4,0,0,0,1.34.21,3.72,3.72,0,0,0,1.32-.22,1.92,1.92,0,0,0,.86-.62,1.51,1.51,0,0,0,.3-.94h0a1.4,1.4,0,0,0-.48-1.11,3.75,3.75,0,0,0-1.57-.65l-1.17-.26a4.75,4.75,0,0,1-2.28-1,2.46,2.46,0,0,1-.74-1.87h0a2.55,2.55,0,0,1,.48-1.53,3.16,3.16,0,0,1,1.31-1,4.67,4.67,0,0,1,1.92-.38,4.35,4.35,0,0,1,1.84.37,3.23,3.23,0,0,1,1.29,1,2.83,2.83,0,0,1,.55,1.51v.11H94.11l0-.1a1.82,1.82,0,0,0-.39-.92,2,2,0,0,0-.82-.58,3.07,3.07,0,0,0-1.18-.21,3.11,3.11,0,0,0-1.23.22,1.78,1.78,0,0,0-.81.59,1.44,1.44,0,0,0-.29.89h0a1.31,1.31,0,0,0,.49,1.06,3.48,3.48,0,0,0,1.52.65l1.17.25a4.82,4.82,0,0,1,2.34,1.06,2.52,2.52,0,0,1,.72,1.9h0a2.76,2.76,0,0,1-.47,1.62,3,3,0,0,1-1.34,1.05,5.26,5.26,0,0,1-2.08.38A5.14,5.14,0,0,1,89.72,130.8Z"/><path class="cls-1" d="M97,123.39h1.27v1.11h0a2.07,2.07,0,0,1,.8-.91,2.36,2.36,0,0,1,1.28-.35,2.58,2.58,0,0,1,.94.17,2,2,0,0,1,.72.5,2.16,2.16,0,0,1,.47.79h0a2.59,2.59,0,0,1,.56-.78,2.55,2.55,0,0,1,.82-.5,2.9,2.9,0,0,1,2.31.13,2.25,2.25,0,0,1,.86.87,2.74,2.74,0,0,1,.3,1.32V131h-1.27V126a1.69,1.69,0,0,0-.41-1.22,1.48,1.48,0,0,0-1.16-.44,1.66,1.66,0,0,0-1.5.86,1.88,1.88,0,0,0-.22.93V131h-1.27v-5.09a1.5,1.5,0,0,0-.42-1.11,1.57,1.57,0,0,0-1.13-.41,1.68,1.68,0,0,0-.9.24,2,2,0,0,0-.62.66,2,2,0,0,0-.22,1V131H97Z"/><path class="cls-1" d="M109.86,130.84a2.1,2.1,0,0,1-.89-.8,2.29,2.29,0,0,1-.32-1.2v0a1.89,1.89,0,0,1,.72-1.55,3.43,3.43,0,0,1,2-.65l2.81-.16v1l-2.66.16a2.07,2.07,0,0,0-1.18.37,1,1,0,0,0-.42.85v0a1,1,0,0,0,.41.86,1.72,1.72,0,0,0,1.1.33,2.27,2.27,0,0,0,1.08-.26,1.87,1.87,0,0,0,.76-.69,1.84,1.84,0,0,0,.28-1v-2.24a1.39,1.39,0,0,0-.44-1.09,1.74,1.74,0,0,0-1.23-.4,1.91,1.91,0,0,0-1.17.32,1.3,1.3,0,0,0-.56.82l0,.07h-1.22v-.08a2.24,2.24,0,0,1,.43-1.14,2.59,2.59,0,0,1,1-.81,3.47,3.47,0,0,1,1.54-.31,3.69,3.69,0,0,1,1.55.31,2.27,2.27,0,0,1,1,.87,2.36,2.36,0,0,1,.36,1.31V131h-1.27v-1.23h0a2.39,2.39,0,0,1-.58.72,2.89,2.89,0,0,1-.83.49,2.77,2.77,0,0,1-1,.17A2.89,2.89,0,0,1,109.86,130.84Z"/><path class="cls-1" d="M116.46,123.39h1.27v1.28h0a2.12,2.12,0,0,1,.66-1,1.67,1.67,0,0,1,1.11-.39l.3,0,.21,0v1.24a1,1,0,0,0-.26,0,2.68,2.68,0,0,0-.42,0,1.71,1.71,0,0,0-.86.21,1.55,1.55,0,0,0-.57.64,2.25,2.25,0,0,0-.2,1V131h-1.27Z"/><path class="cls-1" d="M122.34,130.63a2.09,2.09,0,0,1-.52-1.58v-4.61h-1.11v-1h1.11v-2h1.31v2h1.45v1h-1.45V129a1,1,0,0,0,.27.82,1.2,1.2,0,0,0,.77.22h.22l.19,0v1l-.3,0-.38,0A2.18,2.18,0,0,1,122.34,130.63Z"/><path class="cls-1" d="M131.06,130.49a4.51,4.51,0,0,1-1.68-1.9,6.58,6.58,0,0,1-.59-2.88h0a6.56,6.56,0,0,1,.59-2.87,4.48,4.48,0,0,1,1.68-1.89,5.07,5.07,0,0,1,4.54-.25,4.1,4.1,0,0,1,1.5,1.16,4,4,0,0,1,.8,1.74v.08h-1.33l-.05-.16a3,3,0,0,0-.61-1.1,2.94,2.94,0,0,0-1-.69,3.47,3.47,0,0,0-1.33-.24,3.2,3.2,0,0,0-1.83.53,3.42,3.42,0,0,0-1.2,1.46,5.47,5.47,0,0,0-.43,2.23h0a5.47,5.47,0,0,0,.43,2.23,3.43,3.43,0,0,0,1.21,1.48,3.19,3.19,0,0,0,1.82.53,3.41,3.41,0,0,0,1.32-.25,2.62,2.62,0,0,0,1-.71,3.17,3.17,0,0,0,.64-1.16l0-.07h1.33v.08a4,4,0,0,1-2.3,2.91,5.12,5.12,0,0,1-4.54-.26Z"/><path class="cls-1" d="M140.56,130.65a3.41,3.41,0,0,1-1.23-1.37,4.7,4.7,0,0,1-.44-2.09v0a4.67,4.67,0,0,1,.44-2.09,3.32,3.32,0,0,1,1.23-1.36,3.77,3.77,0,0,1,3.68,0,3.27,3.27,0,0,1,1.24,1.36,4.67,4.67,0,0,1,.44,2.09v0a4.7,4.7,0,0,1-.44,2.09,3.41,3.41,0,0,1-1.23,1.37,3.48,3.48,0,0,1-1.84.48A3.52,3.52,0,0,1,140.56,130.65Zm3-1a2.19,2.19,0,0,0,.77-1,3.86,3.86,0,0,0,.27-1.52v0a3.86,3.86,0,0,0-.27-1.52,2.12,2.12,0,0,0-.78-1,2.22,2.22,0,0,0-2.33,0,2.13,2.13,0,0,0-.77,1,3.6,3.6,0,0,0-.28,1.51v0a3.68,3.68,0,0,0,.28,1.52,2,2,0,0,0,1.95,1.29A2,2,0,0,0,143.58,129.67Z"/><path class="cls-1" d="M147.2,123.39h1.27v1.08h0a2.35,2.35,0,0,1,.89-.88,2.79,2.79,0,0,1,1.44-.35,2.5,2.5,0,0,1,1.94.76,2.92,2.92,0,0,1,.69,2V131h-1.27v-4.7a2.08,2.08,0,0,0-.43-1.42,1.65,1.65,0,0,0-1.31-.49,2.1,2.1,0,0,0-1,.26,1.92,1.92,0,0,0-.69.75,2.51,2.51,0,0,0-.24,1.13V131H147.2Z"/><path class="cls-1" d="M156,130.63a2.09,2.09,0,0,1-.52-1.58v-4.61h-1.11v-1h1.11v-2h1.32v2h1.44v1h-1.44V129a1,1,0,0,0,.26.82,1.2,1.2,0,0,0,.77.22H158l.19,0v1l-.3,0-.38,0A2.2,2.2,0,0,1,156,130.63Z"/><path class="cls-1" d="M159.58,123.39h1.27v1.28h0a2,2,0,0,1,.66-1,1.66,1.66,0,0,1,1.1-.39l.31,0,.21,0v1.24a1,1,0,0,0-.26,0,2.82,2.82,0,0,0-.42,0,1.71,1.71,0,0,0-.86.21,1.42,1.42,0,0,0-.57.64,2.25,2.25,0,0,0-.2,1V131h-1.27Z"/><path class="cls-1" d="M164.94,130.84a2.1,2.1,0,0,1-.89-.8,2.29,2.29,0,0,1-.32-1.2v0a1.87,1.87,0,0,1,.73-1.55,3.38,3.38,0,0,1,2-.65l2.81-.16v1l-2.67.16a2.07,2.07,0,0,0-1.18.37,1,1,0,0,0-.42.85v0a1,1,0,0,0,.41.86,1.74,1.74,0,0,0,1.1.33,2.27,2.27,0,0,0,1.08-.26,1.87,1.87,0,0,0,.76-.69,1.75,1.75,0,0,0,.28-1v-2.24a1.38,1.38,0,0,0-.43-1.09,1.74,1.74,0,0,0-1.23-.4,1.94,1.94,0,0,0-1.18.32,1.3,1.3,0,0,0-.56.82l0,.07H164v-.08a2.34,2.34,0,0,1,.43-1.14,2.59,2.59,0,0,1,1-.81,3.5,3.5,0,0,1,1.54-.31,3.66,3.66,0,0,1,1.55.31,2.27,2.27,0,0,1,1,.87,2.36,2.36,0,0,1,.36,1.31V131h-1.27v-1.23h0a2.25,2.25,0,0,1-.58.72,3,3,0,0,1-.82.49,2.87,2.87,0,0,1-1,.17A2.92,2.92,0,0,1,164.94,130.84Z"/><path class="cls-1" d="M172.83,130.64a3.21,3.21,0,0,1-1.23-1.37,4.84,4.84,0,0,1-.43-2.09h0a4.65,4.65,0,0,1,.44-2.08,3.19,3.19,0,0,1,1.23-1.36,3.71,3.71,0,0,1,3.46-.12,3,3,0,0,1,1.07,1,2.82,2.82,0,0,1,.47,1.24v.06h-1.24v-.06a2.06,2.06,0,0,0-.61-1,1.86,1.86,0,0,0-1.31-.43,2,2,0,0,0-1.16.34,2.3,2.3,0,0,0-.77,1,3.62,3.62,0,0,0-.28,1.5h0a3.77,3.77,0,0,0,.28,1.51,2.3,2.3,0,0,0,.78,1,2.07,2.07,0,0,0,1.16.33,2,2,0,0,0,1.27-.39,1.88,1.88,0,0,0,.64-1l0-.06h1.25v.06a2.92,2.92,0,0,1-.53,1.3,3,3,0,0,1-1.1.92,3.45,3.45,0,0,1-1.54.34A3.42,3.42,0,0,1,172.83,130.64Z"/><path class="cls-1" d="M179.94,130.63a2.09,2.09,0,0,1-.52-1.58v-4.61h-1.11v-1h1.11v-2h1.32v2h1.44v1h-1.44V129a1,1,0,0,0,.26.82,1.2,1.2,0,0,0,.77.22H182l.19,0v1l-.3,0-.38,0A2.2,2.2,0,0,1,179.94,130.63Z"/><line class="cls-2" x1="120.47" y1="106.65" x2="120.47" y2="29.82"/><rect class="cls-2" x="94.73" y="0.67" width="51.49" height="29.15"/><path class="cls-1" d="M106.42,20.16a8.59,8.59,0,0,1-.6-1.92,11.87,11.87,0,0,1,0-4.34,8.59,8.59,0,0,1,.6-1.92,8.47,8.47,0,0,1,1-1.7h1a4.3,4.3,0,0,0-.65,1.05,9.65,9.65,0,0,0-.52,1.44,12.21,12.21,0,0,0-.34,1.64,10.66,10.66,0,0,0,0,3.32,12.54,12.54,0,0,0,.34,1.64,9.65,9.65,0,0,0,.52,1.44,4.3,4.3,0,0,0,.65,1.05h-1A8.29,8.29,0,0,1,106.42,20.16Z"/><path class="cls-1" d="M109.56,10.28h3.13a4.71,4.71,0,0,1,2.36.55,3.68,3.68,0,0,1,1.51,1.59,5.49,5.49,0,0,1,.53,2.5v0a5.7,5.7,0,0,1-.52,2.51,3.65,3.65,0,0,1-1.51,1.6,4.83,4.83,0,0,1-2.37.55h-3.13Zm3,8.27a3.58,3.58,0,0,0,1.8-.42,2.74,2.74,0,0,0,1.11-1.22,4.63,4.63,0,0,0,.38-2h0a4.61,4.61,0,0,0-.38-2,2.72,2.72,0,0,0-1.11-1.23,3.68,3.68,0,0,0-1.8-.41h-1.89v7.22Z"/><path class="cls-1" d="M118.54,10.28H122a3.32,3.32,0,0,1,1.56.35,2.48,2.48,0,0,1,1,1,2.82,2.82,0,0,1,.37,1.47h0a2.87,2.87,0,0,1-.5,1.68,2.59,2.59,0,0,1-1.37,1l2.15,3.87h-1.36l-2-3.69H119.7V19.6h-1.16Zm3.39,4.6a1.92,1.92,0,0,0,1.38-.46,1.72,1.72,0,0,0,.49-1.32v0a1.65,1.65,0,0,0-.52-1.3,2,2,0,0,0-1.41-.47H119.7v3.57Z"/><path class="cls-1" d="M127.73,19.44a2.92,2.92,0,0,1-1.21-.89,2.52,2.52,0,0,1-.51-1.38v-.09h1.16v.09a1.53,1.53,0,0,0,.38.8,2.05,2.05,0,0,0,.83.53,3.53,3.53,0,0,0,1.18.18,3.1,3.1,0,0,0,1.16-.19,1.75,1.75,0,0,0,.76-.54,1.36,1.36,0,0,0,.27-.84h0a1.24,1.24,0,0,0-.43-1,3.33,3.33,0,0,0-1.38-.58l-1-.22a4.28,4.28,0,0,1-2-.94,2.21,2.21,0,0,1-.65-1.65h0a2.3,2.3,0,0,1,.42-1.35,2.82,2.82,0,0,1,1.16-.92,4.16,4.16,0,0,1,1.7-.33,3.86,3.86,0,0,1,1.63.32,2.87,2.87,0,0,1,1.14.91,2.42,2.42,0,0,1,.48,1.34v.1h-1.16l0-.09a1.63,1.63,0,0,0-.34-.82,1.85,1.85,0,0,0-.73-.51,2.8,2.8,0,0,0-1-.18,3,3,0,0,0-1.09.18,1.66,1.66,0,0,0-.72.53,1.24,1.24,0,0,0-.25.79h0a1.18,1.18,0,0,0,.43.94,3.3,3.3,0,0,0,1.34.57l1,.22a4.25,4.25,0,0,1,2.07.94,2.25,2.25,0,0,1,.64,1.68h0a2.47,2.47,0,0,1-.42,1.44,2.68,2.68,0,0,1-1.19.93,5.25,5.25,0,0,1-3.61,0Z"/><path class="cls-1" d="M133.66,21.86a4.29,4.29,0,0,0,.64-1.05,8.65,8.65,0,0,0,.52-1.44,12.36,12.36,0,0,0,.35-1.65,11.77,11.77,0,0,0,.12-1.65,11.91,11.91,0,0,0-.12-1.66,12.22,12.22,0,0,0-.35-1.64,8.65,8.65,0,0,0-.52-1.44,4.29,4.29,0,0,0-.64-1.05h.94a8.08,8.08,0,0,1,1,1.7,8.59,8.59,0,0,1,.6,1.92,12.49,12.49,0,0,1,0,4.34,8.59,8.59,0,0,1-.6,1.92,8.08,8.08,0,0,1-1,1.7Z"/><rect class="cls-2" x="159.44" y="0.67" width="82.82" height="29.15"/><path class="cls-1" d="M176.07,10.21h1.19l6.41,9.2-1.54-1.49h.54V10.21h1.21V20h-1.19l-6.41-9.2,1.54,1.49h-.54V20h-1.21Z"/><path class="cls-1" d="M185.77,10.21h5.93V11.3H187v3.36h4.33v1.09H187V20h-1.22Z"/><path class="cls-1" d="M195.56,11.3h-3.08V10.21h7.38V11.3h-3.08V20h-1.22Z"/><path class="cls-1" d="M205.33,19.81a3,3,0,0,1-1.27-.93,2.58,2.58,0,0,1-.53-1.45v-.09h1.22v.09a1.64,1.64,0,0,0,.4.85,2.12,2.12,0,0,0,.87.54,3.58,3.58,0,0,0,1.24.2,3.47,3.47,0,0,0,1.22-.2,1.84,1.84,0,0,0,.79-.57,1.4,1.4,0,0,0,.28-.88h0a1.3,1.3,0,0,0-.44-1,3.4,3.4,0,0,0-1.46-.61l-1.08-.24a4.37,4.37,0,0,1-2.12-1,2.29,2.29,0,0,1-.69-1.73h0a2.44,2.44,0,0,1,.45-1.41,3,3,0,0,1,1.22-1A4.3,4.3,0,0,1,207.2,10a4,4,0,0,1,1.71.35,2.91,2.91,0,0,1,1.2.95,2.62,2.62,0,0,1,.51,1.41v.1H209.4v-.1a1.76,1.76,0,0,0-.36-.85,2,2,0,0,0-.77-.54,2.8,2.8,0,0,0-1.09-.19,2.9,2.9,0,0,0-1.14.2,1.77,1.77,0,0,0-.75.54,1.33,1.33,0,0,0-.27.83h0a1.25,1.25,0,0,0,.45,1,3.32,3.32,0,0,0,1.41.59l1.09.24a4.53,4.53,0,0,1,2.17,1,2.32,2.32,0,0,1,.67,1.76h0a2.58,2.58,0,0,1-.44,1.5,2.74,2.74,0,0,1-1.24,1,5.53,5.53,0,0,1-3.79,0Z"/><path class="cls-1" d="M212.88,19.65a1.94,1.94,0,0,1-.48-1.47V13.91h-1v-1h1V11h1.22v1.91H215v1h-1.34v4.27a1,1,0,0,0,.24.76,1.12,1.12,0,0,0,.72.2h.2l.18,0v1l-.28,0h-.35A2,2,0,0,1,212.88,19.65Z"/><path class="cls-1" d="M217.22,19.67a3,3,0,0,1-1.14-1.27,4.37,4.37,0,0,1-.41-1.94v0a4.34,4.34,0,0,1,.41-1.94,3,3,0,0,1,1.14-1.26,3.54,3.54,0,0,1,3.42,0,3,3,0,0,1,1.14,1.26,4.34,4.34,0,0,1,.41,1.94v0a4.34,4.34,0,0,1-.41,1.94,3,3,0,0,1-1.14,1.27,3.54,3.54,0,0,1-3.42,0Zm2.8-.91a2,2,0,0,0,.71-.89,3.52,3.52,0,0,0,.25-1.41v0a3.44,3.44,0,0,0-.25-1.4,2,2,0,0,0-2.88-.89,2,2,0,0,0-.72.89,3.46,3.46,0,0,0-.26,1.4v0a3.51,3.51,0,0,0,.26,1.41,2,2,0,0,0,.72.89,2.05,2.05,0,0,0,2.17,0Z"/><path class="cls-1" d="M223.37,12.94h1.18v1.19h0a1.91,1.91,0,0,1,.61-1,1.56,1.56,0,0,1,1-.36l.28,0,.19,0V14a.81.81,0,0,0-.24,0,2.3,2.3,0,0,0-.39,0,1.48,1.48,0,0,0-.79.2,1.3,1.3,0,0,0-.53.58,2.15,2.15,0,0,0-.19.92V20h-1.18Z"/><path class="cls-1" d="M228.47,19.67a3,3,0,0,1-1.12-1.27,4.39,4.39,0,0,1-.39-1.92h0a4.31,4.31,0,0,1,.4-1.92,3.12,3.12,0,0,1,1.1-1.3,3.31,3.31,0,0,1,3.33,0,2.92,2.92,0,0,1,1.07,1.25,4.46,4.46,0,0,1,.37,1.85v.44h-5.68v-.92h5.1l-.6.85v-.46a3.16,3.16,0,0,0-.25-1.35,1.74,1.74,0,0,0-.68-.8,2,2,0,0,0-2,0,1.83,1.83,0,0,0-.71.81,3.08,3.08,0,0,0-.25,1.32v.46a2.91,2.91,0,0,0,.25,1.27,1.89,1.89,0,0,0,.72.81,2.07,2.07,0,0,0,1.1.28,2.2,2.2,0,0,0,.8-.13,1.62,1.62,0,0,0,.59-.38A1.28,1.28,0,0,0,232,18l0-.06h1.16V18a2.22,2.22,0,0,1-.34.81,2.66,2.66,0,0,1-.63.67,3.18,3.18,0,0,1-.88.45,3.69,3.69,0,0,1-1.07.15A3.24,3.24,0,0,1,228.47,19.67Z"/><line class="cls-2" x1="201.49" y1="72.16" x2="201.49" y2="29.82"/><rect class="cls-2" x="0.74" y="47.51" width="70.63" height="33.45"/><line class="cls-2" x1="101.69" y1="64.23" x2="101.69" y2="106.65"/><line class="cls-2" x1="71.37" y1="64.23" x2="101.69" y2="64.23"/><path class="cls-1" d="M10.19,58.61h1.2V68.2h-1.2Z"/><path class="cls-1" d="M13.07,61.29h1.16v1h0a2.3,2.3,0,0,1,.81-.8,2.58,2.58,0,0,1,1.32-.31,2.28,2.28,0,0,1,1.76.68,2.68,2.68,0,0,1,.63,1.87V68.2H17.62V63.92a1.91,1.91,0,0,0-.4-1.29A1.5,1.5,0,0,0,16,62.18a1.81,1.81,0,0,0-1,.24,1.66,1.66,0,0,0-.63.68,2.26,2.26,0,0,0-.22,1V68.2H13.07Z"/><path class="cls-1" d="M19.64,61.29h1.22L22.77,67h0l1.92-5.68h1.2L23.37,68.2H22.19Z"/><path class="cls-1" d="M27.69,67.9a3,3,0,0,1-1.1-1.24,4.46,4.46,0,0,1-.38-1.89h0a4.44,4.44,0,0,1,.38-1.88,3,3,0,0,1,1.09-1.27,3.24,3.24,0,0,1,3.26,0,2.79,2.79,0,0,1,1,1.22,4.17,4.17,0,0,1,.37,1.82v.43H26.79v-.91h5L31.2,65v-.44A3.2,3.2,0,0,0,31,63.22a1.73,1.73,0,0,0-.67-.78,1.77,1.77,0,0,0-1-.26,1.86,1.86,0,0,0-1,.27,1.82,1.82,0,0,0-.69.8,3,3,0,0,0-.25,1.3V65a2.82,2.82,0,0,0,.25,1.25,1.71,1.71,0,0,0,.71.79,2,2,0,0,0,1.08.28,2.13,2.13,0,0,0,.78-.13,1.56,1.56,0,0,0,.58-.37,1.19,1.19,0,0,0,.33-.53l0-.06h1.14v.07a2.29,2.29,0,0,1-.33.79,2.58,2.58,0,0,1-.62.66,3.09,3.09,0,0,1-.87.44,3.51,3.51,0,0,1-1.05.15A3.18,3.18,0,0,1,27.69,67.9Z"/><path class="cls-1" d="M33.52,61.29h1.16v1h0a2.3,2.3,0,0,1,.81-.8,2.58,2.58,0,0,1,1.32-.31,2.27,2.27,0,0,1,1.76.68,2.68,2.68,0,0,1,.63,1.87V68.2H38.07V63.92a1.91,1.91,0,0,0-.4-1.29,1.5,1.5,0,0,0-1.19-.45,1.81,1.81,0,0,0-.95.24,1.66,1.66,0,0,0-.63.68,2.26,2.26,0,0,0-.22,1V68.2H33.52Z"/><path class="cls-1" d="M41.52,67.88A1.89,1.89,0,0,1,41,66.44V62.25H40v-1h1V59.42h1.2v1.87h1.32v1H42.24v4.18a.93.93,0,0,0,.24.75,1.08,1.08,0,0,0,.7.2h.21l.17,0v.94l-.28,0h-.34A2,2,0,0,1,41.52,67.88Z"/><path class="cls-1" d="M45.78,67.9a3,3,0,0,1-1.12-1.25,4.2,4.2,0,0,1-.41-1.91h0a4.16,4.16,0,0,1,.41-1.9,2.87,2.87,0,0,1,1.12-1.24,3.48,3.48,0,0,1,3.35,0,2.94,2.94,0,0,1,1.12,1.24,4.16,4.16,0,0,1,.4,1.9h0a4.17,4.17,0,0,1-.4,1.91,3,3,0,0,1-1.12,1.25,3.15,3.15,0,0,1-1.67.43A3.18,3.18,0,0,1,45.78,67.9ZM48.52,67a1.94,1.94,0,0,0,.7-.88,3.39,3.39,0,0,0,.25-1.39h0a3.37,3.37,0,0,0-.25-1.38,1.83,1.83,0,0,0-1.77-1.17,1.85,1.85,0,0,0-1.05.3,1.93,1.93,0,0,0-.71.87,3.37,3.37,0,0,0-.25,1.38h0a3.39,3.39,0,0,0,.25,1.39,2,2,0,0,0,.71.88,1.88,1.88,0,0,0,1.06.3A1.84,1.84,0,0,0,48.52,67Z"/><path class="cls-1" d="M51.82,61.29H53v1.17h0a1.9,1.9,0,0,1,.6-1,1.5,1.5,0,0,1,1-.35h.27l.19,0v1.13a.72.72,0,0,0-.23,0l-.38,0a1.51,1.51,0,0,0-.78.2,1.25,1.25,0,0,0-.52.57,1.93,1.93,0,0,0-.19.9V68.2H51.82Z"/><path class="cls-1" d="M56.54,70.51l-.28,0v-.94l.17,0h.2a1.72,1.72,0,0,0,.88-.19,1.42,1.42,0,0,0,.54-.78l.13-.39-2.56-6.92h1.24l2,6L58.6,67H59l-.25.27,2-6h1.22l-2.7,7.34a4.52,4.52,0,0,1-.55,1.08,1.91,1.91,0,0,1-.74.62,2.55,2.55,0,0,1-1,.2Z"/><line class="cls-2" x1="139.95" y1="71.91" x2="201.33" y2="71.91"/><line class="cls-2" x1="140.19" y1="71.91" x2="140.19" y2="106.14"/><line class="cls-2" x1="120.47" y1="145.9" x2="120.47" y2="180.13"/></svg>